<?xml version="1.0" standalone="no"?>
<!DOCTYPE svg PUBLIC "-//W3C//DTD SVG 1.1//EN" "http://www.w3.org/Graphics/SVG/1.1/DTD/svg11.dtd" >
<svg xmlns="http://www.w3.org/2000/svg" xmlns:xlink="http://www.w3.org/1999/xlink" version="1.1">
<metadata></metadata>
<defs>
<font id="bosch_sansblack" horiz-adv-x="1290" >
<font-face units-per-em="2048" ascent="1542" descent="-506" />
<missing-glyph horiz-adv-x="471" />
<glyph unicode="&#xfb01;" horiz-adv-x="1429" d="M45 786v285h143v105q0 187 103 290t291 103q147 0 270 -76l-96 -260q-44 33 -94 33q-44 0 -69.5 -28.5t-25.5 -78.5v-88h209v-285h-209v-786h-379v786h-143zM901 1366q0 86 60.5 143.5t152.5 57.5q88 0 147.5 -58t59.5 -143q0 -86 -60.5 -144.5t-148.5 -58.5 q-89 0 -150 58.5t-61 144.5zM922 0v1071h378v-1071h-378z" />
<glyph unicode="&#xfb02;" horiz-adv-x="1427" d="M45 786v285h143v105q0 187 103 290t291 103q147 0 270 -76l-96 -260q-44 33 -94 33q-44 0 -69.5 -28.5t-25.5 -78.5v-88h209v-285h-209v-786h-379v786h-143zM920 0v1542h378v-1542h-378z" />
<glyph unicode="&#xfb03;" horiz-adv-x="2084" d="M45 786v285h143v105q0 187 103 290t291 103q147 0 270 -76l-96 -260q-44 33 -94 33q-44 0 -69.5 -28.5t-25.5 -78.5v-88h330v105q0 188 102.5 290.5t290.5 102.5q148 0 271 -76l-97 -260q-44 33 -94 33q-44 0 -69 -28.5t-25 -78.5v-88h209v-285h-209v-786h-379v786h-330 v-786h-379v786h-143zM1628 1366q0 86 60.5 143.5t152.5 57.5q88 0 147.5 -58t59.5 -143q0 -86 -60.5 -144.5t-148.5 -58.5q-89 0 -150 58.5t-61 144.5zM1649 0v1071h379v-1071h-379z" />
<glyph unicode="&#xfb04;" horiz-adv-x="2142" d="M45 786v285h143v105q0 187 103 290t291 103q147 0 270 -76l-96 -260q-44 33 -94 33q-44 0 -69.5 -28.5t-25.5 -78.5v-88h330v105q0 188 102.5 290.5t290.5 102.5q148 0 271 -76l-97 -260q-44 33 -94 33q-44 0 -69 -28.5t-25 -78.5v-88h209v-285h-209v-786h-379v786h-330 v-786h-379v786h-143zM1655 0v1542h379v-1542h-379z" />
<glyph horiz-adv-x="0" />
<glyph horiz-adv-x="682" />
<glyph unicode=" "  horiz-adv-x="471" />
<glyph unicode="&#x09;" horiz-adv-x="471" />
<glyph unicode="&#xa0;" horiz-adv-x="471" />
<glyph unicode="!" horiz-adv-x="796" d="M217 190q0 89 65.5 152.5t159.5 63.5q89 0 154.5 -64t65.5 -152q0 -89 -65 -152t-157 -63q-94 0 -158.5 62t-64.5 153zM225 1038v426h428v-426l-88 -524h-254z" />
<glyph unicode="&#x22;" horiz-adv-x="1118" d="M109 1464h401l-41 -583h-319zM610 1464h400l-39 -583h-320z" />
<glyph unicode="#" horiz-adv-x="1228" d="M94 492v272h199l18 176h-168v272h197l29 252h223l-29 -252h180l29 252h223l-28 -252h170v-272h-199l-20 -176h169v-272h-200l-27 -259h-221l27 259h-183l-26 -259h-221l26 259h-168zM514 764h182l19 176h-180z" />
<glyph unicode="$" d="M-16 305l313 160q49 -88 114 -132.5t160 -58.5v297q-126 23 -198.5 48t-136.5 67q-181 117 -181 346q0 201 130.5 316t385.5 137v180h160v-184q315 -37 477 -281l-286 -170q-47 64 -89.5 97.5t-101.5 52.5v-285q132 -25 208 -49.5t138 -63.5q89 -55 130.5 -137t41.5 -201 q0 -202 -125 -321q-63 -61 -155 -94.5t-238 -48.5v-256h-160v253q-207 13 -360 99t-227 229zM393 1063q0 -56 40 -88t138 -55v274q-92 -9 -135 -40.5t-43 -90.5zM731 272q87 12 128.5 44t41.5 87q0 54 -37.5 85.5t-132.5 56.5v-273z" />
<glyph unicode="%" horiz-adv-x="2211" d="M90 1042q0 195 119 317t309 122q187 0 305.5 -120.5t118.5 -309.5q0 -201 -118.5 -324t-313.5 -123q-192 0 -306 119t-114 319zM393 1047q0 -195 119 -195q125 0 125 195q0 92 -32 142t-91 50q-121 0 -121 -192zM553 0l825 1464h275l-824 -1464h-276zM1268 414 q0 196 119 318t311 122q186 0 304 -120t118 -310q0 -201 -118.5 -324t-313.5 -123q-190 0 -305 119.5t-115 317.5zM1569 418q0 -94 31.5 -143.5t91.5 -49.5t92.5 50.5t32.5 144.5q0 91 -32 140.5t-91 49.5q-125 0 -125 -192z" />
<glyph unicode="&#x26;" horiz-adv-x="1546" d="M70 422q0 156 82.5 256t277.5 182q-27 99 -27 191q0 197 122.5 315.5t324.5 118.5q166 0 266.5 -89.5t100.5 -238.5q0 -135 -81.5 -217.5t-295.5 -161.5q87 -146 233 -286q58 115 72 253h291q-30 -238 -142 -423q58 -31 129 -31q25 0 52 2l-31 -303q-68 -6 -94 -6 q-83 0 -150 20t-149 70q-93 -53 -182 -76t-201 -23q-283 0 -440.5 118t-157.5 329zM457 457q0 -100 60 -159.5t161 -59.5q64 0 137 24q-182 169 -291 365q-67 -76 -67 -170zM739 1079q0 -47 15 -114q92 35 129 76.5t37 107.5q0 44 -20.5 69t-55.5 25q-49 0 -77 -43.5 t-28 -120.5z" />
<glyph unicode="'" horiz-adv-x="618" d="M109 1464h401l-41 -583h-319z" />
<glyph unicode="(" horiz-adv-x="905" d="M141 643q0 279 87 504.5t276 441.5h313q-144 -232 -209 -457t-65 -489t65 -489t209 -457h-313q-190 215 -276.5 440.5t-86.5 505.5z" />
<glyph unicode=")" horiz-adv-x="905" d="M90 -303q144 233 209.5 458t65.5 488t-65.5 488t-209.5 458h313q190 -215 276.5 -440.5t86.5 -505.5q0 -279 -87 -504.5t-276 -441.5h-313z" />
<glyph unicode="*" horiz-adv-x="950" d="M78 1137l90 276l211 -121l-53 250h290l-47 -250l205 121l92 -276l-245 -27l186 -176l-232 -170l-104 235l-102 -235l-234 170l187 176z" />
<glyph unicode="+" horiz-adv-x="1228" d="M111 537v317h338v358h333v-358h338v-317h-338v-359h-333v359h-338z" />
<glyph unicode="," horiz-adv-x="645" d="M98 209q0 92 59.5 150.5t151.5 58.5q114 0 180 -80.5t66 -218.5q0 -241 -141 -373q-54 -53 -115.5 -77.5t-173.5 -37.5v174q156 38 174 205q-201 27 -201 199z" />
<glyph unicode="-" horiz-adv-x="645" d="M59 500v344h527v-344h-527z" />
<glyph unicode="." horiz-adv-x="645" d="M98 197q0 92 65 156.5t159 64.5q91 0 155 -64.5t64 -156.5t-65 -157t-157 -65t-156.5 65t-64.5 157z" />
<glyph unicode="/" horiz-adv-x="931" d="M-29 -303l600 1892h342l-598 -1892h-344z" />
<glyph unicode="0" d="M61 741q0 215 74 385.5t207.5 265.5t302.5 95q171 0 304 -95t206.5 -267t73.5 -394q0 -219 -73.5 -391.5t-206.5 -268.5t-302 -96q-261 0 -423.5 212t-162.5 554zM463 737q0 -450 182 -450t182 444q0 445 -182 445t-182 -439z" />
<glyph unicode="1" d="M168 922v282q162 17 245 81t109 192h340v-1174h264v-303h-950v303h307v666q-109 -47 -315 -47z" />
<glyph unicode="2" d="M72 1075q99 412 561 412q252 0 397.5 -124t145.5 -341q0 -145 -62 -265.5t-194 -230.5q-111 -92 -334 -223h614v-303h-1112v309q338 181 515 360t177 337q0 81 -42.5 125.5t-119.5 44.5q-78 0 -123 -43.5t-73 -143.5z" />
<glyph unicode="3" d="M33 369l340 100q32 -103 92 -149t162 -46q97 0 155 47t58 125q0 82 -55.5 120t-172.5 38h-102v273h117q92 0 145 42.5t53 114.5q0 71 -48.5 112.5t-131.5 41.5q-89 0 -151 -46.5t-105 -144.5l-295 121q66 183 210.5 276t361.5 93q247 0 394.5 -113t147.5 -301 q0 -214 -221 -303q254 -88 254 -338q0 -211 -159 -334t-431 -123q-251 0 -411.5 102.5t-206.5 291.5z" />
<glyph unicode="4" d="M18 264v328l674 885h393v-922h191v-291h-191v-264h-368v264h-699zM326 555h407v537z" />
<glyph unicode="5" d="M53 332l355 96q26 -80 79 -117t142 -37q95 0 151 59.5t56 162.5q0 92 -53.5 145t-145.5 53q-131 0 -186 -110h-332l104 880h903v-311h-626l-35 -299q59 59 128.5 86t162.5 27q214 0 339.5 -126t125.5 -341q0 -244 -155.5 -384.5t-424.5 -140.5q-289 0 -459 156 q-46 43 -74.5 87t-54.5 114z" />
<glyph unicode="6" d="M59 707q0 231 82 408.5t231.5 274.5t344.5 97q156 0 271 -57t206 -179l-256 -186q-51 66 -98.5 92.5t-114.5 26.5q-132 0 -203 -100.5t-86 -307.5q60 97 143.5 143t202.5 46q206 0 334.5 -131t128.5 -342q0 -231 -157 -374t-412 -143q-268 0 -438 179q-179 188 -179 553z M467 479q0 -92 57 -150.5t146 -58.5q90 0 147 59t57 152q0 89 -56 147t-144 58q-92 0 -149.5 -57.5t-57.5 -149.5z" />
<glyph unicode="7" d="M104 1153v311h1088v-272q-208 -223 -328 -540.5t-121 -651.5h-434q17 330 149.5 634.5t350.5 518.5h-705z" />
<glyph unicode="8" d="M51 414q0 125 59 210t185 142q-94 54 -139 127t-45 174q0 186 150 303t388 117t384.5 -115t146.5 -301q0 -197 -181 -303q124 -54 182 -136.5t58 -205.5q0 -204 -163.5 -327.5t-434.5 -123.5t-430.5 119t-159.5 320zM444 453q0 -91 54.5 -145t146.5 -54q91 0 146 54 t55 143t-55 142.5t-146 53.5t-146 -53t-55 -141zM469 1044q0 -73 50 -120t128 -47q76 0 125 46.5t49 118.5t-49 119t-125 47q-77 0 -127.5 -47t-50.5 -117z" />
<glyph unicode="9" d="M49 252l303 158q37 -71 86.5 -101t128.5 -30q139 0 206.5 94t76.5 301q-121 -176 -342 -176q-203 0 -328 129.5t-125 341.5q0 233 154.5 375.5t406.5 142.5q273 0 439 -178q176 -188 176 -559q0 -366 -174 -570.5t-486 -204.5q-358 0 -522 277zM426 981q0 -92 53 -148.5 t139 -56.5q89 0 147 58t58 149q0 92 -56 151.5t-144 59.5q-89 0 -143 -58.5t-54 -154.5z" />
<glyph unicode=":" horiz-adv-x="645" d="M100 197q0 93 65 157t159 64q89 0 154 -65t65 -156t-65 -156.5t-156 -65.5q-92 0 -157 65t-65 157zM100 778q0 94 65 158.5t159 64.5q91 0 156 -66t65 -157t-65.5 -156t-157.5 -65t-157 65t-65 156z" />
<glyph unicode=";" horiz-adv-x="645" d="M96 209q0 92 59.5 150.5t151.5 58.5q114 0 180 -80.5t66 -218.5q0 -241 -141 -373q-54 -53 -115.5 -77.5t-173.5 -37.5v174q156 38 174 205q-201 27 -201 199zM98 778q0 94 65 158.5t159 64.5q91 0 156 -66t65 -157t-66 -156t-158 -65t-156.5 65t-64.5 156z" />
<glyph unicode="&#x3c;" horiz-adv-x="1228" d="M195 508v303l827 403v-393l-430 -157l430 -175v-383z" />
<glyph unicode="=" horiz-adv-x="1228" d="M158 289v315h913v-315h-913zM158 764v315h913v-315h-913z" />
<glyph unicode="&#x3e;" horiz-adv-x="1228" d="M207 109v391l430 157l-430 174v381l829 -401v-301z" />
<glyph unicode="?" horiz-adv-x="1210" d="M86 1116q30 87 61.5 139t85.5 99q148 133 402 133q230 0 366 -110.5t136 -297.5q0 -110 -50 -188t-176 -164q-92 -63 -118.5 -99.5t-26.5 -101.5v-12h-356v31q0 116 47.5 192.5t165.5 151.5q64 41 91 78.5t27 83.5q0 57 -35 91t-92 34q-131 0 -190 -160zM358 190 q0 91 65 153.5t159 62.5q91 0 156 -64t65 -152q0 -90 -65 -152.5t-158 -62.5t-157.5 62.5t-64.5 152.5z" />
<glyph unicode="@" horiz-adv-x="1832" d="M68 502q0 192 66.5 357t182.5 282t281 183.5t356 66.5q365 0 588 -216t223 -569q0 -249 -117 -391.5t-321 -142.5q-112 0 -178.5 41t-95.5 129q-54 -89 -123.5 -131.5t-163.5 -42.5q-145 0 -231 106t-86 285q0 223 111 363.5t288 140.5q162 0 221 -119l16 102h299 l-84 -543q-4 -36 -4 -51q0 -43 18 -62.5t58 -19.5q95 0 149 93.5t54 259.5q0 285 -162.5 442.5t-456.5 157.5q-312 0 -500 -197.5t-188 -523.5q0 -304 168.5 -474.5t466.5 -170.5q125 0 212 26.5t194 96.5l100 -144q-124 -86 -240 -120.5t-280 -34.5q-180 0 -333 60 t-260.5 167.5t-167.5 260.5t-60 333zM758 463q0 -74 24 -109t76 -35q78 0 122 70t44 193q0 139 -106 139q-77 0 -118.5 -67t-41.5 -191z" />
<glyph unicode="A" horiz-adv-x="1538" d="M8 0l529 1464h475l518 -1464h-428l-80 248h-559l-82 -248h-373zM555 532h377l-187 572z" />
<glyph unicode="B" horiz-adv-x="1462" d="M152 0v1464h704q230 0 355.5 -103t125.5 -292q0 -114 -49.5 -187.5t-161.5 -125.5q134 -51 194 -132.5t60 -213.5q0 -200 -132.5 -305t-385.5 -105h-710zM547 303h270q85 0 130.5 40.5t45.5 115.5q0 155 -186 155h-260v-311zM547 893h258q153 0 153 133q0 69 -38 102 t-117 33h-256v-268z" />
<glyph unicode="C" horiz-adv-x="1503" d="M82 725q0 222 91 395.5t254.5 270t373.5 96.5q278 0 456 -158q54 -50 90.5 -102.5t79.5 -143.5l-356 -149q-49 124 -112.5 176.5t-163.5 52.5q-145 0 -220 -110t-75 -322t77 -322t226 -110q103 0 169 57t113 187l361 -150q-44 -101 -94 -167.5t-123 -121.5 q-175 -129 -424 -129q-332 0 -527.5 203t-195.5 547z" />
<glyph unicode="D" horiz-adv-x="1556" d="M152 0v1464h575q349 0 548.5 -193.5t199.5 -531.5q0 -344 -202.5 -541.5t-555.5 -197.5h-565zM555 315h178q158 0 241 107t83 311t-83.5 310t-244.5 106h-174v-834z" />
<glyph unicode="E" horiz-adv-x="1341" d="M152 0v1464h1071v-317h-676v-250h491v-303h-491v-277h706v-317h-1101z" />
<glyph unicode="F" horiz-adv-x="1282" d="M152 0v1464h1052v-317h-649v-316h492v-303h-492v-528h-403z" />
<glyph unicode="G" horiz-adv-x="1632" d="M82 727q0 222 92 395t259.5 269t381.5 96q283 0 467 -158q52 -45 86 -93t72 -130l-369 -150q-40 109 -103 158t-163 49q-148 0 -226.5 -113t-78.5 -327t82.5 -325t242.5 -111q127 0 205 67t78 176v7h-264v284h655v-821h-211l-74 193q-82 -114 -188 -166t-254 -52 q-204 0 -361 94t-243 265t-86 393z" />
<glyph unicode="H" horiz-adv-x="1579" d="M152 0v1464h403v-561h469v561h403v-1464h-403v580h-469v-580h-403z" />
<glyph unicode="I" horiz-adv-x="739" d="M168 0v1464h403v-1464h-403z" />
<glyph unicode="J" horiz-adv-x="1337" d="M96 496v65h389v-45q0 -217 152 -217q86 0 121 57t35 197v911h403v-923q0 -280 -137.5 -423t-407.5 -143q-264 0 -409.5 136.5t-145.5 384.5z" />
<glyph unicode="K" horiz-adv-x="1499" d="M152 0v1464h403v-567l426 567h440l-487 -624l528 -840h-446l-346 539l-115 -144v-395h-403z" />
<glyph unicode="L" horiz-adv-x="1212" d="M152 0v1464h403v-1140h604v-324h-1007z" />
<glyph unicode="M" horiz-adv-x="2000" d="M152 0v1464h563l280 -886l285 886h569v-1464h-395v1008l-336 -1008h-284l-332 1012v-1012h-350z" />
<glyph unicode="N" horiz-adv-x="1581" d="M152 0v1464h438l477 -858v858h363v-1464h-412l-504 903v-903h-362z" />
<glyph unicode="O" horiz-adv-x="1615" d="M82 729q0 177 59.5 326t171.5 252q198 180 504 180q210 0 373 -95.5t253.5 -267.5t90.5 -393q0 -338 -200.5 -547t-524.5 -209q-214 0 -379.5 94.5t-256.5 266t-91 393.5zM500 729q0 -209 79 -319.5t228 -110.5q152 0 230.5 110t78.5 322q0 209 -78.5 320.5t-224.5 111.5 q-313 0 -313 -434z" />
<glyph unicode="P" horiz-adv-x="1423" d="M152 0v1464h657q260 0 405.5 -130t145.5 -363q0 -221 -141 -347t-390 -126h-274v-498h-403zM555 791h219q97 0 148 47.5t51 138.5t-50 137.5t-147 46.5h-221v-370z" />
<glyph unicode="Q" horiz-adv-x="1615" d="M82 727q0 219 93 392.5t259 270.5t375 97q213 0 378 -94t256 -264t91 -390q0 -338 -217 -565l137 -158l-225 -180l-158 184q-134 -45 -274 -45q-321 0 -518 207t-197 545zM500 727q0 -233 78 -346t239 -113q27 0 39 2l-113 133l222 185l112 -131q39 116 39 272 q0 211 -79 322.5t-230 111.5q-152 0 -229.5 -110.5t-77.5 -325.5z" />
<glyph unicode="R" horiz-adv-x="1501" d="M152 0v1464h682q249 0 388.5 -113.5t139.5 -314.5q0 -150 -61.5 -238t-196.5 -134q111 -35 156 -102.5t86 -258.5q59 -248 96 -295v-8h-414q-50 86 -94 289q-31 142 -68 186.5t-125 44.5h-186v-520h-403zM555 809h227q94 0 143.5 45t49.5 131q0 88 -53 135 q-26 22 -59.5 29.5t-98.5 7.5h-209v-348z" />
<glyph unicode="S" horiz-adv-x="1333" d="M18 297l338 164q80 -174 297 -174q101 0 158 33.5t57 93.5q0 54 -46 84.5t-160 52.5q-158 30 -237 53.5t-144 59.5q-197 110 -197 358q0 217 147.5 341t405.5 124q405 0 586 -291l-316 -162q-50 77 -110.5 109.5t-155.5 32.5q-182 0 -182 -113q0 -54 45 -83t164 -52 q170 -33 257.5 -59.5t151.5 -65.5q92 -57 135 -141t43 -207q0 -232 -152 -356t-437 -124q-468 0 -648 322z" />
<glyph unicode="T" horiz-adv-x="1247" d="M29 1141v323h1190v-323h-394v-1141h-403v1141h-393z" />
<glyph unicode="U" horiz-adv-x="1550" d="M141 598v866h404v-850q0 -166 56.5 -240.5t182.5 -74.5t184 76.5t58 242.5v846h383v-864q0 -306 -160 -465.5t-467 -159.5q-313 0 -477 159t-164 464z" />
<glyph unicode="V" horiz-adv-x="1406" d="M-16 1464h436l307 -997l305 997h391l-493 -1464h-449z" />
<glyph unicode="W" horiz-adv-x="2160" d="M35 1464h422l217 -964l248 964h335l252 -975l230 975h387l-371 -1464h-432l-240 903l-239 -903h-438z" />
<glyph unicode="X" horiz-adv-x="1564" d="M47 0l496 754l-459 710h481l230 -415l227 415h428l-434 -694l502 -770h-482l-276 485l-281 -485h-432z" />
<glyph unicode="Y" horiz-adv-x="1277" d="M-57 1464h446l273 -522l268 522h405l-487 -860v-604h-404v602z" />
<glyph unicode="Z" horiz-adv-x="1310" d="M82 0v340l666 801h-637v323h1093v-342l-649 -798h670v-324h-1143z" />
<glyph unicode="[" horiz-adv-x="905" d="M166 -303v1892h622v-291h-237v-1310h237v-291h-622z" />
<glyph unicode="\" horiz-adv-x="931" d="M18 1589h344l599 -1892h-340z" />
<glyph unicode="]" horiz-adv-x="905" d="M119 -12h237v1310h-237v291h622v-1892h-622v291z" />
<glyph unicode="^" horiz-adv-x="1105" d="M88 801l332 663h262l334 -663h-289l-178 286l-182 -286h-279z" />
<glyph unicode="_" horiz-adv-x="901" d="M-41 -172h983v-260h-983v260z" />
<glyph unicode="`" horiz-adv-x="1024" d="M166 1542h422l71 -366h-272z" />
<glyph unicode="a" horiz-adv-x="1177" d="M59 283q0 188 147 274.5t478 93.5v11q0 71 -34.5 103t-112.5 32q-169 0 -310 -101l-153 252q116 80 237.5 116t280.5 36q285 0 397 -148q41 -52 58.5 -118t17.5 -168v-465q0 -107 31 -189v-12h-365q-21 60 -29 133q-106 -158 -307 -158q-156 0 -246 82.5t-90 225.5z M434 326q0 -40 27 -63t74 -23q66 0 108.5 38.5t42.5 98.5v63q-106 -2 -151 -14q-101 -21 -101 -100z" />
<glyph unicode="b" horiz-adv-x="1306" d="M119 0v1542h379v-627q112 185 309 185q195 0 312.5 -154t117.5 -409q0 -257 -117 -409.5t-313 -152.5q-217 0 -309 189v-164h-379zM485 537q0 -132 47.5 -204.5t135.5 -72.5q182 0 182 281q0 134 -45 204t-131 70q-92 0 -140.5 -71t-48.5 -207z" />
<glyph unicode="c" horiz-adv-x="1144" d="M70 526q0 257 151 415.5t397 158.5q337 0 482 -307l-318 -136q-31 94 -61 126t-90 32q-174 0 -174 -274q0 -281 180 -281q63 0 103.5 37.5t66.5 120.5l301 -139q-142 -304 -487 -304q-255 0 -403 148.5t-148 402.5z" />
<glyph unicode="d" horiz-adv-x="1304" d="M70 537q0 258 117 410.5t315 152.5q107 0 180.5 -43t124.5 -135v620h379v-1542h-379v170q-95 -195 -311 -195q-195 0 -310.5 152.5t-115.5 409.5zM457 539q0 -137 45 -208t133 -71q91 0 137.5 71t46.5 208q0 132 -47 204t-133 72q-182 0 -182 -276z" />
<glyph unicode="e" horiz-adv-x="1226" d="M70 530q0 252 157 411t406 159q247 0 385.5 -149.5t138.5 -415.5v-95h-704q19 -99 65 -142.5t133 -43.5q66 0 111.5 25.5t79.5 82.5l291 -141q-152 -246 -486 -246q-258 0 -417.5 153t-159.5 402zM457 651h336q-9 94 -47.5 136t-114.5 42q-75 0 -115 -41.5t-59 -136.5z " />
<glyph unicode="f" horiz-adv-x="839" d="M45 786v285h143v105q0 187 103 290t291 103q147 0 270 -76l-96 -260q-44 33 -94 33q-44 0 -69.5 -28.5t-25.5 -78.5v-88h209v-285h-209v-786h-379v786h-143z" />
<glyph unicode="g" horiz-adv-x="1214" d="M57 -145q0 139 189 204q-125 71 -125 189q0 132 143 215q-162 102 -162 272q0 161 134 263t346 102q181 0 313 -82l272 76v-267h-118q14 -43 14 -94q0 -160 -128 -253t-349 -93q-87 0 -168 16q-12 -24 -12 -49q0 -69 102 -69h235q196 0 301 -80.5t105 -231.5 q0 -187 -150 -288t-428 -101q-248 0 -381 70.5t-133 200.5zM383 -84q0 -56 46.5 -81t148.5 -25q121 0 179 28t58 88q0 84 -139 84h-156q-17 0 -71 4h-9q-57 -43 -57 -98zM446 735q0 -69 38 -110t102 -41q66 0 103.5 40t37.5 111t-36.5 110.5t-102.5 39.5t-104 -40t-38 -110z " />
<glyph unicode="h" horiz-adv-x="1277" d="M119 0v1542h379v-641q114 199 336 199q158 0 244.5 -103.5t86.5 -291.5v-705h-379v647q0 166 -133 166q-75 0 -115 -48t-40 -140v-625h-379z" />
<glyph unicode="i" horiz-adv-x="636" d="M109 1366q0 86 60.5 143.5t152.5 57.5q88 0 147 -58t59 -143q0 -86 -60.5 -144.5t-148.5 -58.5q-89 0 -149.5 58.5t-60.5 144.5zM129 0v1071h379v-1071h-379z" />
<glyph unicode="j" horiz-adv-x="649" d="M-76 -332l68 262q35 -18 69 -18q37 0 58.5 23t21.5 61v1075h379v-1075q0 -189 -91 -288t-263 -99q-142 0 -242 59zM121 1366q0 86 60.5 143.5t152.5 57.5q88 0 147.5 -58t59.5 -143q0 -86 -60.5 -144.5t-148.5 -58.5q-89 0 -150 58.5t-61 144.5z" />
<glyph unicode="k" horiz-adv-x="1245" d="M119 0v1542h379v-837l288 366h404l-352 -418l381 -653h-418l-219 389l-84 -96v-293h-379z" />
<glyph unicode="l" horiz-adv-x="636" d="M129 0v1542h379v-1542h-379z" />
<glyph unicode="m" horiz-adv-x="1871" d="M119 0v1071h379v-158q117 187 319 187q188 0 277 -168q74 88 152.5 128t178.5 40q158 0 246 -104.5t88 -290.5v-705h-379v666q0 70 -30 108.5t-86 38.5q-64 0 -100 -44t-36 -122v-647h-378v666q0 70 -31 108.5t-88 38.5q-63 0 -98 -44t-35 -122v-647h-379z" />
<glyph unicode="n" horiz-adv-x="1275" d="M119 0v1071h379v-170q114 199 336 199q157 0 243 -103t86 -292v-705h-379v643q0 85 -32 125.5t-99 40.5q-75 0 -115 -48t-40 -140v-621h-379z" />
<glyph unicode="o" horiz-adv-x="1273" d="M70 530q0 253 160 411.5t415 158.5q246 0 402.5 -156.5t156.5 -402.5q0 -251 -158.5 -408.5t-410.5 -157.5t-408.5 153t-156.5 402zM457 541q0 -281 180 -281t180 283q0 272 -174 272q-95 0 -140.5 -66.5t-45.5 -207.5z" />
<glyph unicode="p" horiz-adv-x="1306" d="M119 -373v1444h379v-156q112 185 309 185q195 0 312.5 -154t117.5 -409q0 -257 -117 -409.5t-313 -152.5q-213 0 -309 179v-527h-379zM485 535q0 -132 47.5 -203.5t135.5 -71.5q182 0 182 279q0 135 -45 205.5t-131 70.5q-92 0 -140.5 -71t-48.5 -209z" />
<glyph unicode="q" horiz-adv-x="1304" d="M70 537q0 258 117 410.5t315 152.5q107 0 180.5 -43t124.5 -135v149h379v-1444h-379v535q-100 -187 -311 -187q-195 0 -310.5 152.5t-115.5 409.5zM457 537q0 -135 45 -206t133 -71q90 0 137 71t47 206q0 132 -47 205t-133 73q-182 0 -182 -278z" />
<glyph unicode="r" horiz-adv-x="915" d="M119 0v1071h379v-184q51 107 116 157t154 50q85 0 145 -43l-79 -346q-62 38 -134 38q-92 0 -147 -62.5t-55 -166.5v-514h-379z" />
<glyph unicode="s" horiz-adv-x="1097" d="M43 109l141 253q149 -116 328 -116q145 0 145 69q0 31 -21.5 42.5t-100.5 23.5q-112 17 -162 30t-101 38q-184 85 -184 292q0 172 122.5 265.5t348.5 93.5q252 0 436 -113l-149 -242q-117 89 -293 89q-115 0 -115 -60q0 -39 41 -53q38 -14 156 -33q217 -34 307 -110.5 t90 -227.5q0 -182 -131 -278.5t-377 -96.5q-157 0 -268.5 31.5t-212.5 102.5z" />
<glyph unicode="t" horiz-adv-x="854" d="M45 786v285h139v189l379 135v-324h205v-285h-205v-393q0 -56 17.5 -81t56.5 -25q41 0 94 30l80 -256q-115 -86 -272 -86q-172 0 -263.5 97t-91.5 280v434h-139z" />
<glyph unicode="u" horiz-adv-x="1255" d="M113 371v700h379v-639q0 -87 27 -126.5t87 -39.5q74 0 113 48.5t39 140.5v616h379v-1071h-379v164q-52 -98 -128.5 -143.5t-189.5 -45.5q-155 0 -241 104t-86 292z" />
<glyph unicode="v" horiz-adv-x="1150" d="M-4 1071h405l195 -657l195 657h364l-371 -1071h-413z" />
<glyph unicode="w" horiz-adv-x="1724" d="M33 1071h395l135 -604l162 604h307l142 -604l155 604h363l-324 -1071h-362l-148 571l-149 -571h-369z" />
<glyph unicode="x" horiz-adv-x="1259" d="M31 0l366 545l-344 526h439l155 -266l158 266h391l-348 -498l381 -573h-441l-182 303l-186 -303h-389z" />
<glyph unicode="y" horiz-adv-x="1169" d="M-4 1071h403l205 -598l201 598h369l-408 -1075q-75 -199 -188.5 -292t-282.5 -93q-141 0 -258 70l96 256q58 -41 127 -41q56 0 90.5 26t59.5 86z" />
<glyph unicode="z" horiz-adv-x="1069" d="M61 0v268l474 518h-453v285h915v-256l-475 -530h484v-285h-945z" />
<glyph unicode="{" horiz-adv-x="905" d="M57 489v312q106 3 147.5 34t41.5 109v234q0 248 160 338q67 39 155.5 55.5t247.5 19.5v-293q-114 -9 -149 -39.5t-35 -121.5v-215q0 -114 -47 -179t-150 -94q104 -31 150.5 -94.5t46.5 -177.5v-219q0 -92 36.5 -125.5t147.5 -44.5v-293q-154 5 -241.5 21.5t-157.5 56.5 q-164 93 -164 336v235q0 79 -41.5 110.5t-147.5 34.5z" />
<glyph unicode="|" horiz-adv-x="604" d="M156 -303v1892h293v-1892h-293z" />
<glyph unicode="}" horiz-adv-x="905" d="M96 -12q114 9 149.5 40t35.5 122v215q0 114 46.5 178.5t149.5 93.5q-104 31 -150 94.5t-46 177.5v219q0 92 -37 125.5t-148 44.5v293q155 -5 242.5 -21.5t157.5 -56.5q163 -93 163 -335v-236q0 -79 41.5 -110.5t147.5 -34.5v-312q-106 -3 -147.5 -34t-41.5 -109v-233 q0 -249 -159 -338q-67 -40 -156 -56.5t-248 -19.5v293z" />
<glyph unicode="~" horiz-adv-x="1228" d="M123 483q12 96 28 154t46 113q87 155 243 155q89 0 205 -69q71 -41 109 -41t58 25t32 89l264 -18q-12 -96 -28.5 -152.5t-47.5 -111.5q-87 -156 -244 -156q-47 0 -92 15.5t-110 54.5q-75 41 -109 41q-40 0 -60 -25.5t-30 -89.5z" />
<glyph unicode="&#xa1;" horiz-adv-x="796" d="M217 901q0 89 64.5 152t156.5 63q94 0 159 -62t65 -153q0 -89 -66 -152t-160 -63q-89 0 -154 63.5t-65 151.5zM225 53l88 525h254l86 -525v-426h-428v426z" />
<glyph unicode="&#xa2;" d="M106 528q0 237 140 396q67 73 146.5 112.5t201.5 59.5v192h160v-194q141 -19 244.5 -95.5t158.5 -203.5l-285 -117q-27 56 -53.5 86t-64.5 45v-563q100 40 145 153l266 -120q-54 -129 -159.5 -205.5t-251.5 -93.5v-256h-160v256q-127 19 -207.5 57.5t-146.5 112.5 q-134 146 -134 378zM459 537q0 -115 33 -184t102 -103v557q-70 -32 -102.5 -96.5t-32.5 -173.5z" />
<glyph unicode="&#xa3;" d="M-16 229q0 112 76 179t202 67q63 0 123 -24q-16 59 -57 143h-248v221h139q-47 117 -47 236q0 209 135.5 322.5t386.5 113.5q274 0 426 -131q52 -43 84 -90.5t66 -132.5l-342 -127q-38 98 -81.5 134t-123.5 36q-150 0 -150 -158q0 -74 48 -203h350v-221h-279 q29 -129 29 -201q0 -39 -8 -80q59 -24 118 -24q62 0 91.5 30t46.5 111l327 -45q-31 -222 -116 -315t-258 -93q-90 0 -166.5 26t-165.5 87q-130 -110 -297 -110q-143 0 -226 67t-83 182zM203 229q0 -28 21.5 -43.5t60.5 -15.5q41 0 67 18.5t45 59.5q-71 49 -116 49 q-35 0 -56.5 -18.5t-21.5 -49.5z" />
<glyph unicode="&#xa4;" d="M-4 492v170h119q-4 18 -4 65q0 39 4 57h-119v170h141q61 259 220 396t397 137q212 0 342.5 -102t195.5 -318l-323 -100q-37 114 -86 161.5t-131 47.5t-135 -53.5t-85 -168.5h265v-170h-289q-2 -20 -2 -59q0 -45 4 -63h287v-170h-258q32 -106 85 -155.5t134 -49.5 q90 0 139.5 50t81.5 173l332 -86q-59 -220 -203.5 -334.5t-364.5 -114.5q-297 0 -471 220q-47 62 -76.5 126t-58.5 171h-141z" />
<glyph unicode="&#xa5;" d="M-20 1464h438l244 -518l245 518h402l-385 -684h245v-170h-327v-123h327v-170h-327v-317h-387v317h-326v170h326v123h-326v170h240z" />
<glyph unicode="&#xa6;" horiz-adv-x="604" d="M154 0v588h292v-588h-292zM154 877v587h292v-587h-292z" />
<glyph unicode="&#xa7;" horiz-adv-x="1251" d="M80 571q0 99 46 162.5t148 104.5q-61 55 -87.5 115.5t-26.5 142.5q0 183 124.5 287t344.5 104q151 0 265.5 -45t209.5 -142l-219 -204q-92 106 -242 106q-129 0 -129 -78q0 -41 35 -60t166 -50q260 -62 358 -142.5t98 -232.5q0 -99 -44.5 -162t-145.5 -104 q63 -54 92 -117.5t29 -149.5q0 -183 -130.5 -287t-359.5 -104q-334 0 -514 201l219 201q65 -63 127.5 -90t145.5 -27q147 0 147 86q0 39 -36 56.5t-212 64.5q-230 60 -319.5 139.5t-89.5 224.5zM434 639q0 -57 69.5 -93t231.5 -61q82 20 82 90q0 55 -69 88.5t-240 61.5 q-74 -20 -74 -86z" />
<glyph unicode="&#xa8;" horiz-adv-x="1024" d="M109 1364q0 75 53.5 127.5t128.5 52.5q72 0 124 -52.5t52 -127.5q0 -74 -52.5 -126t-125.5 -52q-74 0 -127 52.5t-53 125.5zM559 1364q0 76 51.5 128t126.5 52q74 0 127.5 -53.5t53.5 -126.5q0 -72 -54 -125t-129 -53q-73 0 -124.5 52t-51.5 126z" />
<glyph unicode="&#xa9;" horiz-adv-x="1652" d="M88 727q0 159 57 299t155 239.5t236 157.5t295 58q203 0 370.5 -99t263.5 -271t96 -380q0 -157 -57 -295.5t-155 -238t-235.5 -157.5t-292.5 -58q-154 0 -290 57t-233 156t-153.5 237.5t-56.5 294.5zM219 727q0 -135 45 -251.5t124 -199t191 -129.5t242 -47 q175 0 314 80.5t217 225t78 325.5q0 275 -170 453t-431 178q-270 0 -440 -177t-170 -458zM401 735q0 192 122 313t315 121q256 0 368 -217l-231 -135q-23 49 -53 69.5t-78 20.5q-69 0 -107.5 -44.5t-38.5 -125.5q0 -83 39.5 -129.5t108.5 -46.5q47 0 78.5 24.5t56.5 78.5 l240 -138q-64 -118 -157.5 -172.5t-229.5 -54.5q-197 0 -315 119t-118 317z" />
<glyph unicode="&#xaa;" horiz-adv-x="1032" d="M59 788q0 155 133 232.5t410 81.5v8q0 60 -27.5 84.5t-95.5 24.5q-149 0 -266 -84l-135 223q104 69 205 98t235 29q416 0 416 -346v-414q0 -95 29 -160v-14h-322q-17 35 -27 117q-92 -138 -268 -138q-132 0 -209.5 69t-77.5 189zM387 827q0 -67 82 -67q60 0 97.5 31.5 t37.5 82.5v46q-122 -3 -169.5 -23.5t-47.5 -69.5z" />
<glyph unicode="&#xab;" horiz-adv-x="1116" d="M72 492l221 421h301l-229 -421l229 -422h-301zM516 492l221 421h301l-227 -421l227 -422h-301z" />
<glyph unicode="&#xac;" horiz-adv-x="1228" d="M205 553v334h792v-586h-319v252h-473z" />
<glyph unicode="&#xad;" horiz-adv-x="645" d="M59 500v344h527v-344h-527z" />
<glyph unicode="&#xae;" horiz-adv-x="1210" d="M84 961q0 144 69 263.5t189.5 188t265.5 68.5q142 0 261 -69t187 -188t68 -261q0 -144 -68.5 -263.5t-188.5 -187.5t-265 -68q-144 0 -263 67.5t-187 186.5t-68 263zM199 965q0 -186 111.5 -302t291.5 -116q183 0 295.5 116t112.5 304q0 186 -110 298.5t-290 112.5 q-189 0 -300 -112t-111 -301zM387 729v483h260q89 0 138 -39.5t49 -111.5q0 -93 -91 -119q40 -6 59 -37.5t34 -116.5q1 -19 7.5 -34.5t12.5 -18.5v-6h-166q-11 14 -24 80q-9 43 -22.5 57.5t-45.5 14.5h-41v-152h-170zM557 1001h61q54 0 54 46q0 45 -54 45h-61v-91z" />
<glyph unicode="&#xaf;" horiz-adv-x="1024" d="M240 1237v254h546v-254h-546z" />
<glyph unicode="&#xb0;" horiz-adv-x="983" d="M102 1104q0 169 110.5 276t285.5 107q167 0 275 -106t108 -269q0 -167 -110 -274t-282 -107q-170 0 -278.5 104.5t-108.5 268.5zM354 1112q0 -80 37 -125t103 -45q64 0 99.5 44t35.5 122q0 77 -36 122.5t-99 45.5q-66 0 -103 -43t-37 -121z" />
<glyph unicode="&#xb1;" horiz-adv-x="1228" d="M121 0v317h964v-317h-964zM121 754v317h330v311h333v-311h326v-317h-326v-312h-333v312h-330z" />
<glyph unicode="&#xb2;" horiz-adv-x="1007" d="M98 1516q44 149 144 218.5t268 69.5q183 0 289 -87t106 -236q0 -249 -317 -367h317v-254h-794v236q231 105 334.5 191t103.5 175q0 76 -66 76q-32 0 -51 -22t-31 -74z" />
<glyph unicode="&#xb3;" horiz-adv-x="1007" d="M70 1118l288 68q13 -54 41.5 -77.5t79.5 -23.5q43 0 66.5 20.5t23.5 55.5q0 66 -86 66h-71v200h71q49 0 76 18t27 50q0 31 -23.5 48.5t-66.5 17.5q-51 0 -80.5 -21.5t-48.5 -71.5l-271 70q51 137 153 201.5t269 64.5q181 0 287 -72.5t106 -195.5q0 -136 -159 -193 q174 -50 174 -210q0 -135 -111.5 -213t-304.5 -78q-222 0 -338 98q-41 35 -63 73.5t-39 104.5z" />
<glyph unicode="&#xb4;" horiz-adv-x="1024" d="M367 1176l71 366h422l-221 -366h-272z" />
<glyph unicode="&#xb5;" d="M125 -373v1444h379v-639q0 -78 30.5 -113.5t96.5 -35.5q155 0 155 188v600h379v-1071h-379v164q-85 -172 -282 -187v-350h-379z" />
<glyph unicode="&#xb6;" horiz-adv-x="1298" d="M63 1051q0 192 120 302.5t327 110.5h635v-1464h-238v1253h-170v-1253h-237v659h-19q-192 0 -305 105.5t-113 286.5z" />
<glyph unicode="&#xb7;" horiz-adv-x="645" d="M98 670q0 94 65 158.5t159 64.5q90 0 154.5 -65.5t64.5 -157.5q0 -91 -65 -155t-157 -64t-156.5 64t-64.5 155z" />
<glyph unicode="&#xb8;" horiz-adv-x="1024" d="M279 -340l149 57q26 -41 74 -41q32 0 49.5 15t17.5 41q0 27 -16 42t-45 15q-42 0 -64 -35l-96 68l129 178h152l-82 -102q14 2 37 2q72 0 119 -49t47 -125q0 -91 -61.5 -142t-170.5 -51q-167 0 -239 127z" />
<glyph unicode="&#xb9;" horiz-adv-x="1007" d="M180 1380v230q172 24 207 178h311v-696h142v-232h-656v232h162v313q-70 -22 -166 -25z" />
<glyph unicode="&#xba;" horiz-adv-x="1087" d="M55 1001q0 215 138.5 349.5t359.5 134.5q212 0 345.5 -132t133.5 -341q0 -215 -135 -348.5t-352 -133.5q-220 0 -355 129.5t-135 341.5zM393 1008q0 -112 40 -174t112 -62t110.5 60.5t38.5 175.5q0 225 -145 225q-156 0 -156 -225z" />
<glyph unicode="&#xbb;" horiz-adv-x="1116" d="M78 70l229 422l-229 421h301l221 -421l-221 -422h-301zM522 70l230 422l-230 421h301l221 -421l-221 -422h-301z" />
<glyph unicode="&#xbc;" horiz-adv-x="2076" d="M164 1094v209q158 21 188 161h283v-633h129v-210h-596v210h147v285q-56 -18 -151 -22zM506 0l788 1464h275l-787 -1464h-276zM1135 133v219l389 488h325v-504h109v-203h-109v-133h-315v133h-399zM1366 330h184v239z" />
<glyph unicode="&#xbd;" horiz-adv-x="2076" d="M139 1094v209q159 21 189 161h282v-633h129v-210h-596v210h148v285q-56 -18 -152 -22zM481 0l789 1464h274l-786 -1464h-277zM1225 596q40 135 131 198.5t243 63.5q164 0 261.5 -80t97.5 -215q0 -110 -73.5 -195t-215.5 -137h289v-231h-723v215q213 95 306 172.5 t93 159.5q0 69 -59 69q-29 0 -46.5 -20.5t-29.5 -67.5z" />
<glyph unicode="&#xbe;" horiz-adv-x="2076" d="M63 856l263 62q13 -51 39 -72t73 -21q37 0 58.5 18t21.5 50q0 61 -78 61h-65v183h65q92 0 92 61q0 28 -21.5 43.5t-59.5 15.5q-46 0 -73 -19.5t-44 -63.5l-246 63q46 125 139 183.5t246 58.5q164 0 260 -65.5t96 -178.5q0 -122 -145 -174q77 -22 117.5 -71.5t40.5 -121.5 q0 -123 -101 -193.5t-278 -70.5q-172 0 -268.5 61t-131.5 191zM506 0l788 1464h275l-787 -1464h-276zM1128 133v219l390 488h325v-504h109v-203h-109v-133h-315v133h-400zM1360 330h184v239z" />
<glyph unicode="&#xbf;" horiz-adv-x="1210" d="M115 10q0 110 49.5 188t175.5 164q92 63 118.5 99.5t26.5 101.5v12h357v-30q0 -116 -47.5 -192.5t-165.5 -151.5q-64 -41 -91.5 -78.5t-27.5 -83.5q0 -57 35 -91t92 -34q131 0 190 160l338 -101q-29 -87 -61 -138.5t-86 -98.5q-148 -133 -402 -133q-230 0 -365.5 110 t-135.5 297zM449 899q0 90 65 152.5t158 62.5q92 0 156.5 -62t64.5 -153t-64.5 -153t-158.5 -62q-91 0 -156 63.5t-65 151.5z" />
<glyph unicode="&#xc0;" horiz-adv-x="1538" d="M8 0l529 1464h475l518 -1464h-428l-80 248h-559l-82 -248h-373zM414 1935h422l71 -366h-272zM555 532h377l-187 572z" />
<glyph unicode="&#xc1;" horiz-adv-x="1538" d="M8 0l529 1464h475l518 -1464h-428l-80 248h-559l-82 -248h-373zM555 532h377l-187 572zM621 1569l71 366h422l-221 -366h-272z" />
<glyph unicode="&#xc2;" horiz-adv-x="1538" d="M8 0l529 1464h475l518 -1464h-428l-80 248h-559l-82 -248h-373zM401 1579l234 356h276l234 -356h-262l-115 117l-109 -117h-258zM555 532h377l-187 572z" />
<glyph unicode="&#xc3;" horiz-adv-x="1538" d="M8 0l529 1464h475l518 -1464h-428l-80 248h-559l-82 -248h-373zM379 1583q17 167 78.5 245.5t175.5 78.5q68 0 155 -45q54 -29 84 -29q28 0 41.5 14t24.5 51l219 -12q-20 -164 -84.5 -243.5t-177.5 -79.5q-70 0 -164 47q-56 26 -82 26q-55 0 -69 -65zM555 532h377 l-187 572z" />
<glyph unicode="&#xc4;" horiz-adv-x="1538" d="M8 0l529 1464h475l518 -1464h-428l-80 248h-559l-82 -248h-373zM385 1708q0 71 50 120.5t122 49.5q69 0 117.5 -49.5t48.5 -120.5q0 -69 -48.5 -118.5t-117.5 -49.5q-71 0 -121.5 49.5t-50.5 118.5zM555 532h377l-187 572zM809 1708q0 72 48 121t120 49q71 0 120.5 -50 t49.5 -120q0 -69 -50.5 -118.5t-121.5 -49.5q-69 0 -117.5 49t-48.5 119z" />
<glyph unicode="&#xc5;" horiz-adv-x="1538" d="M8 0l529 1464h475l518 -1464h-428l-80 248h-559l-82 -248h-373zM528 1776q0 97 69.5 162t172.5 65q101 0 170.5 -66t69.5 -161q0 -97 -69.5 -162.5t-172.5 -65.5t-171.5 65t-68.5 163zM555 532h377l-187 572zM690 1776q0 -37 22 -60.5t56 -23.5q35 0 57.5 23.5t22.5 60.5 t-22.5 60.5t-57.5 23.5q-34 0 -56 -23.5t-22 -60.5z" />
<glyph unicode="&#xc6;" horiz-adv-x="2150" d="M8 0l770 1464h1258v-317h-674v-250h487v-303h-487v-277h704v-317h-1099v248h-424l-121 -248h-414zM682 532h285v580z" />
<glyph unicode="&#xc7;" horiz-adv-x="1503" d="M82 725q0 222 91 395.5t254.5 270t373.5 96.5q278 0 456 -158q54 -50 90.5 -102.5t79.5 -143.5l-356 -149q-49 124 -112.5 176.5t-163.5 52.5q-145 0 -220 -110t-75 -322t77 -322t226 -110q103 0 169 57t113 187l361 -150q-76 -195 -241 -305t-384 -113l-61 -77 q14 2 37 2q72 0 119 -49t47 -125q0 -91 -61.5 -142t-170.5 -51q-167 0 -239 127l149 57q26 -41 74 -41q32 0 49.5 15t17.5 41q0 55 -61 55q-41 0 -64 -33l-96 68l117 162q-281 41 -438.5 237t-157.5 504z" />
<glyph unicode="&#xc8;" horiz-adv-x="1341" d="M152 0v1464h1071v-317h-676v-250h491v-303h-491v-277h706v-317h-1101zM344 1935h422l72 -366h-273z" />
<glyph unicode="&#xc9;" horiz-adv-x="1341" d="M152 0v1464h1071v-317h-676v-250h491v-303h-491v-277h706v-317h-1101zM569 1569l72 366h422l-221 -366h-273z" />
<glyph unicode="&#xca;" horiz-adv-x="1341" d="M152 0v1464h1071v-317h-676v-250h491v-303h-491v-277h706v-317h-1101zM332 1579l233 356h277l233 -356h-262l-115 117l-108 -117h-258z" />
<glyph unicode="&#xcb;" horiz-adv-x="1341" d="M152 0v1464h1071v-317h-676v-250h491v-303h-491v-277h706v-317h-1101zM315 1708q0 71 50 120.5t122 49.5q69 0 117.5 -49.5t48.5 -120.5q0 -69 -48.5 -118.5t-117.5 -49.5q-71 0 -121.5 49.5t-50.5 118.5zM739 1708q0 72 48 121t120 49q71 0 120.5 -50t49.5 -120 q0 -69 -50.5 -118.5t-121.5 -49.5q-69 0 -117.5 49t-48.5 119z" />
<glyph unicode="&#xcc;" horiz-adv-x="739" d="M14 1935h422l72 -366h-272zM170 0v1464h403v-1464h-403z" />
<glyph unicode="&#xcd;" horiz-adv-x="739" d="M168 0v1464h403v-1464h-403zM221 1569l72 366h422l-221 -366h-273z" />
<glyph unicode="&#xce;" horiz-adv-x="739" d="M0 1579l233 356h277l233 -356h-262l-114 117l-109 -117h-258zM168 0v1464h403v-1464h-403z" />
<glyph unicode="&#xcf;" horiz-adv-x="739" d="M-16 1708q0 71 50 120.5t122 49.5q69 0 117.5 -49.5t48.5 -120.5q0 -69 -48.5 -118.5t-117.5 -49.5q-71 0 -121.5 49.5t-50.5 118.5zM168 0v1464h403v-1464h-403zM408 1708q0 72 47.5 121t119.5 49q71 0 120.5 -50t49.5 -120q0 -69 -50.5 -118.5t-121.5 -49.5 q-69 0 -117 49t-48 119z" />
<glyph unicode="&#xd0;" horiz-adv-x="1560" d="M37 582v292h115v590h575q349 0 548.5 -193.5t199.5 -531.5q0 -344 -202.5 -541.5t-555.5 -197.5h-565v582h-115zM555 315h178q158 0 241 107t83 311t-83.5 310t-244.5 106h-174v-275h236v-292h-236v-267z" />
<glyph unicode="&#xd1;" horiz-adv-x="1581" d="M152 0v1464h438l477 -858v858h363v-1464h-412l-504 903v-903h-362zM449 1583q17 167 78 245.5t175 78.5q71 0 156 -45q54 -29 86 -29q26 0 39.5 14t24.5 51l219 -12q-20 -164 -84.5 -243.5t-177.5 -79.5q-70 0 -164 47q-56 26 -82 26q-56 0 -70 -65z" />
<glyph unicode="&#xd2;" horiz-adv-x="1615" d="M82 729q0 177 59.5 326t171.5 252q198 180 504 180q210 0 373 -95.5t253.5 -267.5t90.5 -393q0 -338 -200.5 -547t-524.5 -209q-214 0 -379.5 94.5t-256.5 266t-91 393.5zM453 1935h421l72 -366h-272zM500 729q0 -209 79 -319.5t228 -110.5q152 0 230.5 110t78.5 322 q0 209 -78.5 320.5t-224.5 111.5q-313 0 -313 -434z" />
<glyph unicode="&#xd3;" horiz-adv-x="1615" d="M82 729q0 177 59.5 326t171.5 252q198 180 504 180q210 0 373 -95.5t253.5 -267.5t90.5 -393q0 -338 -200.5 -547t-524.5 -209q-214 0 -379.5 94.5t-256.5 266t-91 393.5zM500 729q0 -209 79 -319.5t228 -110.5q152 0 230.5 110t78.5 322q0 209 -78.5 320.5t-224.5 111.5 q-313 0 -313 -434zM659 1569l72 366h422l-221 -366h-273z" />
<glyph unicode="&#xd4;" horiz-adv-x="1615" d="M82 729q0 177 59.5 326t171.5 252q198 180 504 180q210 0 373 -95.5t253.5 -267.5t90.5 -393q0 -338 -200.5 -547t-524.5 -209q-214 0 -379.5 94.5t-256.5 266t-91 393.5zM440 1579l234 356h276l234 -356h-262l-115 117l-109 -117h-258zM500 729q0 -209 79 -319.5 t228 -110.5q152 0 230.5 110t78.5 322q0 209 -78.5 320.5t-224.5 111.5q-313 0 -313 -434z" />
<glyph unicode="&#xd5;" horiz-adv-x="1615" d="M82 729q0 177 59.5 326t171.5 252q198 180 504 180q210 0 373 -95.5t253.5 -267.5t90.5 -393q0 -338 -200.5 -547t-524.5 -209q-214 0 -379.5 94.5t-256.5 266t-91 393.5zM418 1583q17 167 78.5 245.5t175.5 78.5q68 0 155 -45q54 -29 84 -29q27 0 41 14t25 51l219 -12 q-20 -164 -84.5 -243.5t-177.5 -79.5q-70 0 -164 47q-56 26 -82 26q-56 0 -70 -65zM500 729q0 -209 79 -319.5t228 -110.5q152 0 230.5 110t78.5 322q0 209 -78.5 320.5t-224.5 111.5q-313 0 -313 -434z" />
<glyph unicode="&#xd6;" horiz-adv-x="1615" d="M82 729q0 177 59.5 326t171.5 252q198 180 504 180q210 0 373 -95.5t253.5 -267.5t90.5 -393q0 -338 -200.5 -547t-524.5 -209q-214 0 -379.5 94.5t-256.5 266t-91 393.5zM424 1708q0 71 50 120.5t122 49.5q69 0 117.5 -49.5t48.5 -120.5q0 -69 -48.5 -118.5 t-117.5 -49.5q-71 0 -121.5 49.5t-50.5 118.5zM500 729q0 -209 79 -319.5t228 -110.5q152 0 230.5 110t78.5 322q0 209 -78.5 320.5t-224.5 111.5q-313 0 -313 -434zM848 1708q0 72 48 121t120 49q70 0 120 -50t50 -120q0 -69 -50.5 -118.5t-121.5 -49.5q-69 0 -117.5 49 t-48.5 119z" />
<glyph unicode="&#xd7;" horiz-adv-x="1228" d="M98 397l314 314l-314 313l207 205l309 -314l308 314l206 -205l-311 -313l311 -314l-206 -204l-308 313l-309 -313z" />
<glyph unicode="&#xd8;" horiz-adv-x="1615" d="M23 0l213 242q-154 206 -154 489q0 338 200.5 547t524.5 209q245 0 424 -123l88 100h274l-213 -241q154 -209 154 -492q0 -338 -201 -547t-526 -209q-125 0 -224 29t-198 94l-88 -98h-274zM492 735q0 -111 18 -184l489 553q-77 65 -192 65q-152 0 -233.5 -111.5 t-81.5 -322.5zM614 358q77 -65 195 -65q154 0 234.5 112t80.5 326q0 99 -18 182z" />
<glyph unicode="&#xd9;" horiz-adv-x="1550" d="M141 598v866h404v-850q0 -166 56.5 -240.5t182.5 -74.5t184 76.5t58 242.5v846h383v-864q0 -306 -160 -465.5t-467 -159.5q-313 0 -477 159t-164 464zM428 1935h422l72 -366h-273z" />
<glyph unicode="&#xda;" horiz-adv-x="1550" d="M141 598v866h404v-850q0 -166 56.5 -240.5t182.5 -74.5t184 76.5t58 242.5v846h383v-864q0 -306 -160 -465.5t-467 -159.5q-313 0 -477 159t-164 464zM641 1569l72 366h422l-222 -366h-272z" />
<glyph unicode="&#xdb;" horiz-adv-x="1550" d="M141 598v866h404v-850q0 -166 56.5 -240.5t182.5 -74.5t184 76.5t58 242.5v846h383v-864q0 -306 -160 -465.5t-467 -159.5q-313 0 -477 159t-164 464zM408 1579l233 356h277l233 -356h-262l-115 117l-108 -117h-258z" />
<glyph unicode="&#xdc;" horiz-adv-x="1550" d="M141 598v866h404v-850q0 -166 56.5 -240.5t182.5 -74.5t184 76.5t58 242.5v846h383v-864q0 -306 -160 -465.5t-467 -159.5q-313 0 -477 159t-164 464zM391 1708q0 71 50 120.5t122 49.5q69 0 117.5 -49.5t48.5 -120.5q0 -69 -48.5 -118.5t-117.5 -49.5q-71 0 -121.5 49.5 t-50.5 118.5zM815 1708q0 72 48 121t120 49q71 0 120.5 -50t49.5 -120q0 -69 -50.5 -118.5t-121.5 -49.5q-69 0 -117.5 49t-48.5 119z" />
<glyph unicode="&#xdd;" horiz-adv-x="1277" d="M-57 1464h446l273 -522l268 522h405l-487 -860v-604h-404v602zM539 1569l71 366h422l-221 -366h-272z" />
<glyph unicode="&#xde;" horiz-adv-x="1423" d="M152 0v1464h403v-225h254q260 0 405.5 -130.5t145.5 -363.5q0 -223 -141 -349t-390 -126h-274v-270h-403zM555 563h219q97 0 148 48.5t51 140.5q0 91 -50 137.5t-147 46.5h-221v-373z" />
<glyph unicode="&#xdf;" horiz-adv-x="1316" d="M119 0v1102q0 229 136.5 349t397.5 120q241 0 372.5 -97t131.5 -276q0 -196 -203 -272q293 -89 293 -451q0 -235 -114.5 -365t-321.5 -130q-111 0 -186 34v269h4q43 -15 73 -15q158 0 158 238q0 141 -54 205t-177 65v246q89 4 126.5 38t37.5 109q0 72 -39 111t-111 39 q-145 0 -145 -178v-1141h-379z" />
<glyph unicode="&#xe0;" horiz-adv-x="1177" d="M59 283q0 188 147 274.5t478 93.5v11q0 71 -34.5 103t-112.5 32q-169 0 -310 -101l-153 252q116 80 237.5 116t280.5 36q285 0 397 -148q41 -52 58.5 -118t17.5 -168v-465q0 -107 31 -189v-12h-365q-21 60 -29 133q-106 -158 -307 -158q-156 0 -246 82.5t-90 225.5z M242 1542h422l71 -366h-272zM434 326q0 -40 27 -63t74 -23q66 0 108.5 38.5t42.5 98.5v63q-106 -2 -151 -14q-101 -21 -101 -100z" />
<glyph unicode="&#xe1;" horiz-adv-x="1177" d="M59 283q0 188 147 274.5t478 93.5v11q0 71 -34.5 103t-112.5 32q-169 0 -310 -101l-153 252q116 80 237.5 116t280.5 36q285 0 397 -148q41 -52 58.5 -118t17.5 -168v-465q0 -107 31 -189v-12h-365q-21 60 -29 133q-106 -158 -307 -158q-156 0 -246 82.5t-90 225.5z M434 326q0 -40 27 -63t74 -23q66 0 108.5 38.5t42.5 98.5v63q-106 -2 -151 -14q-101 -21 -101 -100zM442 1176l72 366h422l-221 -366h-273z" />
<glyph unicode="&#xe2;" horiz-adv-x="1177" d="M59 283q0 188 147 274.5t478 93.5v11q0 71 -34.5 103t-112.5 32q-169 0 -310 -101l-153 252q116 80 237.5 116t280.5 36q285 0 397 -148q41 -52 58.5 -118t17.5 -168v-465q0 -107 31 -189v-12h-365q-21 60 -29 133q-106 -158 -307 -158q-156 0 -246 82.5t-90 225.5z M215 1186l234 356h276l233 -356h-262l-114 117l-109 -117h-258zM434 326q0 -40 27 -63t74 -23q66 0 108.5 38.5t42.5 98.5v63q-106 -2 -151 -14q-101 -21 -101 -100z" />
<glyph unicode="&#xe3;" horiz-adv-x="1177" d="M59 283q0 188 147 274.5t478 93.5v11q0 71 -34.5 103t-112.5 32q-169 0 -310 -101l-153 252q116 80 237.5 116t280.5 36q285 0 397 -148q41 -52 58.5 -118t17.5 -168v-465q0 -107 31 -189v-12h-365q-21 60 -29 133q-106 -158 -307 -158q-156 0 -246 82.5t-90 225.5z M201 1206q17 167 78.5 245.5t175.5 78.5q70 0 155 -45q54 -29 86 -29q26 0 40 14t24 52l219 -13q-20 -164 -84.5 -243.5t-177.5 -79.5q-70 0 -164 47q-58 27 -84 27q-53 0 -68 -66zM434 326q0 -40 27 -63t74 -23q66 0 108.5 38.5t42.5 98.5v63q-106 -2 -151 -14 q-101 -21 -101 -100z" />
<glyph unicode="&#xe4;" horiz-adv-x="1177" d="M59 283q0 188 147 274.5t478 93.5v11q0 71 -34.5 103t-112.5 32q-169 0 -310 -101l-153 252q116 80 237.5 116t280.5 36q285 0 397 -148q41 -52 58.5 -118t17.5 -168v-465q0 -107 31 -189v-12h-365q-21 60 -29 133q-106 -158 -307 -158q-156 0 -246 82.5t-90 225.5z M184 1364q0 75 54 127.5t129 52.5q72 0 124 -52.5t52 -127.5q0 -74 -52.5 -126t-125.5 -52q-74 0 -127.5 52.5t-53.5 125.5zM434 326q0 -40 27 -63t74 -23q66 0 108.5 38.5t42.5 98.5v63q-106 -2 -151 -14q-101 -21 -101 -100zM635 1364q0 76 51.5 128t126.5 52 q73 0 126.5 -53t53.5 -127q0 -72 -53.5 -125t-128.5 -53q-73 0 -124.5 52t-51.5 126z" />
<glyph unicode="&#xe5;" horiz-adv-x="1177" d="M59 283q0 188 147 274.5t478 93.5v11q0 71 -34.5 103t-112.5 32q-169 0 -310 -101l-153 252q116 80 237.5 116t280.5 36q285 0 397 -148q41 -52 58.5 -118t17.5 -168v-465q0 -107 31 -189v-12h-365q-21 60 -29 133q-106 -158 -307 -158q-156 0 -246 82.5t-90 225.5z M348 1382q0 97 69.5 162.5t172.5 65.5q101 0 170 -66t69 -162q0 -97 -69 -162t-172 -65t-171.5 64.5t-68.5 162.5zM434 326q0 -40 27 -63t74 -23q66 0 108.5 38.5t42.5 98.5v63q-106 -2 -151 -14q-101 -21 -101 -100zM510 1382q0 -37 22 -60.5t56 -23.5q35 0 57.5 23.5 t22.5 60.5t-22.5 60.5t-57.5 23.5q-34 0 -56 -23.5t-22 -60.5z" />
<glyph unicode="&#xe6;" horiz-adv-x="1843" d="M59 283q0 188 150 274.5t491 93.5v11q0 71 -38.5 103t-124.5 32q-169 0 -310 -101l-153 252q114 80 235.5 116t274.5 36q122 0 203 -31t133 -98q138 129 337 129q242 0 379.5 -150.5t137.5 -414.5v-95h-691q17 -100 61 -143t130 -43q63 0 106.5 25.5t75.5 82.5l293 -141 q-149 -246 -479 -246q-138 0 -253 49t-192 140q-91 -103 -187.5 -146t-236.5 -43q-160 0 -251 81.5t-91 226.5zM434 326q0 -40 27 -63t76 -23q72 0 118.5 38.5t46.5 98.5v63q-111 -2 -159 -14q-109 -21 -109 -100zM1087 651h322q-10 95 -47 136.5t-109 41.5q-73 0 -111 -41 t-55 -137z" />
<glyph unicode="&#xe7;" horiz-adv-x="1144" d="M70 526q0 257 151 415.5t397 158.5q337 0 482 -307l-318 -136q-31 94 -61 126t-90 32q-174 0 -174 -274q0 -281 180 -281q63 0 103.5 37.5t66.5 120.5l301 -139q-60 -138 -173.5 -215.5t-270.5 -86.5l-64 -79q14 2 37 2q72 0 119 -49t47 -125q0 -91 -61.5 -142 t-170.5 -51q-167 0 -239 127l149 57q26 -41 74 -41q32 0 50 15t18 41t-16.5 41.5t-45.5 15.5q-41 0 -63 -35l-97 68l117 160q-215 34 -331.5 175.5t-116.5 368.5z" />
<glyph unicode="&#xe8;" horiz-adv-x="1226" d="M70 530q0 252 157 411t406 159q247 0 385.5 -149.5t138.5 -415.5v-95h-704q19 -99 65 -142.5t133 -43.5q66 0 111.5 25.5t79.5 82.5l291 -141q-152 -246 -486 -246q-258 0 -417.5 153t-159.5 402zM287 1542h422l71 -366h-272zM457 651h336q-9 94 -47.5 136t-114.5 42 q-75 0 -115 -41.5t-59 -136.5z" />
<glyph unicode="&#xe9;" horiz-adv-x="1226" d="M70 530q0 252 157 411t406 159q247 0 385.5 -149.5t138.5 -415.5v-95h-704q19 -99 65 -142.5t133 -43.5q66 0 111.5 25.5t79.5 82.5l291 -141q-152 -246 -486 -246q-258 0 -417.5 153t-159.5 402zM457 651h336q-9 94 -47.5 136t-114.5 42q-75 0 -115 -41.5t-59 -136.5z M481 1176l72 366h422l-221 -366h-273z" />
<glyph unicode="&#xea;" horiz-adv-x="1226" d="M70 530q0 252 157 411t406 159q247 0 385.5 -149.5t138.5 -415.5v-95h-704q19 -99 65 -142.5t133 -43.5q66 0 111.5 25.5t79.5 82.5l291 -141q-152 -246 -486 -246q-258 0 -417.5 153t-159.5 402zM266 1186l234 356h276l234 -356h-262l-115 117l-109 -117h-258zM457 651 h336q-9 94 -47.5 136t-114.5 42q-75 0 -115 -41.5t-59 -136.5z" />
<glyph unicode="&#xeb;" horiz-adv-x="1226" d="M70 530q0 252 157 411t406 159q247 0 385.5 -149.5t138.5 -415.5v-95h-704q19 -99 65 -142.5t133 -43.5q66 0 111.5 25.5t79.5 82.5l291 -141q-152 -246 -486 -246q-258 0 -417.5 153t-159.5 402zM233 1364q0 75 54 127.5t129 52.5q72 0 124 -52.5t52 -127.5 q0 -74 -52 -126t-126 -52t-127.5 52.5t-53.5 125.5zM457 651h336q-9 94 -47.5 136t-114.5 42q-75 0 -115 -41.5t-59 -136.5zM684 1364q0 76 51.5 128t126.5 52q74 0 127 -53t53 -127q0 -72 -53.5 -125t-128.5 -53q-73 0 -124.5 52t-51.5 126z" />
<glyph unicode="&#xec;" horiz-adv-x="636" d="M-29 1542h422l72 -366h-272zM129 0v1071h379v-1071h-379z" />
<glyph unicode="&#xed;" horiz-adv-x="636" d="M129 0v1071h379v-1071h-379zM172 1176l72 366h422l-222 -366h-272z" />
<glyph unicode="&#xee;" horiz-adv-x="636" d="M-55 1186l233 356h277l233 -356h-262l-115 117l-108 -117h-258zM129 0v1071h379v-1071h-379z" />
<glyph unicode="&#xef;" horiz-adv-x="636" d="M-86 1364q0 75 53.5 127.5t128.5 52.5q72 0 124 -52.5t52 -127.5q0 -74 -52 -126t-126 -52t-127 52.5t-53 125.5zM129 0v1071h379v-1071h-379zM365 1364q0 76 51.5 128t126.5 52q73 0 126.5 -53t53.5 -127q0 -72 -53.5 -125t-128.5 -53q-73 0 -124.5 52t-51.5 126z" />
<glyph unicode="&#xf0;" horiz-adv-x="1267" d="M66 528q0 223 126.5 363.5t327.5 140.5q73 0 127.5 -18.5t110.5 -61.5q-67 128 -187 242l-149 -115l-115 148l115 88q-31 22 -113 76l150 227q104 -47 213 -111l133 103l115 -148l-89 -67q96 -83 150.5 -146t99.5 -147q117 -212 117 -492q0 -308 -146 -471.5t-421 -163.5 q-256 0 -410.5 151t-154.5 402zM453 518q0 -129 46 -196.5t132 -67.5q180 0 180 264q0 129 -44.5 195.5t-129.5 66.5q-184 0 -184 -262z" />
<glyph unicode="&#xf1;" horiz-adv-x="1275" d="M119 0v1071h379v-170q114 199 336 199q157 0 243 -103t86 -292v-705h-379v643q0 85 -32 125.5t-99 40.5q-75 0 -115 -48t-40 -140v-621h-379zM250 1206q17 167 78.5 245.5t175.5 78.5q70 0 155 -45q54 -29 86 -29q26 0 40 14t24 52l219 -13q-20 -164 -84.5 -243.5 t-177.5 -79.5q-70 0 -164 47q-58 27 -84 27q-52 0 -67 -66z" />
<glyph unicode="&#xf2;" horiz-adv-x="1273" d="M70 530q0 253 160 411.5t415 158.5q246 0 402.5 -156.5t156.5 -402.5q0 -251 -158.5 -408.5t-410.5 -157.5t-408.5 153t-156.5 402zM291 1542h422l71 -366h-272zM457 541q0 -281 180 -281t180 283q0 272 -174 272q-95 0 -140.5 -66.5t-45.5 -207.5z" />
<glyph unicode="&#xf3;" horiz-adv-x="1273" d="M70 530q0 253 160 411.5t415 158.5q246 0 402.5 -156.5t156.5 -402.5q0 -251 -158.5 -408.5t-410.5 -157.5t-408.5 153t-156.5 402zM457 541q0 -281 180 -281t180 283q0 272 -174 272q-95 0 -140.5 -66.5t-45.5 -207.5zM492 1176l71 366h422l-221 -366h-272z" />
<glyph unicode="&#xf4;" horiz-adv-x="1273" d="M70 530q0 253 160 411.5t415 158.5q246 0 402.5 -156.5t156.5 -402.5q0 -251 -158.5 -408.5t-410.5 -157.5t-408.5 153t-156.5 402zM264 1186l234 356h276l234 -356h-263l-114 117l-109 -117h-258zM457 541q0 -281 180 -281t180 283q0 272 -174 272q-95 0 -140.5 -66.5 t-45.5 -207.5z" />
<glyph unicode="&#xf5;" horiz-adv-x="1273" d="M70 530q0 253 160 411.5t415 158.5q246 0 402.5 -156.5t156.5 -402.5q0 -251 -158.5 -408.5t-410.5 -157.5t-408.5 153t-156.5 402zM248 1206q17 167 78.5 245.5t175.5 78.5q70 0 155 -45q54 -29 86 -29q26 0 40 14t24 52l219 -13q-20 -164 -84 -243.5t-176 -79.5 q-72 0 -166 47q-55 27 -82 27t-43.5 -16t-25.5 -50zM457 541q0 -281 180 -281t180 283q0 272 -174 272q-95 0 -140.5 -66.5t-45.5 -207.5z" />
<glyph unicode="&#xf6;" horiz-adv-x="1273" d="M70 530q0 253 160 411.5t415 158.5q246 0 402.5 -156.5t156.5 -402.5q0 -251 -158.5 -408.5t-410.5 -157.5t-408.5 153t-156.5 402zM233 1364q0 75 54 127.5t129 52.5q72 0 124 -52.5t52 -127.5q0 -74 -52 -126t-126 -52t-127.5 52.5t-53.5 125.5zM457 541 q0 -281 180 -281t180 283q0 272 -174 272q-95 0 -140.5 -66.5t-45.5 -207.5zM684 1364q0 76 51.5 128t126.5 52q74 0 127 -53t53 -127q0 -72 -53.5 -125t-128.5 -53q-73 0 -124.5 52t-51.5 126z" />
<glyph unicode="&#xf7;" horiz-adv-x="1228" d="M111 537v317h1009v-317h-1009zM416 246q0 83 57.5 140.5t142.5 57.5q83 0 141 -57.5t58 -140.5q0 -85 -58 -143t-141 -58q-85 0 -142.5 58t-57.5 143zM416 1147q0 83 58.5 141t141.5 58t141 -58.5t58 -140.5q0 -85 -58 -143t-141 -58q-85 0 -142.5 58t-57.5 143z" />
<glyph unicode="&#xf8;" horiz-adv-x="1265" d="M12 0l166 176q-115 147 -115 354q0 250 159.5 410t410.5 160q186 0 328 -92l59 63h229l-166 -176q115 -148 115 -354q0 -252 -158.5 -409t-410.5 -157q-184 0 -328 88l-59 -63h-230zM442 545q0 -24 4 -82l304 319q-46 43 -117 43q-191 0 -191 -280zM518 293 q46 -43 113 -43q188 0 188 293q0 40 -4 67z" />
<glyph unicode="&#xf9;" horiz-adv-x="1255" d="M113 371v700h379v-639q0 -87 27 -126.5t87 -39.5q74 0 113 48.5t39 140.5v616h379v-1071h-379v164q-52 -98 -128.5 -143.5t-189.5 -45.5q-155 0 -241 104t-86 292zM281 1542h421l72 -366h-272z" />
<glyph unicode="&#xfa;" horiz-adv-x="1255" d="M113 371v700h379v-639q0 -87 27 -126.5t87 -39.5q74 0 113 48.5t39 140.5v616h379v-1071h-379v164q-52 -98 -128.5 -143.5t-189.5 -45.5q-155 0 -241 104t-86 292zM487 1176l72 366h422l-221 -366h-273z" />
<glyph unicode="&#xfb;" horiz-adv-x="1255" d="M113 371v700h379v-639q0 -87 27 -126.5t87 -39.5q74 0 113 48.5t39 140.5v616h379v-1071h-379v164q-52 -98 -128.5 -143.5t-189.5 -45.5q-155 0 -241 104t-86 292zM260 1186l234 356h276l234 -356h-263l-114 117l-109 -117h-258z" />
<glyph unicode="&#xfc;" horiz-adv-x="1255" d="M113 371v700h379v-639q0 -87 27 -126.5t87 -39.5q74 0 113 48.5t39 140.5v616h379v-1071h-379v164q-52 -98 -128.5 -143.5t-189.5 -45.5q-155 0 -241 104t-86 292zM223 1364q0 75 54 127.5t129 52.5q72 0 124 -52.5t52 -127.5q0 -73 -52.5 -125.5t-126.5 -52.5t-127 52.5 t-53 125.5zM674 1364q0 76 51.5 128t126.5 52q74 0 127 -53t53 -127q0 -72 -53.5 -125t-128.5 -53q-73 0 -124.5 52t-51.5 126z" />
<glyph unicode="&#xfd;" horiz-adv-x="1169" d="M-4 1071h403l205 -598l201 598h369l-408 -1075q-75 -199 -188.5 -292t-282.5 -93q-141 0 -258 70l96 256q58 -41 127 -41q56 0 90.5 26t59.5 86zM471 1176l72 366h422l-222 -366h-272z" />
<glyph unicode="&#xfe;" horiz-adv-x="1306" d="M119 -373v1915h379v-627q112 185 309 185q195 0 312.5 -154t117.5 -409q0 -257 -117 -409.5t-313 -152.5q-213 0 -309 179v-527h-379zM485 539q0 -129 47.5 -199t135.5 -70q182 0 182 273q0 132 -45 202t-131 70q-92 0 -140.5 -70.5t-48.5 -205.5z" />
<glyph unicode="&#xff;" horiz-adv-x="1169" d="M-4 1071h403l205 -598l201 598h369l-408 -1075q-75 -199 -188.5 -292t-282.5 -93q-141 0 -258 70l96 256q58 -41 127 -41q56 0 90.5 26t59.5 86zM195 1364q0 75 53.5 127.5t128.5 52.5q72 0 124 -52.5t52 -127.5q0 -74 -52.5 -126t-125.5 -52q-74 0 -127 52.5t-53 125.5z M645 1364q0 76 51.5 128t126.5 52q74 0 127.5 -53.5t53.5 -126.5q0 -72 -54 -125t-129 -53q-73 0 -124.5 52t-51.5 126z" />
<glyph unicode="&#x152;" horiz-adv-x="2289" d="M82 727q0 216 93.5 390t260 272t373.5 98q87 0 188 -23h1178v-317h-670v-250h484v-303h-484v-277h701v-317h-1207q-109 -25 -202 -25q-209 0 -372 95t-253 266.5t-90 390.5zM500 733q0 -211 80 -322.5t231 -111.5q146 0 226.5 99t80.5 278v119q0 177 -79.5 272.5 t-227.5 95.5q-154 0 -232.5 -109t-78.5 -321z" />
<glyph unicode="&#x153;" horiz-adv-x="1970" d="M66 530q0 251 158.5 410.5t410.5 159.5q119 0 208.5 -38.5t164.5 -121.5q75 83 163.5 121.5t206.5 38.5q246 0 384.5 -149.5t138.5 -415.5v-95h-705q19 -98 66 -142t135 -44q127 0 188 108l293 -141q-152 -246 -483 -246q-127 0 -220 37.5t-169 120.5q-73 -82 -164 -120 t-211 -38q-253 0 -409 153t-156 402zM453 543q0 -289 180 -289t180 291q0 140 -42.5 208t-131.5 68q-95 0 -140.5 -68t-45.5 -210zM1200 651h336q-9 95 -47 136.5t-113 41.5t-116 -41.5t-60 -136.5z" />
<glyph unicode="&#x178;" horiz-adv-x="1277" d="M-57 1464h446l273 -522l268 522h405l-487 -860v-604h-404v602zM281 1708q0 71 50 120.5t122 49.5q69 0 117 -49.5t48 -120.5q0 -69 -48 -118.5t-117 -49.5q-71 0 -121.5 49.5t-50.5 118.5zM705 1708q0 72 47.5 121t119.5 49q70 0 120 -50t50 -120q0 -69 -50.5 -118.5 t-121.5 -49.5q-69 0 -117 49t-48 119z" />
<glyph unicode="&#x2c6;" horiz-adv-x="1024" d="M141 1186l234 356h276l234 -356h-262l-115 117l-109 -117h-258z" />
<glyph unicode="&#x2dc;" horiz-adv-x="1024" d="M123 1206q17 167 78.5 245.5t175.5 78.5q70 0 155 -45q54 -29 86 -29q26 0 40 14t24 52l219 -13q-20 -164 -84 -243.5t-176 -79.5q-72 0 -166 47q-55 27 -82 27t-43.5 -16t-25.5 -50z" />
<glyph unicode="&#x2000;" horiz-adv-x="1001" />
<glyph unicode="&#x2001;" horiz-adv-x="2003" />
<glyph unicode="&#x2002;" horiz-adv-x="1001" />
<glyph unicode="&#x2003;" horiz-adv-x="2003" />
<glyph unicode="&#x2004;" horiz-adv-x="667" />
<glyph unicode="&#x2005;" horiz-adv-x="500" />
<glyph unicode="&#x2006;" horiz-adv-x="333" />
<glyph unicode="&#x2007;" horiz-adv-x="333" />
<glyph unicode="&#x2008;" horiz-adv-x="250" />
<glyph unicode="&#x2009;" horiz-adv-x="400" />
<glyph unicode="&#x200a;" horiz-adv-x="111" />
<glyph unicode="&#x2010;" horiz-adv-x="645" d="M59 500v344h527v-344h-527z" />
<glyph unicode="&#x2011;" horiz-adv-x="645" d="M59 500v344h527v-344h-527z" />
<glyph unicode="&#x2012;" horiz-adv-x="645" d="M59 500v344h527v-344h-527z" />
<glyph unicode="&#x2013;" d="M158 520v303h975v-303h-975z" />
<glyph unicode="&#x2014;" d="M-82 520v303h1454v-303h-1454z" />
<glyph unicode="&#x2018;" horiz-adv-x="593" d="M94 1169q0 161 103 273q56 59 122 87t168 34v-148q-69 -9 -112.5 -49t-52.5 -100q87 -7 133.5 -52t46.5 -120t-54 -124.5t-137 -49.5q-99 0 -158 67.5t-59 181.5z" />
<glyph unicode="&#x2019;" horiz-adv-x="593" d="M92 1389q0 75 54 124.5t137 49.5q98 0 157.5 -68t59.5 -182q0 -161 -103 -273q-56 -59 -122.5 -86.5t-168.5 -33.5v147q69 9 113 49.5t53 100.5q-87 7 -133.5 52t-46.5 120z" />
<glyph unicode="&#x201a;" horiz-adv-x="593" d="M92 178q0 75 54 124.5t137 49.5q98 0 157.5 -68t59.5 -182q0 -160 -103 -272q-55 -58 -121.5 -85.5t-169.5 -35.5v148q69 11 113 49t53 98q-88 9 -134 54t-46 120z" />
<glyph unicode="&#x201c;" horiz-adv-x="1095" d="M94 1169q0 161 103 273q56 59 122 87t168 34v-148q-69 -9 -112.5 -49t-52.5 -100q87 -7 133.5 -52t46.5 -120t-54 -124.5t-137 -49.5q-99 0 -158 67.5t-59 181.5zM596 1169q0 162 102 273q56 59 122.5 87t168.5 34v-148q-69 -9 -113 -49t-53 -100q87 -7 134 -52t47 -120 t-54 -124.5t-137 -49.5q-99 0 -158 67.5t-59 181.5z" />
<glyph unicode="&#x201d;" horiz-adv-x="1095" d="M92 1389q0 75 54 124.5t137 49.5q98 0 157.5 -68t59.5 -182q0 -161 -103 -273q-56 -59 -122.5 -86.5t-168.5 -33.5v147q69 9 113 49.5t53 100.5q-87 7 -133.5 52t-46.5 120zM594 1389q0 75 53.5 124.5t136.5 49.5q98 0 157.5 -68t59.5 -182q0 -162 -102 -273 q-56 -59 -122.5 -86.5t-168.5 -33.5v147q69 9 113 49.5t53 100.5q-87 7 -133.5 52t-46.5 120z" />
<glyph unicode="&#x201e;" horiz-adv-x="1095" d="M92 178q0 75 54 124.5t137 49.5q98 0 157.5 -68t59.5 -182q0 -160 -103 -272q-56 -59 -122.5 -87t-168.5 -34v148q69 9 113 49t53 100q-87 7 -133.5 52t-46.5 120zM594 178q0 75 53.5 124.5t136.5 49.5q98 0 157.5 -68t59.5 -182q0 -161 -102 -272q-56 -59 -122.5 -87 t-168.5 -34v148q69 9 113 49t53 100q-87 7 -133.5 52t-46.5 120z" />
<glyph unicode="&#x2022;" horiz-adv-x="837" d="M94 676q0 141 93.5 233t234.5 92q138 0 229.5 -92.5t91.5 -232.5t-92 -232t-231 -92q-140 0 -233 92.5t-93 231.5z" />
<glyph unicode="&#x2026;" horiz-adv-x="1935" d="M98 197q0 92 65 156.5t159 64.5q91 0 155 -64.5t64 -156.5t-65 -157t-157 -65t-156.5 65t-64.5 157zM743 197q0 92 65 156.5t159 64.5q91 0 155 -64.5t64 -156.5t-64.5 -157t-156.5 -65t-157 65t-65 157zM1389 197q0 92 64.5 156.5t158.5 64.5q91 0 155 -64.5t64 -156.5 t-64.5 -157t-156.5 -65t-156.5 65t-64.5 157z" />
<glyph unicode="&#x202f;" horiz-adv-x="400" />
<glyph unicode="&#x2039;" horiz-adv-x="671" d="M72 492l221 421h301l-229 -421l229 -422h-301z" />
<glyph unicode="&#x203a;" horiz-adv-x="671" d="M78 70l229 422l-229 421h301l221 -421l-221 -422h-301z" />
<glyph unicode="&#x205f;" horiz-adv-x="500" />
<glyph unicode="&#x20ac;" d="M-4 492v170h119q-4 18 -4 65q0 39 4 57h-119v170h141q61 259 220 396t397 137q212 0 342.5 -102t195.5 -318l-323 -100q-37 114 -86 161.5t-131 47.5t-135 -53.5t-85 -168.5h265v-170h-289q-2 -20 -2 -59q0 -45 4 -63h287v-170h-258q32 -106 85 -155.5t134 -49.5 q90 0 139.5 50t81.5 173l332 -86q-59 -220 -203.5 -334.5t-364.5 -114.5q-297 0 -471 220q-47 62 -76.5 126t-58.5 171h-141z" />
<glyph unicode="&#x2122;" horiz-adv-x="1656" d="M61 1274v190h607v-190h-185v-467h-223v467h-199zM764 807v657h276l117 -411l111 411h284v-657h-200v377l-115 -377h-170l-111 377v-377h-192z" />
<glyph unicode="&#x25fc;" horiz-adv-x="1075" d="M0 0v1075h1075v-1075h-1075z" />
</font>
</defs>
</svg>
