<?xml version="1.0" standalone="no"?>
<!DOCTYPE svg PUBLIC "-//W3C//DTD SVG 1.1//EN" "http://www.w3.org/Graphics/SVG/1.1/DTD/svg11.dtd" >
<svg xmlns="http://www.w3.org/2000/svg" xmlns:xlink="http://www.w3.org/1999/xlink" version="1.1">
<metadata></metadata>
<defs>
<font id="bosch_sansblack_italic" horiz-adv-x="1290" >
<font-face units-per-em="2048" ascent="1542" descent="-506" />
<missing-glyph horiz-adv-x="471" />
<glyph unicode="&#xfb01;" horiz-adv-x="1398" d="M82 0l156 795h-142l56 276h139l31 156q68 342 417 342q81 0 142 -18t120 -58l-122 -254q-49 33 -97 33q-87 0 -104 -96l-21 -105h201l-53 -276h-203l-153 -795h-367zM805 0l209 1071h366l-209 -1071h-366zM1051 1346q0 90 65 153.5t156 63.5q81 0 131.5 -49.5 t50.5 -127.5q0 -92 -63.5 -155.5t-157.5 -63.5q-78 0 -130 51t-52 128z" />
<glyph unicode="&#xfb02;" horiz-adv-x="1400" d="M82 0l156 795h-142l56 276h139l31 156q68 342 417 342q81 0 142 -18t120 -58l-122 -254q-49 33 -97 33q-87 0 -104 -96l-21 -105h201l-53 -276h-203l-153 -795h-367zM807 0l299 1542h369l-299 -1542h-369z" />
<glyph unicode="&#xfb03;" horiz-adv-x="2185" d="M82 0l156 795h-142l56 276h139l31 156q68 342 417 342q81 0 142 -18t120 -58l-122 -254q-49 33 -97 33q-87 0 -104 -96l-21 -105h304l30 156q68 342 418 342q81 0 141 -18t121 -58l-123 -254q-49 33 -96 33q-87 0 -104 -96l-21 -105h201l-53 -276h-203l-154 -795h-366 l155 795h-305l-153 -795h-367zM1495 0l209 1071h367l-209 -1071h-367zM1741 1346q0 90 65 153.5t156 63.5q81 0 131.5 -49.5t50.5 -127.5q0 -92 -63.5 -155.5t-157.5 -63.5q-78 0 -130 51t-52 128z" />
<glyph unicode="&#xfb04;" horiz-adv-x="2185" d="M82 0l156 795h-142l56 276h139l31 156q68 342 417 342q81 0 142 -18t120 -58l-122 -254q-49 33 -97 33q-87 0 -104 -96l-21 -105h304l30 156q68 342 418 342q81 0 141 -18t121 -58l-123 -254q-49 33 -96 33q-87 0 -104 -96l-21 -105h201l-53 -276h-203l-154 -795h-366 l155 795h-305l-153 -795h-367zM1462 0l299 1542h369l-299 -1542h-369z" />
<glyph horiz-adv-x="0" />
<glyph horiz-adv-x="682" />
<glyph unicode=" "  horiz-adv-x="471" />
<glyph unicode="&#x09;" horiz-adv-x="471" />
<glyph unicode="&#xa0;" horiz-adv-x="471" />
<glyph unicode="!" horiz-adv-x="796" d="M160 166q0 98 69 169t166 71q82 0 137.5 -56.5t55.5 -138.5q0 -98 -69 -167t-167 -69q-83 0 -137.5 54.5t-54.5 136.5zM307 514l27 535l82 415h413l-84 -438l-192 -512h-246z" />
<glyph unicode="&#x22;" horiz-adv-x="1118" d="M231 881l70 583h389l-147 -583h-312zM719 881l69 583h388l-146 -583h-311z" />
<glyph unicode="#" horiz-adv-x="1228" d="M115 496l51 262h184l45 184h-170l49 264h185l63 258h217l-63 -258h174l63 258h217l-63 -258h170l-51 -264h-182l-46 -184h172l-51 -262h-186l-64 -263h-215l64 263h-176l-64 -263h-215l64 263h-172zM567 758h174l45 184h-174z" />
<glyph unicode="$" d="M-8 338l360 137q23 -77 63.5 -122.5t106.5 -67.5l58 293q-224 82 -312 178t-88 260q0 220 153.5 344.5t422.5 122.5l35 182h153l-39 -199q291 -55 389 -292l-329 -142q-26 57 -52.5 87.5t-64.5 49.5l-55 -278q229 -78 318 -174.5t89 -265.5q0 -264 -213 -388 q-76 -45 -151.5 -62.5t-219.5 -23.5l-49 -253h-153l51 264q-181 28 -301.5 117t-171.5 233zM526 1071q0 -46 27 -74.5t96 -56.5l49 254q-91 -6 -131.5 -35t-40.5 -88zM674 270q86 7 125 36t39 85q0 44 -26.5 75t-88.5 60z" />
<glyph unicode="%" horiz-adv-x="2211" d="M217 981q0 215 130 357.5t327 142.5q167 0 270 -103t103 -272q0 -220 -128.5 -361t-328.5 -141q-171 0 -272 102t-101 275zM504 985q0 -74 24 -108.5t76 -34.5q66 0 110 75t44 189q0 69 -27 105t-78 36q-66 0 -107.5 -73t-41.5 -189zM514 0l1012 1464h260l-1012 -1464 h-260zM1247 352q0 216 130 359t325 143q169 0 271 -102.5t102 -272.5q0 -220 -128 -361t-327 -141q-172 0 -272.5 101.5t-100.5 273.5zM1534 358q0 -143 100 -143q66 0 110 74t44 188q0 144 -107 144q-65 0 -106 -74t-41 -189z" />
<glyph unicode="&#x26;" horiz-adv-x="1546" d="M70 403q0 207 145 334q50 45 105.5 75.5t154.5 66.5q-6 46 -6 98q0 229 129.5 368.5t341.5 139.5q161 0 254.5 -80.5t93.5 -218.5q0 -177 -151 -283q-50 -35 -108.5 -59.5t-164.5 -55.5q67 -156 193 -301q65 107 108 258h289q-80 -254 -215 -436q31 -18 64 -23t108 -5 l-80 -289q-57 -4 -92 -4q-82 0 -143 18t-125 60q-89 -48 -171.5 -69.5t-185.5 -21.5q-254 0 -399 114.5t-145 313.5zM453 430q0 -203 198 -203q65 0 135 23q-161 187 -247 399q-86 -92 -86 -219zM803 1024q0 -43 4 -61q103 34 147.5 80.5t44.5 119.5q0 43 -17 66.5t-48 23.5 q-60 0 -95.5 -62.5t-35.5 -166.5z" />
<glyph unicode="'" horiz-adv-x="618" d="M225 881l70 583h389l-147 -583h-312z" />
<glyph unicode="(" horiz-adv-x="905" d="M154 381q0 467 260 868q65 100 128 173.5t165 166.5h319q-500 -588 -500 -1276q0 -327 115 -616h-289q-104 166 -151 327.5t-47 356.5z" />
<glyph unicode=")" horiz-adv-x="905" d="M-78 -303q500 588 500 1274q0 329 -115 618h289q105 -166 152 -328t47 -356q0 -467 -260 -868q-65 -100 -128 -173.5t-165 -166.5h-320z" />
<glyph unicode="*" horiz-adv-x="950" d="M215 1139l129 274l191 -127l-9 256h281l-94 -260l217 131l53 -276l-252 -25l148 -192l-248 -156l-62 246l-145 -242l-199 158l228 190z" />
<glyph unicode="+" horiz-adv-x="1228" d="M133 543l62 307h317l70 362h323l-71 -362h321l-63 -307h-318l-69 -365h-322l70 365h-320z" />
<glyph unicode="," horiz-adv-x="645" d="M-43 -360l35 170q171 27 215 194q-77 11 -120.5 61t-43.5 128q0 94 66.5 156.5t164.5 62.5q92 0 146.5 -62t54.5 -168q0 -99 -37 -198.5t-100 -171.5q-72 -83 -159 -122t-222 -50z" />
<glyph unicode="-" horiz-adv-x="645" d="M51 500l68 344h526l-67 -344h-527z" />
<glyph unicode="." horiz-adv-x="645" d="M39 170q0 100 71 171t169 71q83 0 138.5 -56t55.5 -141q0 -100 -70 -170t-170 -70q-85 0 -139.5 55t-54.5 140z" />
<glyph unicode="/" horiz-adv-x="931" d="M-178 -303l934 1892h350l-934 -1892h-350z" />
<glyph unicode="0" d="M90 573q0 182 52 355t145 299q94 127 217 193.5t266 66.5q232 0 370 -162t138 -436q0 -209 -67 -403t-181 -320q-173 -191 -424 -191q-238 0 -377 161t-139 437zM492 524q0 -241 131 -241q58 0 104 59.5t86 185.5q64 205 64 408q0 117 -32 180.5t-91 63.5 q-119 0 -197 -244q-65 -198 -65 -412z" />
<glyph unicode="1" d="M96 0l56 299h307l131 684q-116 -48 -336 -51l55 276q177 19 275 81t151 188h342l-227 -1178h309l-57 -299h-1006z" />
<glyph unicode="2" d="M-6 0l57 301q196 103 305 172t205 150q260 219 260 426q0 54 -35 88t-92 34q-69 0 -116.5 -46t-85.5 -152l-332 108q34 96 68 153t89 109q153 144 400 144q237 0 372.5 -112t135.5 -308q0 -315 -307 -559q-70 -57 -137 -96.5t-201 -104.5h548l-61 -307h-1073z" />
<glyph unicode="3" d="M16 420l357 59q12 -107 59 -156t139 -49q89 0 141 49t52 134q0 71 -45.5 111t-126.5 40h-90l55 271h109q94 0 144 43t50 125q0 66 -44 105.5t-118 39.5q-77 0 -128.5 -43.5t-92.5 -144.5l-315 104q149 379 575 379q232 0 371 -108t139 -289q0 -264 -286 -353 q206 -83 206 -313q0 -204 -157 -326.5t-418 -122.5q-291 0 -442 154q-59 59 -89 124t-45 167z" />
<glyph unicode="4" d="M-4 266l65 330l799 881h400l-181 -930h172l-53 -281h-174l-51 -266h-357l52 266h-672zM352 547h381l115 588z" />
<glyph unicode="5" d="M41 358l362 60q41 -144 187 -144q92 0 151.5 72.5t59.5 183.5q0 76 -36.5 118t-102.5 42q-110 0 -177 -106h-331l241 880h867l-62 -313h-579l-84 -291q115 115 292 115q170 0 266.5 -108t96.5 -298q0 -276 -159 -435t-435 -159q-250 0 -401 123q-62 51 -97.5 110 t-58.5 150z" />
<glyph unicode="6" d="M96 571q0 264 99.5 472.5t278 325t405.5 116.5q168 0 281 -63t196 -203l-305 -179q-35 80 -80.5 113t-118.5 33q-129 0 -212.5 -97t-133.5 -303q131 177 342 177q181 0 294 -117.5t113 -306.5q0 -249 -164.5 -406.5t-426.5 -157.5q-272 0 -420 155t-148 441zM485 457 q0 -86 47 -138.5t125 -52.5q92 0 154.5 69.5t62.5 170.5q0 78 -49 126t-129 48q-92 0 -151.5 -62.5t-59.5 -160.5z" />
<glyph unicode="7" d="M215 0q70 336 245.5 632.5t434.5 518.5h-655l61 313h1053l-51 -262q-258 -235 -428.5 -550t-221.5 -652h-438z" />
<glyph unicode="8" d="M33 414q0 171 131 278q44 35 89.5 56t125.5 43q-80 51 -118 115t-38 151q0 184 156.5 305t394.5 121q229 0 370.5 -109.5t141.5 -286.5q0 -247 -270 -348q106 -56 154.5 -129t48.5 -180q0 -202 -165 -328.5t-429 -126.5q-267 0 -429.5 120.5t-162.5 318.5zM444 432 q0 -81 46.5 -129.5t123.5 -48.5q91 0 150 60.5t59 154.5q0 78 -48 127t-124 49q-91 0 -149 -59.5t-58 -153.5zM592 1028q0 -66 41.5 -107.5t107.5 -41.5q75 0 122.5 49t47.5 127q0 71 -39.5 115t-103.5 44q-74 0 -125 -54t-51 -132z" />
<glyph unicode="9" d="M8 240l303 178q35 -78 84 -112t127 -34q132 0 213.5 99t122.5 311q-124 -170 -340 -170q-182 0 -297 117t-115 303q0 243 167.5 398t428.5 155q272 0 418 -157.5t146 -450.5q0 -272 -93.5 -476.5t-267 -315t-403.5 -110.5q-178 0 -296 63.5t-198 201.5zM489 967 q0 -78 48.5 -125t130.5 -47q95 0 154 59t59 156q0 86 -48 138t-128 52q-91 0 -153.5 -67t-62.5 -166z" />
<glyph unicode=":" horiz-adv-x="645" d="M39 170q0 98 71 170t169 72q83 0 138.5 -56t55.5 -141q0 -100 -70 -170t-170 -70q-83 0 -138.5 55.5t-55.5 139.5zM152 752q0 100 70.5 171.5t168.5 71.5q83 0 140 -56.5t57 -139.5q0 -100 -71 -170t-171 -70q-84 0 -139 54.5t-55 138.5z" />
<glyph unicode=";" horiz-adv-x="645" d="M-43 -360l35 170q171 27 215 194q-77 11 -120.5 61t-43.5 128q0 94 66.5 156.5t164.5 62.5q92 0 146.5 -62t54.5 -168q0 -99 -37 -198.5t-100 -171.5q-72 -83 -159 -122t-222 -50zM156 752q0 100 70.5 171.5t168.5 71.5q83 0 140 -56.5t57 -139.5q0 -100 -71 -170 t-171 -70q-84 0 -139 54.5t-55 138.5z" />
<glyph unicode="&#x3c;" horiz-adv-x="1228" d="M205 514l61 303l877 397l-80 -405l-445 -154l381 -178l-73 -371z" />
<glyph unicode="=" horiz-adv-x="1228" d="M135 293l60 305h864l-62 -305h-862zM227 770l60 305h864l-61 -305h-863z" />
<glyph unicode="&#x3e;" horiz-adv-x="1228" d="M137 106l78 406l447 154l-381 178l71 370l721 -407l-59 -305z" />
<glyph unicode="?" horiz-adv-x="1210" d="M242 1155q82 173 209 252.5t325 79.5q217 0 338 -99.5t121 -277.5q0 -182 -137 -295q-36 -30 -69 -50t-120 -65q-70 -38 -96 -70t-41 -98l-4 -18h-338l12 59q28 129 83.5 199t179.5 131q83 41 116 79.5t33 94.5q0 51 -32.5 81t-88.5 30q-62 0 -104 -36.5t-82 -123.5z M317 166q0 98 70 169t168 71q82 0 137.5 -56.5t55.5 -138.5q0 -98 -70 -167t-168 -69q-83 0 -138 54.5t-55 136.5z" />
<glyph unicode="@" horiz-adv-x="1832" d="M90 455q0 196 70.5 369.5t192 298t291 196.5t360.5 72q343 0 546 -200.5t203 -537.5q0 -264 -123.5 -422.5t-329.5 -158.5q-110 0 -173 43t-89 137q-55 -95 -124.5 -139.5t-161.5 -44.5q-134 0 -212.5 97t-78.5 263q0 229 119 382t297 153q157 0 210 -129l21 112h291 l-113 -543q-6 -30 -6 -55q0 -78 76 -78q97 0 156 108t59 288q0 266 -151 412.5t-425 146.5q-207 0 -369 -97.5t-252.5 -273t-90.5 -399.5q0 -289 154.5 -449t434.5 -160q120 0 206 26.5t196 98.5l90 -135q-126 -86 -240 -120.5t-274 -34.5q-344 0 -552 212t-208 562z M762 455q0 -142 96 -142q76 0 124 75.5t48 195.5q0 143 -104 143q-74 0 -119 -74.5t-45 -197.5z" />
<glyph unicode="A" horiz-adv-x="1466" d="M-80 0l756 1464h479l182 -1464h-405l-23 252h-499l-119 -252h-371zM547 537h338l-54 602z" />
<glyph unicode="B" horiz-adv-x="1400" d="M43 0l285 1464h622q198 0 308 -92t110 -256q0 -141 -63 -225t-211 -143q114 -38 167.5 -110t53.5 -189q0 -217 -151.5 -333t-434.5 -116h-686zM487 295h258q91 0 142 47.5t51 132.5q0 69 -40.5 107.5t-113.5 38.5h-233zM602 887h207q87 0 132.5 42t45.5 120 q0 120 -135 120h-195z" />
<glyph unicode="C" horiz-adv-x="1413" d="M104 614q0 256 95 455t267 308.5t394 109.5q251 0 404 -129q64 -54 103 -120t71 -175l-361 -127q-26 112 -53 151q-56 87 -172 87q-157 0 -244 -158q-98 -176 -98 -422q0 -303 227 -303q92 0 158 55.5t117 175.5l327 -151q-52 -107 -105 -173t-130 -116 q-158 -107 -389 -107q-290 0 -450.5 167.5t-160.5 471.5z" />
<glyph unicode="D" horiz-adv-x="1505" d="M43 0l285 1464h549q285 0 439 -158t154 -450q0 -399 -219.5 -627.5t-603.5 -228.5h-604zM498 315h170q189 0 293 140.5t104 392.5q0 156 -60.5 228.5t-189.5 72.5h-156z" />
<glyph unicode="E" horiz-adv-x="1267" d="M43 0l285 1464h1007l-57 -307h-623l-51 -264h443l-60 -291h-440l-58 -295h654l-60 -307h-1040z" />
<glyph unicode="F" horiz-adv-x="1212" d="M43 0l285 1464h991l-57 -307h-600l-66 -328h444l-57 -297h-444l-103 -532h-393z" />
<glyph unicode="G" horiz-adv-x="1562" d="M106 610q0 257 100 457t280.5 310t412.5 110q227 0 369 -98.5t207 -301.5l-375 -124q-25 117 -78.5 169t-147.5 52q-161 0 -261.5 -160.5t-100.5 -419.5q0 -169 63 -251.5t193 -82.5q66 0 124.5 25.5t96.5 69.5q25 31 46.5 80.5t21.5 78.5v21h-244l53 272h623l-156 -817 h-200l-35 211q-71 -114 -187 -175t-264 -61q-249 0 -395 171.5t-146 463.5z" />
<glyph unicode="H" horiz-adv-x="1509" d="M43 0l285 1464h393l-111 -565h430l111 565h393l-284 -1464h-394l115 586h-430l-115 -586h-393z" />
<glyph unicode="I" horiz-adv-x="700" d="M49 0l285 1464h395l-285 -1464h-395z" />
<glyph unicode="J" horiz-adv-x="1284" d="M66 399q0 75 18 162h379q-19 -103 -19 -133q0 -139 125 -139q76 0 114.5 45t61.5 162l189 968h393l-201 -1024q-44 -227 -193 -346t-388 -119q-227 0 -353 111.5t-126 312.5z" />
<glyph unicode="K" horiz-adv-x="1439" d="M43 0l285 1464h393l-113 -573l504 573h436l-594 -635l349 -829h-416l-236 539l-137 -140l-78 -399h-393z" />
<glyph unicode="L" horiz-adv-x="1196" d="M43 0l285 1464h393l-223 -1151h581l-61 -313h-975z" />
<glyph unicode="M" horiz-adv-x="1923" d="M43 0l285 1464h522l100 -901l461 901h547l-285 -1464h-385l197 1012l-522 -1012h-275l-106 1012l-197 -1012h-342z" />
<glyph unicode="N" horiz-adv-x="1527" d="M43 0l285 1464h424l286 -886l172 886h353l-285 -1464h-399l-304 930l-180 -930h-352z" />
<glyph unicode="O" horiz-adv-x="1550" d="M109 621q0 244 102 442.5t281 311t399 112.5q283 0 455 -179t172 -472q0 -189 -66 -359.5t-186 -290.5q-211 -211 -531 -211q-287 0 -456.5 175.5t-169.5 470.5zM514 604q0 -157 62 -239t180 -82q157 0 256.5 161t99.5 416q0 157 -60.5 238.5t-177.5 81.5 q-171 0 -264 -170q-96 -175 -96 -406z" />
<glyph unicode="P" horiz-adv-x="1357" d="M43 0l285 1464h577q226 0 353.5 -112.5t127.5 -311.5q0 -252 -161.5 -396t-442.5 -144h-250l-96 -500h-393zM588 784h190q110 0 171 58t61 162q0 78 -41.5 120.5t-116.5 42.5h-188z" />
<glyph unicode="Q" horiz-adv-x="1550" d="M109 621q0 244 102 442.5t281 311t399 112.5q283 0 455 -179t172 -472q0 -209 -79 -392t-222 -303l96 -147l-256 -158l-107 166q-96 -27 -209 -27q-291 0 -461.5 174.5t-170.5 471.5zM512 590q0 -160 61.5 -244t178.5 -84q18 0 32 2l-90 139l254 162l72 -114 q92 179 92 407q0 158 -60.5 240t-177.5 82q-171 0 -264 -170q-98 -176 -98 -420z" />
<glyph unicode="R" horiz-adv-x="1449" d="M43 0l285 1464h590q126 0 209.5 -21.5t150.5 -72.5q143 -103 143 -301q0 -166 -86 -264.5t-272 -145.5q72 -25 110 -60.5t56 -95.5t24 -169q25 -279 66 -326v-8h-387q-43 76 -53 289q-6 142 -43 189.5t-140 47.5h-157l-103 -526h-393zM592 805h217q103 0 161 55.5 t58 153.5q0 74 -41 112.5t-119 38.5h-204z" />
<glyph unicode="S" horiz-adv-x="1257" d="M-25 340l361 135q34 -106 96.5 -151t175.5 -45q88 0 136.5 31.5t48.5 88.5t-43.5 89.5t-192.5 86.5q-220 79 -306.5 176t-86.5 261q0 220 150 347.5t407 127.5q423 0 559 -313l-336 -142q-40 86 -91.5 120t-143.5 34q-82 0 -125 -31t-43 -90q0 -47 37 -79t131 -64 q160 -57 220.5 -85t114.5 -71q142 -115 142 -313q0 -221 -159.5 -349.5t-434.5 -128.5q-306 0 -481 158q-48 45 -77.5 89.5t-58.5 117.5z" />
<glyph unicode="T" horiz-adv-x="1273" d="M193 1157l59 307h1132l-59 -307h-371l-225 -1157h-391l225 1157h-370z" />
<glyph unicode="U" horiz-adv-x="1505" d="M137 469q0 67 19 172l161 823h394l-164 -839q-17 -81 -17 -144q0 -194 193 -194q118 0 174.5 65.5t91.5 241.5l170 870h389l-176 -915q-59 -305 -213 -439.5t-446 -134.5q-278 0 -427 128t-149 366z" />
<glyph unicode="V" horiz-adv-x="1406" d="M197 1464h407l88 -1009l484 1009h395l-758 -1464h-436z" />
<glyph unicode="W" horiz-adv-x="2072" d="M221 1464h397l25 -972l410 972h323l54 -983l399 983h387l-633 -1464h-420l-49 911l-393 -911h-426z" />
<glyph unicode="X" horiz-adv-x="1447" d="M-84 0l616 772l-296 692h446l141 -426l285 426h434l-547 -716l328 -748h-444l-172 496l-355 -496h-436z" />
<glyph unicode="Y" horiz-adv-x="1353" d="M197 1464h409l164 -516l346 516h402l-631 -874l-115 -590h-391l119 610z" />
<glyph unicode="Z" horiz-adv-x="1284" d="M-4 0l63 330l764 827h-573l59 307h1039l-64 -325l-758 -826h617l-62 -313h-1085z" />
<glyph unicode="[" horiz-adv-x="905" d="M12 -303l369 1892h606l-55 -282h-234l-256 -1327h232l-56 -283h-606z" />
<glyph unicode="\" horiz-adv-x="931" d="M238 1589h313l233 -1892h-313z" />
<glyph unicode="]" horiz-adv-x="905" d="M-39 -303l55 283h234l256 1327h-232l56 282h606l-369 -1892h-606z" />
<glyph unicode="^" horiz-adv-x="1105" d="M158 801l442 663h254l197 -663h-271l-116 305l-224 -305h-282z" />
<glyph unicode="_" horiz-adv-x="901" d="M-229 -432l51 260h983l-51 -260h-983z" />
<glyph unicode="`" horiz-adv-x="1024" d="M389 1542h391l49 -366h-260z" />
<glyph unicode="a" horiz-adv-x="1124" d="M20 262q0 272 312 346q153 35 346 35q4 40 4 49q0 111 -133 111q-117 0 -279 -72l-123 256q117 62 223 87.5t244 25.5q439 0 439 -338q0 -45 -15 -133l-80 -416q-12 -62 -12 -119q0 -50 12 -82v-12h-354q-10 41 -10 131q-53 -82 -119 -119t-160 -37q-132 0 -213.5 79 t-81.5 208zM389 311q0 -78 82 -78q128 0 158 160l10 51q-133 -1 -191.5 -32.5t-58.5 -100.5z" />
<glyph unicode="b" horiz-adv-x="1261" d="M12 0l299 1542h369l-121 -629q132 187 326 187q146 0 227.5 -114t81.5 -318q0 -197 -63 -355t-175.5 -247t-253.5 -89q-107 0 -176.5 52t-107.5 161l-37 -190h-369zM465 434q0 -182 137 -182q100 0 161.5 104t61.5 271q0 198 -137 198q-95 0 -159 -112t-64 -279z" />
<glyph unicode="c" horiz-adv-x="1112" d="M61 463q0 286 161.5 461.5t424.5 175.5q177 0 284 -79.5t163 -250.5l-316 -104q-19 91 -49.5 127t-89.5 36q-92 0 -150.5 -108.5t-58.5 -280.5q0 -100 33.5 -147t103.5 -47q61 0 104.5 38t76.5 122l276 -136q-78 -151 -194 -223t-281 -72q-229 0 -358.5 129.5 t-129.5 358.5z" />
<glyph unicode="d" horiz-adv-x="1261" d="M72 408q0 197 62 355t173 247.5t250 89.5q209 0 293 -197l123 639h368l-299 -1542h-368l35 172q-68 -101 -144 -148t-174 -47q-151 0 -235 113.5t-84 317.5zM440 453q0 -201 138 -201q95 0 159 114t64 283q0 176 -139 176q-98 0 -160 -103.5t-62 -268.5z" />
<glyph unicode="e" horiz-adv-x="1134" d="M57 438q0 290 177.5 476t455.5 186q188 0 297 -87t109 -237q0 -205 -207 -287q-77 -31 -181 -44.5t-284 -18.5v-20q0 -83 34.5 -121.5t108.5 -38.5q67 0 119 23.5t117 84.5l211 -188q-97 -99 -210 -145t-261 -46q-235 0 -360.5 120t-125.5 343zM446 625q163 0 237.5 29.5 t74.5 93.5q0 41 -28 65.5t-75 24.5q-149 0 -209 -213z" />
<glyph unicode="f" horiz-adv-x="808" d="M82 0l156 795h-142l56 276h139l31 156q68 342 417 342q81 0 142 -18t120 -58l-122 -254q-49 33 -97 33q-87 0 -104 -96l-21 -105h201l-53 -276h-203l-153 -795h-367z" />
<glyph unicode="g" horiz-adv-x="1153" d="M-82 -158q0 153 223 217q-96 63 -96 160q0 156 211 250q-131 96 -131 244q0 169 134 278t343 109q179 0 309 -88l308 82l-52 -258h-135q10 -44 10 -86q0 -166 -124.5 -264.5t-335.5 -98.5q-109 0 -213 29q-33 -36 -33 -78q0 -34 24 -48t82 -14h168q186 0 287.5 -77 t101.5 -217q0 -190 -151 -294t-428 -104q-236 0 -369 68.5t-133 189.5zM252 -92q0 -53 44 -78t138 -25q107 0 164 31t57 90q0 90 -120 90h-218q-65 -39 -65 -108zM457 702q0 -60 28 -92t80 -32q68 0 110 54t42 142q0 57 -28.5 88t-82.5 31q-66 0 -107.5 -53t-41.5 -138z" />
<glyph unicode="h" horiz-adv-x="1216" d="M12 0l299 1542h369l-125 -653q72 111 152.5 161t187.5 50q120 0 189 -76.5t69 -208.5q0 -56 -18 -149l-127 -666h-369l123 639q6 30 6 59q0 50 -24 76.5t-70 26.5q-87 0 -137 -90q-24 -45 -45 -156l-111 -555h-369z" />
<glyph unicode="i" horiz-adv-x="616" d="M20 0l209 1071h367l-209 -1071h-367zM266 1346q0 90 65 153.5t156 63.5q81 0 132 -49.5t51 -127.5q0 -92 -63.5 -155.5t-157.5 -63.5q-78 0 -130.5 51.5t-52.5 127.5z" />
<glyph unicode="j" horiz-adv-x="628" d="M-236 -330l101 260q39 -20 76 -20q43 0 63.5 22.5t32.5 83.5l205 1055h366l-217 -1114q-67 -348 -397 -348q-145 0 -230 61zM279 1346q0 90 65 153.5t156 63.5q81 0 131.5 -49.5t50.5 -127.5q0 -92 -63.5 -155.5t-157.5 -63.5q-78 0 -130 51t-52 128z" />
<glyph unicode="k" horiz-adv-x="1202" d="M12 0l299 1542h369l-162 -829l342 358h402l-439 -430l256 -641h-387l-155 387l-101 -98l-55 -289h-369z" />
<glyph unicode="l" horiz-adv-x="618" d="M20 0l299 1542h369l-299 -1542h-369z" />
<glyph unicode="m" horiz-adv-x="1787" d="M12 0l209 1071h369l-33 -168q68 101 147.5 149t182.5 48q186 0 235 -201q77 103 161 152t185 49q122 0 190 -76.5t68 -212.5q0 -62 -12 -121l-135 -690h-369l125 639q8 41 8 66q0 46 -22.5 71t-65.5 25q-116 0 -153 -187l-121 -614h-369l125 641q8 41 8 64q0 96 -88 96 q-120 0 -155 -187l-121 -614h-369z" />
<glyph unicode="n" horiz-adv-x="1216" d="M12 0l209 1071h369l-35 -182q72 111 153 161t189 50q120 0 188 -76.5t68 -208.5q0 -58 -14 -129l-131 -686h-369l121 629q8 39 8 71q0 48 -24.5 74.5t-69.5 26.5q-135 0 -176 -209l-117 -592h-369z" />
<glyph unicode="o" horiz-adv-x="1216" d="M59 463q0 180 78.5 326t216.5 228.5t308 82.5q224 0 359.5 -134t135.5 -354q0 -139 -44.5 -257.5t-123.5 -202t-191 -130.5t-243 -47q-221 0 -358.5 135t-137.5 353zM428 436q0 -194 143 -194q97 0 157 112t60 291q0 189 -141 189q-95 0 -157 -113t-62 -285z" />
<glyph unicode="p" horiz-adv-x="1257" d="M-57 -373l280 1444h369l-31 -158q132 187 326 187q146 0 227.5 -114t81.5 -318q0 -197 -63 -355t-175 -247t-253 -89q-107 0 -177 52t-108 161l-109 -563h-368zM467 434q0 -182 137 -182q100 0 161.5 104t61.5 271q0 198 -137 198q-95 0 -159 -112t-64 -279z" />
<glyph unicode="q" horiz-adv-x="1261" d="M72 408q0 197 62 355t173 247.5t250 89.5q209 0 293 -197l33 168h368l-280 -1444h-369l107 545q-68 -101 -144 -148t-174 -47q-152 0 -235.5 113.5t-83.5 317.5zM440 453q0 -201 138 -201q95 0 159 114t64 283q0 176 -139 176q-98 0 -160 -103.5t-62 -268.5z" />
<glyph unicode="r" horiz-adv-x="905" d="M12 0l209 1071h369l-43 -221q68 129 138 186.5t161 57.5q76 0 133 -43l-115 -338q-39 23 -66.5 31t-64.5 8q-100 0 -164.5 -61t-87.5 -177l-100 -514h-369z" />
<glyph unicode="s" horiz-adv-x="1054" d="M-31 152l183 231q130 -145 315 -145q113 0 113 67q0 23 -11.5 35.5t-44.5 27t-118 42.5q-145 47 -212 124t-67 195q0 177 119.5 274t335.5 97q142 0 246.5 -35.5t203.5 -118.5l-192 -215q-54 53 -129.5 85t-147.5 32q-43 0 -66.5 -17.5t-23.5 -48.5q0 -30 25 -47.5 t104 -44.5q112 -36 152.5 -55t85.5 -55q106 -85 106 -228q0 -180 -122 -278.5t-345 -98.5q-321 0 -510 177z" />
<glyph unicode="t" horiz-adv-x="841" d="M96 795l56 276h133l37 189l395 135l-64 -324h199l-53 -276h-199l-76 -398q-6 -43 -6 -55q0 -32 13 -46.5t44 -14.5q43 0 89 20l63 -254q-115 -72 -283 -72q-148 0 -228.5 72.5t-80.5 204.5q0 43 15 117l81 426h-135z" />
<glyph unicode="u" horiz-adv-x="1212" d="M68 262q0 62 12 123l133 686h369l-125 -647q-6 -27 -6 -66q0 -96 92 -96q135 0 176 209l117 600h368l-209 -1071h-368l37 186q-72 -114 -151.5 -164.5t-188.5 -50.5q-121 0 -188.5 77t-67.5 214z" />
<glyph unicode="v" horiz-adv-x="1140" d="M121 1071h383l51 -661l307 661h367l-559 -1071h-404z" />
<glyph unicode="w" horiz-adv-x="1650" d="M139 1071h373l16 -616l260 616h297l23 -616l258 616h360l-514 -1071h-352l-35 573l-237 -573h-359z" />
<glyph unicode="x" horiz-adv-x="1175" d="M-88 0l453 563l-224 508h408l96 -278l195 278h391l-424 -516l248 -555h-408l-117 317l-229 -317h-389z" />
<glyph unicode="y" horiz-adv-x="1181" d="M-90 -317l133 254q46 -35 117 -35q54 0 88 26.5t71 96.5l-190 1046h381l82 -610l311 610h367l-641 -1143q-97 -172 -204.5 -244.5t-264.5 -72.5q-148 0 -250 72z" />
<glyph unicode="z" horiz-adv-x="1032" d="M-43 0l51 258l535 528h-414l57 285h885l-49 -248l-547 -538h451l-56 -285h-913z" />
<glyph unicode="{" horiz-adv-x="905" d="M63 502l60 303q100 0 148 35t63 118l49 254q30 146 97 227t189.5 116.5t331.5 35.5l-55 -284q-111 -9 -152.5 -47t-60.5 -150l-41 -205q-23 -119 -84.5 -181.5t-175.5 -84.5q88 -26 126 -72.5t38 -128.5q0 -35 -8 -76l-41 -212q-6 -30 -6 -60q0 -54 33 -78t116 -32 l-57 -285q-154 4 -242 33t-147 92q-78 87 -78 219q0 60 10 108l43 213q4 28 4 39q0 53 -37 76.5t-123 26.5z" />
<glyph unicode="|" horiz-adv-x="604" d="M180 -303v1892h285v-1892h-285z" />
<glyph unicode="}" horiz-adv-x="905" d="M-53 -305l55 285q111 9 152.5 46.5t60.5 149.5l41 205q23 119 84.5 181.5t175.5 84.5q-88 26 -126 72.5t-38 128.5q0 37 8 76l41 213q7 40 7 59q0 54 -33.5 79t-116.5 32l57 284q154 -4 242.5 -33t147.5 -92q77 -86 77 -219q0 -56 -10 -108l-43 -213q-4 -24 -4 -39 q0 -53 37 -76.5t123 -26.5l-60 -303q-100 0 -148 -35t-63 -118l-49 -254q-30 -146 -97 -227t-189.5 -116.5t-331.5 -35.5z" />
<glyph unicode="~" horiz-adv-x="1228" d="M141 481q23 101 45.5 160t57.5 113q100 149 248 149q81 0 194 -65q63 -41 105 -41q37 0 58 24t38 86l256 -18q-51 -213 -137.5 -316.5t-214.5 -103.5q-81 0 -193 66q-64 40 -104 40q-39 0 -60.5 -24.5t-36.5 -85.5z" />
<glyph unicode="&#xa1;" horiz-adv-x="796" d="M55 -373l84 439l193 512h243l-26 -535l-80 -416h-414zM297 881q0 98 68 166.5t165 68.5q84 0 138.5 -53.5t54.5 -136.5q0 -100 -70 -170t-168 -70q-78 0 -133 56.5t-55 138.5z" />
<glyph unicode="&#xa2;" d="M131 465q0 135 44 252.5t126 202.5q82 84 177 124t243 52l37 192h155l-41 -207q252 -56 336 -311l-307 -104q-23 99 -82 135l-110 -563q95 33 149 168l270 -136q-63 -132 -186 -208t-283 -82l-49 -256h-155l51 266q-98 23 -160 58.5t-113 96.5q-102 122 -102 320z M475 444q0 -136 82 -192l109 565q-50 -20 -81 -49t-59 -80q-51 -102 -51 -244z" />
<glyph unicode="&#xa3;" d="M-53 219q0 120 83 190t224 70q55 0 115 -16q-7 52 -29 139h-225l39 209h131q-21 102 -21 182q0 229 150.5 361.5t408.5 132.5q207 0 330.5 -86t185.5 -271l-338 -129q-23 100 -64.5 143.5t-113.5 43.5q-78 0 -123 -56t-45 -153q0 -51 19 -168h344l-37 -209h-279 q5 -59 5 -82q0 -93 -37 -217q59 -22 112 -22q68 0 104 29.5t62 105.5l322 -49q-34 -101 -64 -159t-71 -102q-114 -126 -312 -126q-87 0 -155.5 25t-143.5 85q-136 -110 -297 -110q-127 0 -203.5 65t-76.5 174zM150 229q0 -29 22 -46t59 -17q78 0 117 80q-32 32 -54.5 43.5 t-51.5 11.5q-40 0 -66 -20.5t-26 -51.5z" />
<glyph unicode="&#xa4;" d="M-6 496l33 161h120q2 57 13 134h-109l33 159h111q42 127 88 204.5t118 148.5q190 184 467 184q261 0 383 -150q79 -98 111 -286l-356 -86q-15 120 -50 165.5t-112 45.5t-135.5 -55.5t-104.5 -170.5h270l-30 -159h-285q-11 -59 -16 -134h274l-31 -161h-241 q15 -102 60 -150.5t126 -48.5q77 0 125 49t92 174l338 -102q-82 -226 -222.5 -333.5t-354.5 -107.5q-243 0 -383.5 131t-175.5 388h-156z" />
<glyph unicode="&#xa5;" d="M94 322l33 159h315l27 135h-315l30 160h234l-246 688h424l139 -518l338 518h404l-504 -688h235l-30 -160h-316l-26 -135h315l-31 -159h-315l-64 -322h-393l62 322h-316z" />
<glyph unicode="&#xa6;" horiz-adv-x="604" d="M39 0l115 588h282l-114 -588h-283zM209 877l115 587h282l-114 -587h-283z" />
<glyph unicode="&#xa7;" horiz-adv-x="1251" d="M-4 -29l248 176q60 -84 123 -119.5t153 -35.5q127 0 127 82q0 39 -38 65.5t-179 83.5q-170 69 -248 154.5t-78 202.5q0 109 65 177t202 103q-45 54 -64.5 107t-19.5 120q0 180 132 290t347 110q164 0 278 -58t197 -184l-246 -172q-40 66 -103 102.5t-138 36.5 q-55 0 -87 -23t-32 -61q0 -40 35.5 -67t136.5 -64q196 -70 285.5 -156.5t89.5 -205.5q0 -103 -66 -171.5t-205 -111.5q51 -54 74 -109.5t23 -125.5q0 -180 -136.5 -291t-359.5 -111q-340 0 -516 256zM455 643q0 -40 33.5 -69.5t111.5 -57.5l121 -43q52 12 76 35t24 61 t-32 66t-105 53l-135 47q-94 -18 -94 -92z" />
<glyph unicode="&#xa8;" horiz-adv-x="1024" d="M268 1348q0 79 58.5 137.5t138.5 58.5q71 0 117.5 -47t46.5 -117q0 -82 -58.5 -140t-140.5 -58q-69 0 -115.5 47t-46.5 119zM721 1348q0 80 57.5 138t136.5 58q71 0 117.5 -47t46.5 -117q0 -82 -58 -140t-140 -58q-69 0 -114.5 47t-45.5 119z" />
<glyph unicode="&#xa9;" horiz-adv-x="1652" d="M139 655q0 167 62.5 320t168 263.5t251 176.5t303.5 66q189 0 340.5 -87t237 -241.5t85.5 -347.5q0 -168 -62.5 -320.5t-168 -262.5t-252 -175t-307.5 -65q-139 0 -261 51.5t-209 140.5t-137.5 214t-50.5 267zM268 664q0 -250 151 -411t386 -161q136 0 257.5 55 t208 149.5t137 226t50.5 278.5q0 252 -150.5 410.5t-389.5 158.5q-178 0 -327.5 -94t-236 -256.5t-86.5 -355.5zM453 694q0 207 129.5 341t330.5 134q257 0 342 -225l-231 -121q-27 90 -119 90q-72 0 -117 -57t-45 -149q0 -72 33.5 -112t93.5 -40q46 0 77 23.5t57 78.5 l221 -131q-74 -122 -161 -174.5t-216 -52.5q-175 0 -285 110t-110 285z" />
<glyph unicode="&#xaa;" horiz-adv-x="1032" d="M141 774q0 121 71.5 197t207.5 102q110 20 276 23v10q0 75 -19 98t-83 23q-118 0 -248 -62l-104 224q102 53 196 75.5t213 22.5q185 0 281 -71t96 -206q0 -47 -10 -102l-74 -377q-10 -58 -10 -88q0 -50 14 -82v-10h-309q-12 37 -12 115q-44 -71 -101.5 -103.5 t-136.5 -32.5q-110 0 -179 67.5t-69 176.5zM455 815q0 -63 67 -63q50 0 86 31t45 83l13 64q-108 1 -159.5 -27t-51.5 -88z" />
<glyph unicode="&#xab;" horiz-adv-x="1116" d="M82 508l280 405h297l-294 -426l124 -417h-280zM512 494l303 419h297l-319 -442l131 -401h-281z" />
<glyph unicode="&#xac;" horiz-adv-x="1228" d="M221 565l64 322h770l-113 -586h-307l49 264h-463z" />
<glyph unicode="&#xad;" horiz-adv-x="645" d="M51 500l68 344h526l-67 -344h-527z" />
<glyph unicode="&#xae;" horiz-adv-x="1210" d="M182 909q0 153 75 285t202.5 209.5t275.5 77.5q201 0 332 -132t131 -333q0 -156 -75 -287.5t-204 -208t-282 -76.5q-195 0 -325 133t-130 332zM295 920q0 -169 97.5 -273t256.5 -104q190 0 312 133t122 340q0 169 -95 266.5t-261 97.5q-189 0 -310.5 -129.5 t-121.5 -330.5zM434 729l94 483h234q83 0 127.5 -35.5t44.5 -101.5q0 -57 -30.5 -90.5t-94.5 -46.5q40 -11 54 -36.5t14 -92.5q3 -62 12 -74v-6h-148q-12 20 -12 80q0 44 -11 60t-42 16h-47l-31 -156h-164zM651 997h60q65 0 65 56q0 45 -57 45h-49z" />
<glyph unicode="&#xaf;" horiz-adv-x="1024" d="M383 1241l49 246h531l-48 -246h-532z" />
<glyph unicode="&#xb0;" horiz-adv-x="983" d="M219 1063q0 180 120 301t298 121q157 0 252.5 -91.5t95.5 -240.5q0 -185 -118 -303.5t-302 -118.5q-154 0 -250 92t-96 240zM471 1081q0 -71 29.5 -110t83.5 -39q67 0 108 58t41 153q0 69 -29 106t-83 37q-67 0 -108.5 -56.5t-41.5 -148.5z" />
<glyph unicode="&#xb1;" horiz-adv-x="1228" d="M39 0l59 309h942l-57 -309h-944zM184 756l60 309h313l64 317h321l-61 -317h307l-62 -309h-307l-63 -330h-324l64 330h-312z" />
<glyph unicode="&#xb2;" horiz-adv-x="1007" d="M131 860l43 230q140 63 213 102.5t135 85.5q154 115 154 213q0 65 -49 65q-62 0 -107 -129l-278 84q53 155 150.5 223t269.5 68q180 0 275 -73t95 -211q0 -182 -174 -310q-47 -35 -196 -106h299l-50 -242h-780z" />
<glyph unicode="&#xb3;" horiz-adv-x="1007" d="M141 1149l303 43q18 -111 113 -111q35 0 55.5 20.5t20.5 55.5q0 41 -22.5 63.5t-65.5 22.5h-56l33 174h84q84 0 84 72q0 37 -21 57.5t-59 20.5q-43 0 -71 -26.5t-50 -86.5l-258 90q50 134 149 195t267 61q182 0 284.5 -70t102.5 -194q0 -79 -40.5 -127.5t-137.5 -83.5 q133 -67 133 -188q0 -66 -34.5 -126.5t-92.5 -97.5q-110 -67 -293 -67q-313 0 -399 188q-29 62 -29 115z" />
<glyph unicode="&#xb4;" horiz-adv-x="1024" d="M461 1176l129 366h418l-279 -366h-268z" />
<glyph unicode="&#xb5;" d="M12 -373l281 1444h369l-125 -647q-7 -31 -7 -64q0 -98 93 -98q69 0 112.5 53.5t65.5 167.5l114 588h369l-209 -1071h-368l36 186q-72 -115 -130.5 -162t-129.5 -47q-17 0 -34 5l-70 -355h-367z" />
<glyph unicode="&#xb6;" horiz-adv-x="1298" d="M180 1010q0 205 131 329.5t348 124.5h658l-285 -1464h-231l246 1255h-170l-244 -1255h-230l127 659h-4q-157 0 -251.5 95.5t-94.5 255.5z" />
<glyph unicode="&#xb7;" horiz-adv-x="645" d="M129 643q0 100 71 171t169 71q83 0 138.5 -55.5t55.5 -139.5q0 -100 -69 -169.5t-170 -69.5q-85 0 -140 54.5t-55 137.5z" />
<glyph unicode="&#xb8;" horiz-adv-x="1024" d="M115 -340l147 55q22 -49 76 -49q32 0 52 19t20 49q0 28 -17 44.5t-43 16.5q-42 0 -63 -35l-86 62l143 178h148l-91 -102q12 2 29 2q67 0 109.5 -44.5t42.5 -115.5q0 -97 -64 -152t-174 -55q-166 0 -229 127z" />
<glyph unicode="&#xb9;" horiz-adv-x="1007" d="M193 860l45 236h184l63 331q-49 -8 -133 -12h-45l45 219q107 12 157 45.5t85 118.5h307l-137 -702h166l-45 -236h-692z" />
<glyph unicode="&#xba;" horiz-adv-x="1087" d="M162 950q0 230 147.5 383.5t368.5 153.5q193 0 312.5 -116t119.5 -304q0 -236 -145.5 -386.5t-374.5 -150.5q-189 0 -308.5 117t-119.5 303zM492 930q0 -166 116 -166q77 0 124.5 86t47.5 225q0 170 -118 170q-75 0 -122.5 -88t-47.5 -227z" />
<glyph unicode="&#xbb;" horiz-adv-x="1116" d="M-10 70l319 442l-129 401h281l129 -424l-301 -419h-299zM440 70l299 426l-127 417h281l127 -438l-281 -405h-299z" />
<glyph unicode="&#xbc;" horiz-adv-x="2076" d="M174 621l41 215h168l57 301q-60 -11 -121 -11l-40 -2l40 201q98 10 143 40.5t77 107.5h278l-123 -637h150l-41 -215h-629zM442 0l1012 1464h260l-1012 -1464h-260zM1098 131l43 219l469 494h309l-100 -508h100l-39 -205h-100l-25 -131h-285l25 131h-397zM1325 324h217 l55 284z" />
<glyph unicode="&#xbd;" horiz-adv-x="2076" d="M174 621l41 215h168l57 301q-60 -11 -121 -11l-40 -2l40 201q98 10 143 40.5t77 107.5h278l-123 -637h150l-41 -215h-629zM442 0l1012 1464h260l-1012 -1464h-260zM1159 0l41 207q244 111 350.5 196.5t106.5 171.5q0 58 -45 58q-59 0 -99 -119l-251 78 q47 141 135.5 202.5t244.5 61.5q164 0 251 -66.5t87 -191.5q0 -166 -159 -283q-45 -32 -181 -96h273l-43 -219h-711z" />
<glyph unicode="&#xbe;" horiz-adv-x="2076" d="M129 885l274 39q18 -101 105 -101q70 0 70 70q0 78 -82 78h-52l31 157h76q76 0 76 66q0 34 -19 53t-53 19q-39 0 -65 -24.5t-46 -80.5l-233 82q46 123 135.5 178.5t241.5 55.5q164 0 258 -64t94 -176q0 -72 -37 -116.5t-125 -76.5q123 -60 123 -172q0 -123 -102.5 -193.5 t-280.5 -70.5q-285 0 -364 172q-25 54 -25 105zM444 0l1012 1464h260l-1011 -1464h-261zM1087 131l43 219l469 494h308l-99 -508h101l-39 -205h-101l-26 -131h-283l25 131h-398zM1315 324h217l55 284z" />
<glyph unicode="&#xbf;" horiz-adv-x="1210" d="M23 -23q0 132 62.5 218.5t219.5 169.5q102 54 131.5 85.5t48.5 106.5l4 16h338l-12 -59q-26 -129 -81.5 -198.5t-180.5 -131.5q-86 -43 -119 -80.5t-33 -91.5q0 -52 32.5 -82t88.5 -30q63 0 105.5 35.5t83.5 123.5l305 -127q-83 -173 -210 -251t-327 -78 q-217 0 -336.5 98.5t-119.5 275.5zM512 877q0 98 68 166.5t165 68.5q85 0 139 -53.5t54 -136.5q0 -98 -70 -169t-168 -71q-78 0 -133 56.5t-55 138.5z" />
<glyph unicode="&#xc0;" horiz-adv-x="1466" d="M-80 0l756 1464h479l182 -1464h-405l-23 252h-499l-119 -252h-371zM547 537h338l-54 602zM627 1935h391l49 -368h-260z" />
<glyph unicode="&#xc1;" horiz-adv-x="1466" d="M-80 0l756 1464h479l182 -1464h-405l-23 252h-499l-119 -252h-371zM547 537h338l-54 602zM786 1567l129 368h418l-278 -368h-269z" />
<glyph unicode="&#xc2;" horiz-adv-x="1466" d="M-80 0l756 1464h479l182 -1464h-405l-23 252h-499l-119 -252h-371zM541 1579l293 356h266l157 -356h-249l-82 125l-127 -125h-258zM547 537h338l-54 602z" />
<glyph unicode="&#xc3;" horiz-adv-x="1466" d="M-80 0l756 1464h479l182 -1464h-405l-23 252h-499l-119 -252h-371zM541 1583q38 169 104.5 246.5t173.5 77.5q68 0 152 -52q49 -30 80 -30q24 0 38 15.5t29 57.5l211 -12q-35 -165 -104 -244t-178 -79q-71 0 -158 51q-48 31 -76 31q-26 0 -44.5 -17t-33.5 -57zM547 537 h338l-54 602z" />
<glyph unicode="&#xc4;" horiz-adv-x="1466" d="M-80 0l756 1464h479l182 -1464h-405l-23 252h-499l-119 -252h-371zM520 1724q0 80 59 138.5t138 58.5q70 0 117 -46.5t47 -115.5q0 -83 -58.5 -141.5t-140.5 -58.5q-69 0 -115.5 47.5t-46.5 117.5zM547 537h338l-54 602zM973 1724q0 79 58 138t136 59q71 0 117.5 -46 t46.5 -116q0 -83 -58 -141.5t-140 -58.5q-69 0 -114.5 46.5t-45.5 118.5z" />
<glyph unicode="&#xc5;" horiz-adv-x="1466" d="M-80 0l756 1464h479l182 -1464h-405l-23 252h-499l-119 -252h-371zM547 537h338l-54 602zM709 1757q0 104 73.5 175t180.5 71q95 0 155 -59t60 -154q0 -103 -72.5 -172.5t-179.5 -69.5q-97 0 -157 58.5t-60 150.5zM864 1761q0 -37 19.5 -59.5t50.5 -22.5q38 0 63 31 t25 78q0 37 -18.5 59.5t-49.5 22.5q-38 0 -64 -31.5t-26 -77.5z" />
<glyph unicode="&#xc6;" horiz-adv-x="2013" d="M-133 0l1010 1464h1208l-60 -307h-618l-51 -264h438l-59 -291h-437l-55 -295h647l-59 -307h-1036l47 248h-418l-164 -248h-393zM610 532h287l121 617z" />
<glyph unicode="&#xc7;" horiz-adv-x="1413" d="M104 614q0 256 95 455t267 308.5t394 109.5q251 0 404 -129q64 -54 103 -120t71 -175l-361 -127q-26 112 -53 151q-56 87 -172 87q-157 0 -244 -158q-98 -176 -98 -422q0 -303 227 -303q92 0 158 55.5t117 175.5l327 -151q-85 -195 -244 -295.5t-382 -100.5l-68 -77 q12 2 29 2q67 0 109 -44.5t42 -115.5q0 -97 -63.5 -152t-173.5 -55q-169 0 -230 127l148 55q9 -23 30 -36t46 -13q32 0 51.5 19t19.5 49q0 28 -16.5 44.5t-44.5 16.5q-41 0 -62 -35l-86 62l134 166q-235 44 -354.5 202t-119.5 424z" />
<glyph unicode="&#xc8;" horiz-adv-x="1267" d="M43 0l285 1464h1007l-57 -307h-623l-51 -264h443l-60 -291h-440l-58 -295h654l-60 -307h-1040zM571 1935h392l49 -368h-260z" />
<glyph unicode="&#xc9;" horiz-adv-x="1267" d="M43 0l285 1464h1007l-57 -307h-623l-51 -264h443l-60 -291h-440l-58 -295h654l-60 -307h-1040zM688 1567l129 368h418l-279 -368h-268z" />
<glyph unicode="&#xca;" horiz-adv-x="1267" d="M43 0l285 1464h1007l-57 -307h-623l-51 -264h443l-60 -291h-440l-58 -295h654l-60 -307h-1040zM479 1579l293 356h266l158 -356h-250l-82 125l-127 -125h-258z" />
<glyph unicode="&#xcb;" horiz-adv-x="1267" d="M43 0l285 1464h1007l-57 -307h-623l-51 -264h443l-60 -291h-440l-58 -295h654l-60 -307h-1040zM463 1724q0 80 58.5 138.5t137.5 58.5q70 0 117 -46.5t47 -115.5q0 -83 -58 -141.5t-140 -58.5q-69 0 -115.5 47.5t-46.5 117.5zM915 1724q0 79 58.5 138t136.5 59 q71 0 117.5 -46t46.5 -116q0 -83 -58.5 -141.5t-140.5 -58.5q-69 0 -114.5 46.5t-45.5 118.5z" />
<glyph unicode="&#xcc;" horiz-adv-x="700" d="M49 0l285 1464h395l-285 -1464h-395zM252 1935h391l49 -368h-260z" />
<glyph unicode="&#xcd;" horiz-adv-x="700" d="M49 0l285 1464h395l-285 -1464h-395zM406 1567l129 368h417l-278 -368h-268z" />
<glyph unicode="&#xce;" horiz-adv-x="700" d="M49 0l285 1464h395l-285 -1464h-395zM176 1579l293 356h266l158 -356h-250l-82 125l-127 -125h-258z" />
<glyph unicode="&#xcf;" horiz-adv-x="700" d="M49 0l285 1464h395l-285 -1464h-395zM150 1724q0 80 58.5 138.5t137.5 58.5q70 0 117 -46.5t47 -115.5q0 -83 -58.5 -141.5t-140.5 -58.5q-69 0 -115 47t-46 118zM602 1724q0 79 58.5 138t136.5 59q71 0 117.5 -46t46.5 -116q0 -83 -58.5 -141.5t-140.5 -58.5 q-69 0 -114.5 46.5t-45.5 118.5z" />
<glyph unicode="&#xd0;" horiz-adv-x="1507" d="M41 584l55 288h119l115 592h549q286 0 440 -158t154 -450q0 -399 -220 -627.5t-604 -228.5h-604l113 584h-117zM500 315h170q189 0 293 140.5t104 392.5q0 156 -60.5 228.5t-189.5 72.5h-155l-54 -277h223l-57 -288h-223z" />
<glyph unicode="&#xd1;" horiz-adv-x="1527" d="M43 0l285 1464h424l286 -886l172 886h353l-285 -1464h-399l-304 930l-180 -930h-352zM621 1583q38 168 105 246t173 78q68 0 152 -52q49 -30 79 -30q24 0 38.5 15.5t29.5 57.5l211 -12q-35 -165 -104.5 -244t-178.5 -79q-70 0 -157 51q-48 31 -76 31q-26 0 -44.5 -17 t-33.5 -57z" />
<glyph unicode="&#xd2;" horiz-adv-x="1550" d="M109 621q0 244 102 442.5t281 311t399 112.5q283 0 455 -179t172 -472q0 -189 -66 -359.5t-186 -290.5q-211 -211 -531 -211q-287 0 -456.5 175.5t-169.5 470.5zM514 604q0 -157 62 -239t180 -82q157 0 256.5 161t99.5 416q0 157 -60.5 238.5t-177.5 81.5 q-171 0 -264 -170q-96 -175 -96 -406zM629 1935h391l49 -368h-260z" />
<glyph unicode="&#xd3;" horiz-adv-x="1550" d="M109 621q0 244 102 442.5t281 311t399 112.5q283 0 455 -179t172 -472q0 -189 -66 -359.5t-186 -290.5q-211 -211 -531 -211q-287 0 -456.5 175.5t-169.5 470.5zM514 604q0 -157 62 -239t180 -82q157 0 256.5 161t99.5 416q0 157 -60.5 238.5t-177.5 81.5 q-171 0 -264 -170q-96 -175 -96 -406zM770 1567l129 368h418l-279 -368h-268z" />
<glyph unicode="&#xd4;" horiz-adv-x="1550" d="M109 621q0 244 102 442.5t281 311t399 112.5q283 0 455 -179t172 -472q0 -189 -66 -359.5t-186 -290.5q-211 -211 -531 -211q-287 0 -456.5 175.5t-169.5 470.5zM514 604q0 -157 62 -239t180 -82q157 0 256.5 161t99.5 416q0 157 -60.5 238.5t-177.5 81.5 q-171 0 -264 -170q-96 -175 -96 -406zM553 1579l293 356h266l158 -356h-250l-82 125l-127 -125h-258z" />
<glyph unicode="&#xd5;" horiz-adv-x="1550" d="M109 621q0 244 102 442.5t281 311t399 112.5q283 0 455 -179t172 -472q0 -189 -66 -359.5t-186 -290.5q-211 -211 -531 -211q-287 0 -456.5 175.5t-169.5 470.5zM514 604q0 -157 62 -239t180 -82q157 0 256.5 161t99.5 416q0 157 -60.5 238.5t-177.5 81.5 q-171 0 -264 -170q-96 -175 -96 -406zM559 1583q38 168 105.5 246t173.5 78q38 0 71 -11.5t80 -40.5q49 -30 80 -30q24 0 38.5 15.5t29.5 57.5l211 -12q-35 -165 -104.5 -244t-178.5 -79q-71 0 -158 51q-48 31 -76 31q-26 0 -44 -17t-33 -57z" />
<glyph unicode="&#xd6;" horiz-adv-x="1550" d="M109 621q0 244 102 442.5t281 311t399 112.5q283 0 455 -179t172 -472q0 -189 -66 -359.5t-186 -290.5q-211 -211 -531 -211q-287 0 -456.5 175.5t-169.5 470.5zM514 604q0 -157 62 -239t180 -82q157 0 256.5 161t99.5 416q0 157 -60.5 238.5t-177.5 81.5 q-171 0 -264 -170q-96 -175 -96 -406zM557 1724q0 80 58.5 138.5t138.5 58.5q70 0 117 -46.5t47 -115.5q0 -83 -58.5 -141.5t-140.5 -58.5q-69 0 -115.5 47.5t-46.5 117.5zM1010 1724q0 79 58 138t136 59q71 0 117.5 -46t46.5 -116q0 -83 -58.5 -141.5t-140.5 -58.5 q-69 0 -114 46.5t-45 118.5z" />
<glyph unicode="&#xd7;" horiz-adv-x="1228" d="M123 397l313 314l-313 313l207 205l309 -314l307 314l207 -205l-311 -313l311 -314l-207 -204l-307 313l-309 -313z" />
<glyph unicode="&#xd8;" horiz-adv-x="1550" d="M-39 0l244 246q-96 154 -96 375q0 244 102 442.5t281 311t399 112.5q233 0 405 -135l113 112h268l-254 -256q95 -160 95 -372q0 -183 -59 -343t-161.5 -273.5t-246.5 -179t-308 -65.5q-244 0 -413 129l-105 -104h-264zM514 602q0 -25 2 -41l535 541q-66 78 -177 78 q-171 0 -264 -170q-96 -175 -96 -408zM582 358q66 -75 174 -75q82 0 149 43t111 125q96 172 96 401v41z" />
<glyph unicode="&#xd9;" horiz-adv-x="1505" d="M137 469q0 67 19 172l161 823h394l-164 -839q-17 -81 -17 -144q0 -194 193 -194q118 0 174.5 65.5t91.5 241.5l170 870h389l-176 -915q-59 -305 -213 -439.5t-446 -134.5q-278 0 -427 128t-149 366zM653 1935h391l50 -368h-260z" />
<glyph unicode="&#xda;" horiz-adv-x="1505" d="M137 469q0 67 19 172l161 823h394l-164 -839q-17 -81 -17 -144q0 -194 193 -194q118 0 174.5 65.5t91.5 241.5l170 870h389l-176 -915q-59 -305 -213 -439.5t-446 -134.5q-278 0 -427 128t-149 366zM807 1567l129 368h418l-279 -368h-268z" />
<glyph unicode="&#xdb;" horiz-adv-x="1505" d="M137 469q0 67 19 172l161 823h394l-164 -839q-17 -81 -17 -144q0 -194 193 -194q118 0 174.5 65.5t91.5 241.5l170 870h389l-176 -915q-59 -305 -213 -439.5t-446 -134.5q-278 0 -427 128t-149 366zM586 1579l293 356h266l158 -356h-250l-82 125l-127 -125h-258z" />
<glyph unicode="&#xdc;" horiz-adv-x="1505" d="M137 469q0 67 19 172l161 823h394l-164 -839q-17 -81 -17 -144q0 -194 193 -194q118 0 174.5 65.5t91.5 241.5l170 870h389l-176 -915q-59 -305 -213 -439.5t-446 -134.5q-278 0 -427 128t-149 366zM563 1724q0 80 58.5 138.5t138.5 58.5q70 0 117 -46.5t47 -115.5 q0 -83 -58.5 -141.5t-140.5 -58.5q-69 0 -115.5 47.5t-46.5 117.5zM1016 1724q0 79 58 138t136 59q71 0 117.5 -46t46.5 -116q0 -83 -58 -141.5t-140 -58.5q-69 0 -114.5 46.5t-45.5 118.5z" />
<glyph unicode="&#xdd;" horiz-adv-x="1353" d="M197 1464h409l164 -516l346 516h402l-631 -874l-115 -590h-391l119 610zM737 1567l129 368h418l-278 -368h-269z" />
<glyph unicode="&#xde;" horiz-adv-x="1357" d="M43 0l285 1464h393l-45 -225h184q226 0 353.5 -113t127.5 -313q0 -250 -161 -394.5t-441 -144.5h-250l-53 -274h-393zM545 559h188q112 0 172 56.5t60 160.5q0 79 -41.5 122.5t-116.5 43.5h-189z" />
<glyph unicode="&#xdf;" horiz-adv-x="1236" d="M12 0l228 1167q38 195 173.5 299.5t350.5 104.5q203 0 318.5 -95t115.5 -262q0 -127 -65.5 -204t-202.5 -111q126 -37 182.5 -122.5t56.5 -239.5q0 -252 -126.5 -403.5t-335.5 -151.5q-138 0 -222 49l52 256h6q34 -21 78 -21q86 0 134 78.5t48 218.5q0 109 -38.5 158 t-133.5 59l47 240q91 0 131.5 40t40.5 128q0 135 -107 135q-54 0 -87 -40t-50 -128l-223 -1155h-371z" />
<glyph unicode="&#xe0;" horiz-adv-x="1124" d="M20 262q0 272 312 346q153 35 346 35q4 40 4 49q0 111 -133 111q-117 0 -279 -72l-123 256q117 62 223 87.5t244 25.5q439 0 439 -338q0 -45 -15 -133l-80 -416q-12 -62 -12 -119q0 -50 12 -82v-12h-354q-10 41 -10 131q-53 -82 -119 -119t-160 -37q-132 0 -213.5 79 t-81.5 208zM381 1542h391l49 -366h-260zM389 311q0 -78 82 -78q128 0 158 160l10 51q-133 -1 -191.5 -32.5t-58.5 -100.5z" />
<glyph unicode="&#xe1;" horiz-adv-x="1124" d="M20 262q0 272 312 346q153 35 346 35q4 40 4 49q0 111 -133 111q-117 0 -279 -72l-123 256q117 62 223 87.5t244 25.5q439 0 439 -338q0 -45 -15 -133l-80 -416q-12 -62 -12 -119q0 -50 12 -82v-12h-354q-10 41 -10 131q-53 -82 -119 -119t-160 -37q-132 0 -213.5 79 t-81.5 208zM389 311q0 -78 82 -78q128 0 158 160l10 51q-133 -1 -191.5 -32.5t-58.5 -100.5zM512 1176l127 366h418l-277 -366h-268z" />
<glyph unicode="&#xe2;" horiz-adv-x="1124" d="M20 262q0 272 312 346q153 35 346 35q4 40 4 49q0 111 -133 111q-117 0 -279 -72l-123 256q117 62 223 87.5t244 25.5q439 0 439 -338q0 -45 -15 -133l-80 -416q-12 -62 -12 -119q0 -50 12 -82v-12h-354q-10 41 -10 131q-53 -82 -119 -119t-160 -37q-132 0 -213.5 79 t-81.5 208zM270 1186l293 356h266l158 -356h-250l-82 125l-127 -125h-258zM389 311q0 -78 82 -78q128 0 158 160l10 51q-133 -1 -191.5 -32.5t-58.5 -100.5z" />
<glyph unicode="&#xe3;" horiz-adv-x="1124" d="M20 262q0 272 312 346q153 35 346 35q4 40 4 49q0 111 -133 111q-117 0 -279 -72l-123 256q117 62 223 87.5t244 25.5q439 0 439 -338q0 -45 -15 -133l-80 -416q-12 -62 -12 -119q0 -50 12 -82v-12h-354q-10 41 -10 131q-53 -82 -119 -119t-160 -37q-132 0 -213.5 79 t-81.5 208zM250 1206q38 169 104.5 246.5t173.5 77.5q70 0 150 -51q51 -31 82 -31q23 0 36 15t31 59l211 -13q-37 -165 -106 -244t-176 -79q-42 0 -76 11.5t-86 43.5q-50 27 -74 27q-26 0 -43.5 -17t-32.5 -57zM389 311q0 -78 82 -78q128 0 158 160l10 51 q-133 -1 -191.5 -32.5t-58.5 -100.5z" />
<glyph unicode="&#xe4;" horiz-adv-x="1124" d="M20 262q0 272 312 346q153 35 346 35q4 40 4 49q0 111 -133 111q-117 0 -279 -72l-123 256q117 62 223 87.5t244 25.5q439 0 439 -338q0 -45 -15 -133l-80 -416q-12 -62 -12 -119q0 -50 12 -82v-12h-354q-10 41 -10 131q-53 -82 -119 -119t-160 -37q-132 0 -213.5 79 t-81.5 208zM283 1348q0 80 58.5 138t137.5 58q71 0 117.5 -47t46.5 -117q0 -82 -58.5 -140t-140.5 -58q-69 0 -115 47t-46 119zM389 311q0 -78 82 -78q128 0 158 160l10 51q-133 -1 -191.5 -32.5t-58.5 -100.5zM735 1348q0 80 58 138t137 58q70 0 117 -47t47 -117 q0 -82 -58.5 -140t-140.5 -58q-69 0 -114.5 47t-45.5 119z" />
<glyph unicode="&#xe5;" horiz-adv-x="1124" d="M20 262q0 272 312 346q153 35 346 35q4 40 4 49q0 111 -133 111q-117 0 -279 -72l-123 256q117 62 223 87.5t244 25.5q439 0 439 -338q0 -45 -15 -133l-80 -416q-12 -62 -12 -119q0 -50 12 -82v-12h-354q-10 41 -10 131q-53 -82 -119 -119t-160 -37q-132 0 -213.5 79 t-81.5 208zM389 311q0 -78 82 -78q128 0 158 160l10 51q-133 -1 -191.5 -32.5t-58.5 -100.5zM438 1364q0 104 73.5 175t180.5 71q95 0 155 -59t60 -154q0 -103 -72.5 -172.5t-179.5 -69.5q-97 0 -157 58.5t-60 150.5zM594 1368q0 -37 19.5 -59.5t50.5 -22.5q38 0 63 31 t25 78q0 37 -18.5 59.5t-49.5 22.5q-38 0 -64 -31.5t-26 -77.5z" />
<glyph unicode="&#xe6;" horiz-adv-x="1730" d="M27 266q0 194 157.5 284t493.5 89q10 25 10 59q0 53 -30.5 78t-96.5 25q-139 0 -293 -74l-123 258q118 62 229 88.5t255 26.5q120 0 195.5 -28.5t127.5 -94.5q77 65 156.5 94t179.5 29q185 0 293.5 -87.5t108.5 -236.5q0 -205 -205 -287q-78 -31 -182 -44.5t-285 -18.5 v-12q0 -91 33 -129.5t110 -38.5q68 0 120.5 24t115.5 84l211 -188q-99 -100 -211 -145.5t-262 -45.5q-160 0 -264 52.5t-169 165.5q-74 -113 -164 -165.5t-210 -52.5q-137 0 -219 79.5t-82 211.5zM395 313q0 -80 82 -80q55 0 99 40t55 100l12 69q-133 -3 -190.5 -33 t-57.5 -96zM1040 627q166 0 240 27.5t74 90.5q0 43 -29 68t-76 25q-149 0 -209 -211z" />
<glyph unicode="&#xe7;" horiz-adv-x="1112" d="M61 463q0 286 161.5 461.5t424.5 175.5q177 0 284 -79.5t163 -250.5l-316 -104q-19 91 -49.5 127t-89.5 36q-92 0 -150.5 -108.5t-58.5 -280.5q0 -100 33.5 -147t103.5 -47q61 0 104.5 38t76.5 122l276 -136q-65 -135 -176.5 -210.5t-259.5 -82.5l-70 -79q12 2 29 2 q67 0 109 -44.5t42 -115.5q0 -97 -63.5 -152t-173.5 -55q-167 0 -230 127l148 55q22 -49 76 -49q32 0 51.5 19t19.5 49q0 28 -16.5 44.5t-42.5 16.5q-43 0 -64 -35l-86 62l129 162q-189 32 -287 153.5t-98 325.5z" />
<glyph unicode="&#xe8;" horiz-adv-x="1134" d="M57 438q0 290 177.5 476t455.5 186q188 0 297 -87t109 -237q0 -205 -207 -287q-77 -31 -181 -44.5t-284 -18.5v-20q0 -83 34.5 -121.5t108.5 -38.5q67 0 119 23.5t117 84.5l211 -188q-97 -99 -210 -145t-261 -46q-235 0 -360.5 120t-125.5 343zM397 1542h391l50 -366 h-260zM446 625q163 0 237.5 29.5t74.5 93.5q0 41 -28 65.5t-75 24.5q-149 0 -209 -213z" />
<glyph unicode="&#xe9;" horiz-adv-x="1134" d="M57 438q0 290 177.5 476t455.5 186q188 0 297 -87t109 -237q0 -205 -207 -287q-77 -31 -181 -44.5t-284 -18.5v-20q0 -83 34.5 -121.5t108.5 -38.5q67 0 119 23.5t117 84.5l211 -188q-97 -99 -210 -145t-261 -46q-235 0 -360.5 120t-125.5 343zM446 625q163 0 237.5 29.5 t74.5 93.5q0 41 -28 65.5t-75 24.5q-149 0 -209 -213zM541 1176l129 366h417l-278 -366h-268z" />
<glyph unicode="&#xea;" horiz-adv-x="1134" d="M57 438q0 290 177.5 476t455.5 186q188 0 297 -87t109 -237q0 -205 -207 -287q-77 -31 -181 -44.5t-284 -18.5v-20q0 -83 34.5 -121.5t108.5 -38.5q67 0 119 23.5t117 84.5l211 -188q-97 -99 -210 -145t-261 -46q-235 0 -360.5 120t-125.5 343zM330 1186l293 356h266 l158 -356h-250l-82 125l-127 -125h-258zM446 625q163 0 237.5 29.5t74.5 93.5q0 41 -28 65.5t-75 24.5q-149 0 -209 -213z" />
<glyph unicode="&#xeb;" horiz-adv-x="1134" d="M57 438q0 290 177.5 476t455.5 186q188 0 297 -87t109 -237q0 -205 -207 -287q-77 -31 -181 -44.5t-284 -18.5v-20q0 -83 34.5 -121.5t108.5 -38.5q67 0 119 23.5t117 84.5l211 -188q-97 -99 -210 -145t-261 -46q-235 0 -360.5 120t-125.5 343zM324 1348q0 80 58 138 t138 58q70 0 117 -47t47 -117q0 -82 -58.5 -140t-140.5 -58q-69 0 -115 47t-46 119zM446 625q163 0 237.5 29.5t74.5 93.5q0 41 -28 65.5t-75 24.5q-149 0 -209 -213zM776 1348q0 80 58 138t137 58q71 0 117.5 -47t46.5 -117q0 -82 -58.5 -140t-140.5 -58q-69 0 -114.5 47 t-45.5 119z" />
<glyph unicode="&#xec;" horiz-adv-x="616" d="M20 0l209 1071h367l-209 -1071h-367zM145 1542h392l51 -366h-260z" />
<glyph unicode="&#xed;" horiz-adv-x="616" d="M20 0l209 1071h367l-209 -1071h-367zM287 1176l129 366h418l-279 -366h-268z" />
<glyph unicode="&#xee;" horiz-adv-x="616" d="M20 0l209 1071h367l-209 -1071h-367zM63 1186l293 356h267l157 -356h-250l-81 125l-127 -125h-259z" />
<glyph unicode="&#xef;" horiz-adv-x="616" d="M20 0l209 1071h367l-209 -1071h-367zM43 1348q0 79 58.5 137.5t138.5 58.5q70 0 116.5 -46.5t46.5 -117.5q0 -82 -58 -140t-140 -58q-69 0 -115.5 47t-46.5 119zM496 1348q0 80 57.5 138t136.5 58q70 0 117 -47t47 -117q0 -82 -58.5 -140t-140.5 -58q-69 0 -114 47 t-45 119z" />
<glyph unicode="&#xf0;" horiz-adv-x="1214" d="M47 459q0 163 66 296.5t182 210t256 76.5q77 0 135.5 -24.5t112.5 -79.5q-45 136 -166 266l-174 -119l-84 142l135 92q-42 37 -70 59q-18 18 -30 25l172 211q103 -57 188 -117l164 113l84 -142l-119 -82q143 -148 205.5 -297t62.5 -344q0 -292 -116 -495 q-75 -135 -202.5 -205t-297.5 -70q-232 0 -368 130.5t-136 353.5zM420 440q0 -188 143 -188q97 0 155 93.5t58 250.5q0 192 -143 192q-94 0 -153.5 -98t-59.5 -250z" />
<glyph unicode="&#xf1;" horiz-adv-x="1216" d="M12 0l209 1071h369l-35 -182q72 111 153 161t189 50q120 0 188 -76.5t68 -208.5q0 -58 -14 -129l-131 -686h-369l121 629q8 39 8 71q0 48 -24.5 74.5t-69.5 26.5q-135 0 -176 -209l-117 -592h-369zM338 1206q38 169 104.5 246.5t173.5 77.5q70 0 150 -51q51 -31 82 -31 q23 0 36 15t31 59l211 -13q-35 -165 -104.5 -244t-177.5 -79q-42 0 -76 11.5t-86 43.5q-50 27 -74 27q-48 0 -76 -74z" />
<glyph unicode="&#xf2;" horiz-adv-x="1216" d="M59 463q0 180 78.5 326t216.5 228.5t308 82.5q224 0 359.5 -134t135.5 -354q0 -139 -44.5 -257.5t-123.5 -202t-191 -130.5t-243 -47q-221 0 -358.5 135t-137.5 353zM428 436q0 -194 143 -194q97 0 157 112t60 291q0 189 -141 189q-95 0 -157 -113t-62 -285zM438 1542 h391l50 -366h-261z" />
<glyph unicode="&#xf3;" horiz-adv-x="1216" d="M59 463q0 180 78.5 326t216.5 228.5t308 82.5q224 0 359.5 -134t135.5 -354q0 -139 -44.5 -257.5t-123.5 -202t-191 -130.5t-243 -47q-221 0 -358.5 135t-137.5 353zM428 436q0 -194 143 -194q97 0 157 112t60 291q0 189 -141 189q-95 0 -157 -113t-62 -285zM580 1176 l129 366h417l-278 -366h-268z" />
<glyph unicode="&#xf4;" horiz-adv-x="1216" d="M59 463q0 180 78.5 326t216.5 228.5t308 82.5q224 0 359.5 -134t135.5 -354q0 -139 -44.5 -257.5t-123.5 -202t-191 -130.5t-243 -47q-221 0 -358.5 135t-137.5 353zM334 1186l293 356h266l158 -356h-250l-82 125l-127 -125h-258zM428 436q0 -194 143 -194q97 0 157 112 t60 291q0 189 -141 189q-95 0 -157 -113t-62 -285z" />
<glyph unicode="&#xf5;" horiz-adv-x="1216" d="M59 463q0 180 78.5 326t216.5 228.5t308 82.5q224 0 359.5 -134t135.5 -354q0 -139 -44.5 -257.5t-123.5 -202t-191 -130.5t-243 -47q-221 0 -358.5 135t-137.5 353zM326 1206q37 168 103.5 246t172.5 78q72 0 152 -51q51 -31 82 -31q23 0 36 15t31 59l211 -13 q-37 -165 -106 -244t-177 -79q-42 0 -75.5 11t-87.5 44q-47 27 -72 27q-26 0 -43.5 -17t-32.5 -57zM428 436q0 -194 143 -194q97 0 157 112t60 291q0 189 -141 189q-95 0 -157 -113t-62 -285z" />
<glyph unicode="&#xf6;" horiz-adv-x="1216" d="M59 463q0 180 78.5 326t216.5 228.5t308 82.5q224 0 359.5 -134t135.5 -354q0 -139 -44.5 -257.5t-123.5 -202t-191 -130.5t-243 -47q-221 0 -358.5 135t-137.5 353zM340 1348q0 79 58.5 137.5t138.5 58.5q70 0 116.5 -46.5t46.5 -117.5q0 -82 -58 -140t-140 -58 q-69 0 -115.5 47t-46.5 119zM428 436q0 -194 143 -194q97 0 157 112t60 291q0 189 -141 189q-95 0 -157 -113t-62 -285zM793 1348q0 80 57.5 138t136.5 58q71 0 117.5 -47t46.5 -117q0 -82 -58.5 -140t-140.5 -58q-69 0 -114 47t-45 119z" />
<glyph unicode="&#xf7;" horiz-adv-x="1228" d="M135 543l62 307h960l-63 -307h-959zM362 229q0 91 64.5 155.5t153.5 64.5q77 0 127.5 -50.5t50.5 -126.5q0 -91 -64 -155t-155 -64q-75 0 -126 50.5t-51 125.5zM535 1122q0 89 65 154t154 65q75 0 125.5 -50t50.5 -124q0 -92 -63 -156.5t-154 -64.5q-75 0 -126.5 50.5 t-51.5 125.5z" />
<glyph unicode="&#xf8;" horiz-adv-x="1216" d="M-68 0l201 190q-74 116 -74 273q0 180 78.5 326t216.5 228.5t308 82.5q190 0 325 -105l80 76h223l-200 -190q67 -117 67 -269q0 -280 -167.5 -458.5t-428.5 -178.5q-188 0 -323 101l-82 -76h-224zM422 461l342 325q-44 56 -117 56q-128 0 -190 -183q-32 -101 -35 -198z M459 287q45 -54 114 -54q133 0 195 197q27 102 29 174z" />
<glyph unicode="&#xf9;" horiz-adv-x="1212" d="M68 262q0 62 12 123l133 686h369l-125 -647q-6 -27 -6 -66q0 -96 92 -96q135 0 176 209l117 600h368l-209 -1071h-368l37 186q-72 -114 -151.5 -164.5t-188.5 -50.5q-121 0 -188.5 77t-67.5 214zM442 1542h392l49 -366h-260z" />
<glyph unicode="&#xfa;" horiz-adv-x="1212" d="M68 262q0 62 12 123l133 686h369l-125 -647q-6 -27 -6 -66q0 -96 92 -96q135 0 176 209l117 600h368l-209 -1071h-368l37 186q-72 -114 -151.5 -164.5t-188.5 -50.5q-121 0 -188.5 77t-67.5 214zM567 1176l129 366h418l-278 -366h-269z" />
<glyph unicode="&#xfb;" horiz-adv-x="1212" d="M68 262q0 62 12 123l133 686h369l-125 -647q-6 -27 -6 -66q0 -96 92 -96q135 0 176 209l117 600h368l-209 -1071h-368l37 186q-72 -114 -151.5 -164.5t-188.5 -50.5q-121 0 -188.5 77t-67.5 214zM356 1186l293 356h266l158 -356h-250l-82 125l-127 -125h-258z" />
<glyph unicode="&#xfc;" horiz-adv-x="1212" d="M68 262q0 62 12 123l133 686h369l-125 -647q-6 -27 -6 -66q0 -96 92 -96q135 0 176 209l117 600h368l-209 -1071h-368l37 186q-72 -114 -151.5 -164.5t-188.5 -50.5q-121 0 -188.5 77t-67.5 214zM344 1348q0 79 58.5 137.5t138.5 58.5q71 0 117.5 -47t46.5 -117 q0 -82 -58.5 -140t-140.5 -58q-69 0 -115.5 47t-46.5 119zM797 1348q0 80 57.5 138t136.5 58q71 0 117.5 -47t46.5 -117q0 -82 -58.5 -140t-140.5 -58q-69 0 -114 47t-45 119z" />
<glyph unicode="&#xfd;" horiz-adv-x="1181" d="M-90 -317l133 254q46 -35 117 -35q54 0 88 26.5t71 96.5l-190 1046h381l82 -610l311 610h367l-641 -1143q-97 -172 -204.5 -244.5t-264.5 -72.5q-148 0 -250 72zM563 1176l129 366h418l-279 -366h-268z" />
<glyph unicode="&#xfe;" horiz-adv-x="1261" d="M-57 -373l370 1915h369l-121 -629q132 187 326 187q150 0 233.5 -114t83.5 -318q0 -197 -64 -355t-178 -247t-257 -89q-107 0 -177 52t-108 161l-109 -563h-368zM467 438q0 -180 139 -180q98 0 157.5 103t59.5 272q0 98 -32.5 145t-100.5 47q-95 0 -159 -110.5 t-64 -276.5z" />
<glyph unicode="&#xff;" horiz-adv-x="1181" d="M-90 -317l133 254q46 -35 117 -35q54 0 88 26.5t71 96.5l-190 1046h381l82 -610l311 610h367l-641 -1143q-97 -172 -204.5 -244.5t-264.5 -72.5q-148 0 -250 72zM317 1348q0 79 58.5 137.5t138.5 58.5q70 0 117 -47t47 -117q0 -82 -58.5 -140t-140.5 -58q-69 0 -115.5 47 t-46.5 119zM770 1348q0 80 58 138t137 58q70 0 116.5 -46.5t46.5 -117.5q0 -82 -58 -140t-140 -58q-69 0 -114.5 47t-45.5 119z" />
<glyph unicode="&#x152;" horiz-adv-x="2164" d="M111 621q0 182 60 342.5t163 275.5t247 181.5t306 66.5q77 0 168 -23h1179l-59 -307h-621l-51 -264h441l-58 -291h-440l-57 -295h653l-62 -307h-1056q-103 -25 -187 -25q-288 0 -457 174.5t-169 471.5zM514 604q0 -158 62.5 -239.5t183.5 -81.5q127 0 205 90.5t118 283.5 l21 101q14 63 14 137q0 135 -60.5 208t-174.5 73q-163 0 -266 -160t-103 -412z" />
<glyph unicode="&#x153;" horiz-adv-x="1851" d="M61 463q0 180 78.5 326t216 228.5t306.5 82.5q114 0 198 -38.5t150 -121.5q88 83 183.5 121.5t215.5 38.5q186 0 294.5 -87.5t108.5 -236.5q0 -205 -206 -287q-77 -32 -180.5 -46t-284.5 -19v-10q0 -91 32.5 -129.5t108.5 -38.5q68 0 120.5 23.5t117.5 84.5l211 -188 q-100 -100 -212.5 -145.5t-261.5 -45.5q-119 0 -198.5 32.5t-140.5 103.5q-150 -136 -357 -136q-224 0 -362 135t-138 353zM430 436q0 -194 143 -194q95 0 155 112t60 289q0 191 -139 191q-95 0 -157 -113t-62 -285zM1163 623q160 0 236 29.5t76 92.5q0 43 -28 68t-77 25 q-150 0 -207 -215z" />
<glyph unicode="&#x178;" horiz-adv-x="1353" d="M197 1464h409l164 -516l346 516h402l-631 -874l-115 -590h-391l119 610zM477 1724q0 80 58.5 138.5t138.5 58.5q70 0 117 -46.5t47 -115.5q0 -83 -58.5 -141.5t-140.5 -58.5q-69 0 -115.5 47.5t-46.5 117.5zM930 1724q0 79 58 138t136 59q71 0 117.5 -46t46.5 -116 q0 -83 -58 -141.5t-140 -58.5q-69 0 -114.5 46.5t-45.5 118.5z" />
<glyph unicode="&#x2c6;" horiz-adv-x="1024" d="M281 1186l292 356h267l157 -356h-249l-82 125l-127 -125h-258z" />
<glyph unicode="&#x2dc;" horiz-adv-x="1024" d="M276 1206q38 169 105 246.5t174 77.5q70 0 150 -51q51 -31 81 -31q23 0 36.5 15.5t31.5 58.5l211 -13q-37 -165 -106 -244t-177 -79q-42 0 -76 11.5t-88 43.5q-47 27 -71 27q-26 0 -43.5 -17t-32.5 -57z" />
<glyph unicode="&#x2000;" horiz-adv-x="1001" />
<glyph unicode="&#x2001;" horiz-adv-x="2003" />
<glyph unicode="&#x2002;" horiz-adv-x="1001" />
<glyph unicode="&#x2003;" horiz-adv-x="2003" />
<glyph unicode="&#x2004;" horiz-adv-x="667" />
<glyph unicode="&#x2005;" horiz-adv-x="500" />
<glyph unicode="&#x2006;" horiz-adv-x="333" />
<glyph unicode="&#x2007;" horiz-adv-x="333" />
<glyph unicode="&#x2008;" horiz-adv-x="250" />
<glyph unicode="&#x2009;" horiz-adv-x="400" />
<glyph unicode="&#x200a;" horiz-adv-x="111" />
<glyph unicode="&#x2010;" horiz-adv-x="645" d="M51 500l68 344h526l-67 -344h-527z" />
<glyph unicode="&#x2011;" horiz-adv-x="645" d="M51 500l68 344h526l-67 -344h-527z" />
<glyph unicode="&#x2012;" horiz-adv-x="645" d="M51 500l68 344h526l-67 -344h-527z" />
<glyph unicode="&#x2013;" d="M154 520l59 303h975l-60 -303h-974z" />
<glyph unicode="&#x2014;" d="M-86 520l59 303h1454l-59 -303h-1454z" />
<glyph unicode="&#x2018;" horiz-adv-x="593" d="M211 1087q0 85 32 171.5t89 150.5q63 74 139.5 109.5t194.5 44.5l-29 -142q-72 -13 -120.5 -60.5t-65.5 -119.5q66 -11 104.5 -55t38.5 -111q0 -78 -58.5 -132t-144.5 -54q-82 0 -131 53.5t-49 144.5z" />
<glyph unicode="&#x2019;" horiz-adv-x="593" d="M197 889l28 143q70 13 119 60.5t68 119.5q-66 9 -104 53t-38 109q0 80 57.5 134.5t143.5 54.5q80 0 130 -54t50 -141q0 -85 -32 -171t-87 -150q-64 -76 -141 -112.5t-194 -45.5z" />
<glyph unicode="&#x201a;" horiz-adv-x="593" d="M-37 -322l31 142q69 13 117.5 60.5t68.5 119.5q-66 9 -104.5 53.5t-38.5 110.5q0 80 57.5 134t143.5 54q82 0 132 -54t50 -140t-32 -172.5t-87 -149.5q-63 -75 -141 -111t-197 -47z" />
<glyph unicode="&#x201c;" horiz-adv-x="1095" d="M221 1087q0 85 32 171.5t89 150.5q63 74 139.5 109.5t194.5 44.5l-29 -142q-72 -13 -120.5 -60.5t-65.5 -119.5q66 -11 104.5 -55t38.5 -111q0 -78 -58.5 -132t-144.5 -54q-82 0 -131 53.5t-49 144.5zM702 1085q0 86 31.5 171.5t87.5 150.5q65 76 142 111.5t196 44.5 l-29 -142q-72 -13 -120 -59.5t-68 -120.5q66 -11 104.5 -55t38.5 -111q0 -78 -57.5 -132t-142.5 -54q-82 0 -132.5 54t-50.5 142z" />
<glyph unicode="&#x201d;" horiz-adv-x="1095" d="M207 889l29 143q70 13 118.5 60.5t67.5 119.5q-65 9 -103 53t-38 109q0 80 57 134.5t143 54.5q80 0 130.5 -54t50.5 -141q0 -85 -32 -171t-87 -150q-63 -76 -140.5 -112.5t-195.5 -45.5zM688 889l29 143q71 14 119.5 60.5t68.5 119.5q-66 9 -104.5 53t-38.5 109 q0 80 58 134.5t143 54.5q81 0 131.5 -54t50.5 -141q0 -86 -31.5 -171t-87.5 -150q-65 -76 -143 -112.5t-195 -45.5z" />
<glyph unicode="&#x201e;" horiz-adv-x="1095" d="M-27 -322l31 142q69 13 117.5 60.5t68.5 119.5q-66 9 -104.5 53.5t-38.5 110.5q0 80 57.5 134t143.5 54q82 0 132 -54t50 -140t-32 -172.5t-87 -149.5q-63 -75 -141 -111t-197 -47zM457 -322l28 142q70 13 119.5 60.5t69.5 119.5q-66 9 -105 53.5t-39 110.5 q0 80 57.5 134t143.5 54q82 0 132 -54t50 -140q0 -87 -31.5 -173t-86.5 -149q-63 -75 -141 -111t-197 -47z" />
<glyph unicode="&#x2022;" horiz-adv-x="837" d="M123 676q0 140 93.5 232.5t234.5 92.5q138 0 229.5 -92.5t91.5 -232.5t-92 -232t-231 -92q-140 0 -233 92.5t-93 231.5z" />
<glyph unicode="&#x2026;" horiz-adv-x="1935" d="M39 170q0 100 71 171t169 71q83 0 138.5 -56t55.5 -141q0 -100 -70 -170t-170 -70q-85 0 -139.5 55t-54.5 140zM684 170q0 100 71 171t169 71q83 0 138.5 -56t55.5 -141q0 -100 -69.5 -170t-169.5 -70q-85 0 -140 55t-55 140zM1329 170q0 100 71 171t169 71 q83 0 138.5 -56t55.5 -141q0 -100 -69.5 -170t-169.5 -70q-85 0 -140 55t-55 140z" />
<glyph unicode="&#x202f;" horiz-adv-x="400" />
<glyph unicode="&#x2039;" horiz-adv-x="671" d="M74 494l303 419h297l-318 -442l129 -401h-280z" />
<glyph unicode="&#x203a;" horiz-adv-x="671" d="M-14 70l319 442l-129 401h281l129 -424l-301 -419h-299z" />
<glyph unicode="&#x205f;" horiz-adv-x="500" />
<glyph unicode="&#x20ac;" d="M-6 496l33 161h120q2 57 13 134h-109l33 159h111q42 127 88 204.5t118 148.5q190 184 467 184q261 0 383 -150q79 -98 111 -286l-356 -86q-15 120 -50 165.5t-112 45.5t-135.5 -55.5t-104.5 -170.5h270l-30 -159h-285q-11 -59 -16 -134h274l-31 -161h-241 q15 -102 60 -150.5t126 -48.5q77 0 125 49t92 174l338 -102q-82 -226 -222.5 -333.5t-354.5 -107.5q-243 0 -383.5 131t-175.5 388h-156z" />
<glyph unicode="&#x2122;" horiz-adv-x="1656" d="M217 1282l35 182h590l-35 -182h-182l-93 -475h-213l93 475h-195zM807 807l127 657h256l41 -420l188 420h279l-127 -657h-193l74 385l-184 -385h-168l-37 385l-74 -385h-182z" />
<glyph unicode="&#x25fc;" horiz-adv-x="1075" d="M0 0v1075h1075v-1075h-1075z" />
</font>
</defs>
</svg>
