<?xml version="1.0" standalone="no"?>
<!DOCTYPE svg PUBLIC "-//W3C//DTD SVG 1.1//EN" "http://www.w3.org/Graphics/SVG/1.1/DTD/svg11.dtd" >
<svg xmlns="http://www.w3.org/2000/svg" xmlns:xlink="http://www.w3.org/1999/xlink" version="1.1">
<metadata></metadata>
<defs>
<font id="bosch_sansmedium_italic" horiz-adv-x="1232" >
<font-face units-per-em="2048" ascent="1542" descent="-506" />
<missing-glyph horiz-adv-x="616" />
<glyph unicode="&#xfb01;" horiz-adv-x="1251" d="M111 0l174 907h-146l31 164h147l35 180q29 152 120.5 233t232.5 81q119 0 204 -64l-80 -143q-50 45 -120 45q-63 0 -100 -38t-52 -118l-35 -176h217l-30 -164h-220l-176 -907h-202zM758 0l209 1071h204l-208 -1071h-205zM999 1364q0 57 39.5 96t96.5 39q51 0 82.5 -30.5 t31.5 -79.5q0 -57 -40 -97.5t-97 -40.5q-50 0 -81.5 31.5t-31.5 81.5z" />
<glyph unicode="&#xfb02;" horiz-adv-x="1253" d="M111 0l174 907h-146l31 164h147l35 180q29 152 120.5 233t232.5 81q119 0 204 -64l-80 -143q-50 45 -120 45q-63 0 -100 -38t-52 -118l-35 -176h217l-30 -164h-220l-176 -907h-202zM758 0l299 1542h209l-299 -1542h-209z" />
<glyph unicode="&#xfb03;" horiz-adv-x="1794" d="M111 0l174 907h-146l31 164h147l25 131q21 99 39 147.5t51 90.5q96 125 273 125q119 0 204 -64l-80 -143q-50 45 -118 45q-69 0 -104 -40t-54 -138l-31 -154h332l27 131q19 98 37 147t51 91q96 125 272 125q120 0 205 -64l-80 -143q-50 45 -119 45q-67 0 -102 -39.5 t-55 -138.5l-31 -154h217l-31 -164h-219l-176 -907h-203l174 907h-332l-176 -907h-202zM1268 0l209 1071h204l-208 -1071h-205zM1509 1364q0 57 39.5 96t96.5 39q51 0 82.5 -30.5t31.5 -79.5q0 -57 -40 -97.5t-97 -40.5q-50 0 -81.5 31.5t-31.5 81.5z" />
<glyph unicode="&#xfb04;" horiz-adv-x="1794" d="M111 0l174 907h-146l31 164h147l25 131q21 99 39 147.5t51 90.5q96 125 273 125q119 0 204 -64l-80 -143q-50 45 -118 45q-69 0 -104 -40t-54 -138l-31 -154h332l27 131q19 98 37 147t51 91q96 125 272 125q120 0 205 -64l-80 -143q-50 45 -119 45q-67 0 -102 -39.5 t-55 -138.5l-31 -154h217l-31 -164h-219l-176 -907h-203l174 907h-332l-176 -907h-202zM1262 0l299 1542h206l-299 -1542h-206z" />
<glyph horiz-adv-x="0" />
<glyph horiz-adv-x="682" />
<glyph unicode=" "  horiz-adv-x="616" />
<glyph unicode="&#x09;" horiz-adv-x="616" />
<glyph unicode="&#xa0;" horiz-adv-x="616" />
<glyph unicode="!" horiz-adv-x="733" d="M182 123q0 65 46 110.5t112 45.5q58 0 96.5 -38.5t38.5 -95.5q0 -66 -45.5 -110.5t-112.5 -44.5q-58 0 -96.5 38t-38.5 95zM330 455l59 567l86 442h227l-92 -463l-161 -546h-119z" />
<glyph unicode="&#x22;" horiz-adv-x="878" d="M252 913l78 551h221l-141 -551h-158zM610 913l78 551h219l-141 -551h-156z" />
<glyph unicode="#" horiz-adv-x="1146" d="M123 573l33 166h194l62 252h-187l33 166h195l75 307h142l-76 -307h219l76 307h143l-76 -307h193l-33 -166h-201l-61 -252h193l-33 -166h-201l-76 -311h-141l76 311h-219l-76 -311h-141l75 311h-188zM492 739h219l61 252h-219z" />
<glyph unicode="$" d="M37 387l203 49q41 -221 233 -274l102 520q-190 79 -263.5 163.5t-73.5 221.5q0 186 130 301t341 115h20l37 182h127l-39 -197q129 -28 208.5 -104.5t119.5 -210.5l-189 -59q-29 89 -69 136.5t-103 67.5l-90 -462q204 -79 283.5 -168t79.5 -236q0 -204 -141 -327 t-373 -123h-15l-49 -258h-127l51 270q-161 29 -266 131t-137 262zM436 1100q0 -80 37 -126t141 -93l84 436h-2q-123 0 -191.5 -57.5t-68.5 -159.5zM598 147q85 3 136.5 23t90.5 63q62 65 62 175q0 80 -41.5 128.5t-153.5 100.5z" />
<glyph unicode="%" horiz-adv-x="1892" d="M213 997q0 203 112.5 341.5t276.5 138.5q138 0 218.5 -91.5t80.5 -248.5q0 -204 -110.5 -342t-274.5 -138q-137 0 -220 93t-83 247zM391 995q0 -192 135 -192q89 0 144 93.5t55 244.5q0 190 -135 190q-91 0 -145 -92t-54 -244zM406 0l995 1464h162l-996 -1464h-161z M1065 326q0 133 51.5 243t141 173t198.5 63q136 0 216.5 -91.5t80.5 -246.5q0 -205 -110.5 -343t-274.5 -138q-137 0 -220 93t-83 247zM1243 324q0 -193 135 -193q89 0 144 93.5t55 244.5q0 190 -135 190q-91 0 -145 -91.5t-54 -243.5z" />
<glyph unicode="&#x26;" horiz-adv-x="1429" d="M115 383q0 206 153 338q50 43 103.5 74.5t146.5 70.5q-16 93 -16 185q0 189 102.5 305.5t269.5 116.5q125 0 201 -72.5t76 -190.5q0 -138 -97.5 -234t-318.5 -175q64 -207 217 -441q88 132 154 359h174q-83 -302 -229 -492q38 -39 71.5 -55t75.5 -16q32 0 59 6l-26 -162 q-53 -12 -92 -12q-130 0 -236 100q-82 -56 -164.5 -81t-181.5 -25q-201 0 -321.5 109t-120.5 292zM324 393q0 -123 65.5 -190.5t185.5 -67.5q124 0 236 72q-178 263 -258 526q-120 -65 -174.5 -145.5t-54.5 -194.5zM690 1067q0 -63 12 -137q148 54 210.5 117.5t62.5 160.5 q0 57 -28.5 88t-80.5 31q-83 0 -129.5 -68.5t-46.5 -191.5z" />
<glyph unicode="'" horiz-adv-x="509" d="M246 913l78 551h221l-142 -551h-157z" />
<glyph unicode="(" horiz-adv-x="868" d="M223 387q0 448 234 832q60 102 123 181t170 189h186q-266 -306 -386 -596t-120 -626q0 -188 34.5 -347t110.5 -323h-169q-96 171 -139.5 335t-43.5 355z" />
<glyph unicode=")" horiz-adv-x="868" d="M-27 -303q266 306 386 596.5t120 628.5q0 186 -34.5 344.5t-110.5 322.5h170q95 -171 138.5 -334.5t43.5 -355.5q0 -446 -233 -831q-60 -103 -123.5 -182.5t-169.5 -188.5h-187z" />
<glyph unicode="*" horiz-adv-x="931" d="M248 1212l78 166l213 -123l20 287h176l-82 -291l244 113l39 -164l-270 -55l143 -240l-152 -84l-92 250l-182 -248l-127 97l229 229z" />
<glyph unicode="+" horiz-adv-x="1146" d="M158 616l32 168h342l80 408h179l-80 -408h342l-33 -168h-342l-80 -407h-178l80 407h-342z" />
<glyph unicode="," horiz-adv-x="616" d="M10 -315l23 108q138 35 176 203q-60 8 -93.5 43t-33.5 90q0 64 44.5 108t109.5 44q66 0 104.5 -44.5t38.5 -121.5q0 -75 -27 -153.5t-73 -137.5q-50 -65 -112 -96.5t-157 -42.5z" />
<glyph unicode="-" horiz-adv-x="616" d="M86 578l35 186h461l-35 -186h-461z" />
<glyph unicode="." horiz-adv-x="616" d="M82 123q0 66 47 112t113 46q58 0 96.5 -38.5t38.5 -97.5q0 -66 -45.5 -110.5t-112.5 -44.5q-60 0 -98.5 38t-38.5 95z" />
<glyph unicode="/" horiz-adv-x="886" d="M-127 -303l944 1892h195l-942 -1892h-197z" />
<glyph unicode="0" d="M117 575q0 157 36.5 312t102.5 276q85 154 209.5 237t273.5 83q211 0 332 -155t121 -425q0 -220 -68.5 -424.5t-185.5 -328.5q-155 -168 -369 -168q-209 0 -330.5 159t-121.5 434zM334 551q0 -192 62 -293.5t179 -101.5q83 0 154.5 52t120.5 150q123 243 123 562 q0 187 -64 291t-180 104q-169 0 -274 -205q-121 -236 -121 -559z" />
<glyph unicode="1" d="M123 0l33 166h333l191 977q-135 -53 -348 -53l26 145q180 17 285 77.5t160 178.5h151l-258 -1325h301l-32 -166h-842z" />
<glyph unicode="2" d="M25 0l32 172q286 205 403 296.5t208 182.5q227 227 227 447q0 98 -55.5 153.5t-153.5 55.5q-102 0 -168.5 -61t-120.5 -204l-182 54q131 387 485 387q189 0 302.5 -102.5t113.5 -272.5q0 -299 -332 -600q-90 -81 -187 -151.5t-280 -188.5h689l-33 -168h-948z" />
<glyph unicode="3" d="M47 406l203 30q19 -149 96.5 -220t218.5 -71q135 0 209 75.5t74 213.5q0 248 -264 248h-113l33 162h121q153 0 232 64.5t79 189.5q0 101 -63.5 161t-170.5 60q-114 0 -183.5 -55t-123.5 -189l-166 55q64 180 184.5 266.5t305.5 86.5q192 0 310 -101.5t118 -265.5 q0 -265 -297 -364q217 -85 217 -324q0 -200 -140.5 -323t-367.5 -123q-235 0 -371 127q-62 57 -95 126t-46 171z" />
<glyph unicode="4" d="M31 303l39 195l841 989h240l-199 -1020h189l-31 -164h-188l-60 -303h-203l58 303h-686zM254 467h498l155 797z" />
<glyph unicode="5" d="M84 344l199 43q32 -126 98 -181.5t180 -55.5q149 0 237.5 108.5t88.5 292.5q0 124 -57.5 188t-167.5 64q-164 0 -271 -139h-178l211 800h766l-35 -176h-600l-115 -432q120 111 287 111q172 0 271.5 -110t99.5 -300q0 -252 -151 -414.5t-384 -162.5q-209 0 -338 114 q-55 49 -86.5 104.5t-54.5 145.5z" />
<glyph unicode="6" d="M145 537q0 199 60 387t166 323q186 236 465 236q160 0 256 -77.5t143 -244.5l-186 -63q-29 116 -82 165.5t-148 49.5q-325 0 -442 -559q135 182 360 182q180 0 293 -115.5t113 -298.5q0 -233 -151 -387.5t-380 -154.5q-224 0 -345.5 144.5t-121.5 412.5zM358 432 q0 -132 69.5 -209.5t188.5 -77.5q140 0 227 101t87 264q0 125 -65.5 194.5t-182.5 69.5q-146 0 -235 -94t-89 -248z" />
<glyph unicode="7" d="M258 0q94 404 281.5 718.5t492.5 577.5h-735l33 168h936l-33 -178q-296 -242 -489.5 -572.5t-262.5 -713.5h-223z" />
<glyph unicode="8" d="M70 401q0 139 82 244q49 61 112 97.5t166 64.5q-82 53 -121 119t-39 153q0 173 136.5 288.5t341.5 115.5q193 0 317.5 -104t124.5 -265q0 -254 -279 -350q111 -59 163 -138.5t52 -191.5q0 -201 -149 -327.5t-387 -126.5q-227 0 -373.5 118.5t-146.5 302.5zM295 414 q0 -119 81.5 -193t213.5 -74q144 0 229.5 81t85.5 216q0 117 -81.5 190t-211.5 73q-141 0 -229 -81.5t-88 -211.5zM481 1075q0 -101 65.5 -160t178.5 -59q115 0 182.5 66.5t67.5 179.5q0 101 -63.5 161t-172.5 60q-117 0 -187.5 -68t-70.5 -180z" />
<glyph unicode="9" d="M68 301l184 66q34 -115 93 -165t159 -50q204 0 317 206q39 71 62.5 151.5t46.5 221.5q-135 -166 -357 -166q-180 0 -293.5 118t-113.5 306q0 215 146 354.5t372 139.5q232 0 352.5 -145.5t120.5 -426.5q0 -243 -72 -450.5t-198 -327.5q-163 -153 -391 -153 q-166 0 -271.5 79t-156.5 242zM379 987q0 -123 66.5 -192.5t183.5 -69.5q143 0 230 86.5t87 230.5q0 128 -70.5 202.5t-193.5 74.5q-135 0 -219 -91.5t-84 -240.5z" />
<glyph unicode=":" horiz-adv-x="616" d="M84 123q0 66 47 112t113 46q58 0 96.5 -38.5t38.5 -97.5q0 -66 -45.5 -110.5t-112.5 -44.5q-60 0 -98.5 38t-38.5 95zM203 727q0 66 46.5 112t112.5 46q59 0 97.5 -38.5t38.5 -96.5q0 -66 -46.5 -112t-113.5 -46q-58 0 -96.5 38t-38.5 97z" />
<glyph unicode=";" horiz-adv-x="616" d="M12 -315l21 108q140 35 178 203q-60 8 -93.5 43t-33.5 90q0 63 45 107.5t109 44.5q65 0 104 -44.5t39 -117.5q0 -78 -27 -157t-73 -138q-50 -65 -112 -96.5t-157 -42.5zM203 727q0 66 46.5 112t112.5 46q59 0 97.5 -38.5t38.5 -96.5q0 -66 -46.5 -112t-113.5 -46 q-58 0 -96.5 38t-38.5 97z" />
<glyph unicode="&#x3c;" horiz-adv-x="1146" d="M193 573l32 175l840 403l-43 -221l-612 -279l501 -284l-39 -199z" />
<glyph unicode="=" horiz-adv-x="1146" d="M147 385l35 170h789l-35 -170h-789zM223 774l35 170h789l-35 -170h-789z" />
<glyph unicode="&#x3e;" horiz-adv-x="1146" d="M131 168l43 221l612 279l-501 284l37 199l679 -406l-32 -174z" />
<glyph unicode="?" horiz-adv-x="1118" d="M272 1135q115 348 471 348q173 0 276 -88.5t103 -239.5q0 -150 -121 -262q-69 -60 -192 -131q-88 -51 -125.5 -100t-52.5 -132l-15 -75h-184l21 110q22 113 77.5 184.5t176.5 141.5q116 69 161 125t45 131q0 78 -50 124t-136 46q-195 0 -283 -236zM309 123q0 65 46 110.5 t112 45.5q58 0 96.5 -38.5t38.5 -95.5q0 -66 -45.5 -110.5t-112.5 -44.5q-58 0 -96.5 38t-38.5 95z" />
<glyph unicode="@" horiz-adv-x="1882" d="M119 451q0 185 69.5 351.5t187.5 286.5t282.5 190.5t347.5 70.5q222 0 396.5 -92.5t272 -258.5t97.5 -376q0 -246 -118 -400.5t-304 -154.5q-204 0 -234 188q-66 -107 -140 -155t-173 -48q-131 0 -206 91t-75 251q0 152 57 279t156.5 200.5t218.5 73.5q159 0 215 -137 l29 117h180l-102 -500q-10 -48 -10 -96q0 -121 106 -121q114 0 184 113.5t70 298.5q0 268 -170.5 428.5t-454.5 160.5q-209 0 -376 -97t-260 -270t-93 -390q0 -157 49.5 -285.5t143.5 -216.5q158 -143 420 -143q126 0 218.5 27.5t211.5 99.5l74 -113q-127 -83 -243 -116.5 t-276 -33.5q-166 0 -306 56.5t-238 158t-152.5 246t-54.5 316.5zM711 399q0 -184 135 -184q114 0 190 111.5t76 277.5q0 89 -39.5 138t-111.5 49q-106 0 -178 -113t-72 -279z" />
<glyph unicode="A" horiz-adv-x="1271" d="M-74 0l772 1464h226l209 -1464h-209l-45 342h-574l-174 -342h-205zM387 506h471l-96 741z" />
<glyph unicode="B" horiz-adv-x="1347" d="M78 0l284 1464h494q104 0 170.5 -15.5t126.5 -53.5q137 -87 137 -275q0 -137 -66 -224t-214 -144q121 -41 175 -113.5t54 -194.5q0 -209 -143 -326.5t-398 -117.5h-620zM317 168h379q106 0 167 19t102 65q63 69 63 190q0 114 -63 173t-185 59h-364zM449 838h339 q143 0 217 66.5t74 195.5q0 196 -223 196h-317z" />
<glyph unicode="C" horiz-adv-x="1443" d="M156 610q0 186 55.5 348.5t152.5 277.5t233.5 181t293.5 66q123 0 222.5 -40.5t164.5 -117.5q82 -101 117 -283l-195 -49q-29 169 -104.5 245.5t-212.5 76.5q-147 0 -263.5 -92t-181.5 -256.5t-65 -370.5q0 -218 92.5 -333.5t267.5 -115.5q141 0 239 78.5t169 247.5 l176 -74q-98 -218 -241.5 -318.5t-356.5 -100.5q-264 0 -413.5 167.5t-149.5 462.5z" />
<glyph unicode="D" horiz-adv-x="1449" d="M78 0l284 1464h451q275 0 419 -151t144 -439q0 -220 -69 -400.5t-195 -293.5q-201 -180 -532 -180h-502zM317 168h279q249 0 393 160q82 92 126 234.5t44 311.5q0 217 -89 319.5t-277 102.5h-254z" />
<glyph unicode="E" horiz-adv-x="1220" d="M78 0l284 1464h902l-33 -168h-694l-93 -475h555l-30 -162h-555l-95 -491h730l-33 -168h-938z" />
<glyph unicode="F" horiz-adv-x="1177" d="M78 0l284 1464h883l-33 -168h-673l-101 -516h529l-33 -162h-526l-121 -618h-209z" />
<glyph unicode="G" horiz-adv-x="1536" d="M160 602q0 183 55 348.5t158 286.5q205 246 532 246q278 0 414 -174q36 -47 60 -106t44 -154l-194 -58q-43 183 -115 253.5t-215 70.5q-230 0 -376 -199t-146 -514q0 -224 89.5 -339.5t262.5 -115.5q205 0 336 162q69 85 113 260l8 33h-346l30 166h549l-149 -768h-117 v248q-79 -132 -198 -200t-267 -68q-246 0 -387 166t-141 456z" />
<glyph unicode="H" horiz-adv-x="1423" d="M78 0l284 1464h213l-124 -649h628l127 649h213l-284 -1464h-213l125 641h-631l-125 -641h-213z" />
<glyph unicode="I" horiz-adv-x="606" d="M92 0l285 1464h209l-285 -1464h-209z" />
<glyph unicode="J" horiz-adv-x="1138" d="M63 346q0 50 13 123l10 55h207l-10 -53q-15 -77 -15 -127q0 -97 49 -147t144 -50q116 0 181.5 67.5t94.5 215.5l199 1034h211l-205 -1046q-41 -215 -165.5 -326.5t-321.5 -111.5q-185 0 -288.5 96.5t-103.5 269.5z" />
<glyph unicode="K" horiz-adv-x="1314" d="M78 0l284 1464h209l-139 -712l727 712h242l-639 -616l383 -848h-223l-320 700l-219 -206l-96 -494h-209z" />
<glyph unicode="L" horiz-adv-x="1163" d="M78 0l284 1464h209l-252 -1296h666l-33 -168h-874z" />
<glyph unicode="M" horiz-adv-x="1724" d="M78 0l284 1464h300l147 -1185l604 1185h305l-284 -1464h-205l237 1225l-624 -1225h-178l-158 1225l-238 -1225h-190z" />
<glyph unicode="N" horiz-adv-x="1423" d="M78 0l284 1464h252l375 -1222l238 1222h192l-284 -1464h-258l-369 1210l-236 -1210h-194z" />
<glyph unicode="O" horiz-adv-x="1564" d="M156 637q0 241 93.5 434.5t260.5 302.5t375 109q278 0 439 -174.5t161 -474.5q0 -244 -95.5 -439t-265.5 -305t-381 -110q-267 0 -427 179t-160 478zM373 604q0 -218 98.5 -337.5t278.5 -119.5q129 0 232 62.5t171 181.5q115 207 115 467q0 220 -98 338.5t-281 118.5 q-262 0 -402 -246q-114 -199 -114 -465z" />
<glyph unicode="P" horiz-adv-x="1288" d="M78 0l284 1464h472q454 0 454 -377q0 -227 -149.5 -358t-407.5 -131h-328l-116 -598h-209zM434 764h291q181 0 269.5 77.5t88.5 235.5q0 219 -245 219h-299z" />
<glyph unicode="Q" horiz-adv-x="1564" d="M156 637q0 241 93.5 434.5t260.5 302.5t375 109q278 0 439 -175.5t161 -476.5q0 -193 -67 -366t-189 -293l139 -168l-147 -119l-146 174q-146 -79 -325 -79q-272 0 -433 178t-161 479zM373 604q0 -220 98.5 -338.5t280.5 -118.5q108 0 209 52l-158 188l145 119l154 -184 q78 97 122 238.5t44 295.5q0 221 -98 340t-281 119q-130 0 -232.5 -62.5t-169.5 -183.5q-114 -202 -114 -465z" />
<glyph unicode="R" horiz-adv-x="1341" d="M78 0l284 1464h498q195 0 306.5 -96.5t111.5 -265.5q0 -92 -31 -169t-88 -128q-44 -41 -96.5 -65t-144.5 -46q111 -37 152.5 -111.5t41.5 -236.5q5 -146 16.5 -222t36.5 -114l-2 -10h-211q-38 89 -41 348q-3 160 -59.5 221.5t-202.5 61.5h-239l-123 -631h-209zM440 795 h295q336 0 336 290q0 211 -246 211h-286z" />
<glyph unicode="S" horiz-adv-x="1234" d="M29 391l202 51q29 -152 113.5 -223.5t235.5 -71.5q146 0 229.5 70.5t83.5 192.5q0 89 -55.5 140t-221.5 116q-129 51 -187.5 82.5t-104.5 74.5q-95 95 -95 244q0 187 134 301.5t352 114.5q189 0 306 -82t171 -254l-191 -57q-43 123 -112 174t-189 51q-128 0 -199 -58.5 t-71 -164.5q0 -60 22.5 -97t80.5 -70.5t178 -78.5q223 -85 308 -174t85 -238q0 -204 -148.5 -329t-390.5 -125q-222 0 -354 101.5t-182 309.5z" />
<glyph unicode="T" horiz-adv-x="1247" d="M229 1296l33 168h1071l-33 -168h-426l-251 -1296h-207l252 1296h-439z" />
<glyph unicode="U" horiz-adv-x="1429" d="M172 442q0 76 21 181l165 841h209l-170 -870q-18 -102 -18 -168q0 -143 73.5 -211t227.5 -68q158 0 245 85.5t124 277.5l186 954h201l-195 -1005q-47 -241 -188.5 -360t-380.5 -119q-241 0 -370.5 119.5t-129.5 342.5z" />
<glyph unicode="V" horiz-adv-x="1230" d="M199 1464h211l153 -1179l615 1179h211l-789 -1464h-188z" />
<glyph unicode="W" horiz-adv-x="1923" d="M236 1464h213l55 -1130l553 1130h168l110 -1136l508 1136h205l-664 -1464h-190l-113 1128l-559 -1128h-188z" />
<glyph unicode="X" horiz-adv-x="1273" d="M-51 0l608 764l-293 700h230l223 -555l422 555h233l-567 -721l313 -743h-229l-242 602l-465 -602h-233z" />
<glyph unicode="Y" horiz-adv-x="1189" d="M199 1464h221l233 -667l471 667h224l-625 -858l-119 -606h-209l119 614z" />
<glyph unicode="Z" horiz-adv-x="1220" d="M8 0l35 182l973 1114h-717l33 168h948l-39 -194l-958 -1102h739l-31 -168h-983z" />
<glyph unicode="[" horiz-adv-x="868" d="M72 -303l368 1892h480l-33 -166h-273l-305 -1560h275l-33 -166h-479z" />
<glyph unicode="\" horiz-adv-x="886" d="M287 1589h176l225 -1892h-172z" />
<glyph unicode="]" horiz-adv-x="868" d="M-10 -303l33 166h272l305 1560h-274l32 166h480l-369 -1892h-479z" />
<glyph unicode="^" horiz-adv-x="1120" d="M229 829l437 635h161l189 -635h-176l-131 422l-287 -422h-193z" />
<glyph unicode="_" horiz-adv-x="901" d="M-225 -403l32 172h984l-33 -172h-983z" />
<glyph unicode="`" horiz-adv-x="1024" d="M522 1542h242l61 -338h-133z" />
<glyph unicode="a" horiz-adv-x="1085" d="M51 266q0 124 82 211.5t232 122.5q135 33 374 41l9 41q8 47 8 82q0 158 -172 158q-84 0 -156.5 -27t-151.5 -88l-88 137q99 77 200.5 112.5t225.5 35.5q167 0 258 -76t91 -217q0 -52 -13 -119l-84 -432q-4 -24 -4 -33q0 -37 21.5 -52.5t72.5 -15.5l-30 -153 q-44 -6 -66 -6q-179 0 -203 155q-69 -86 -141.5 -124.5t-163.5 -38.5q-132 0 -216.5 80t-84.5 206zM260 279q0 -68 41 -104t119 -36q102 0 173.5 59.5t90.5 159.5l27 146q-249 -8 -350 -58t-101 -167z" />
<glyph unicode="b" horiz-adv-x="1236" d="M72 0l299 1542h207l-121 -620q69 89 148 129.5t181 40.5q169 0 264 -119t95 -328q0 -187 -68 -339t-188.5 -238t-267.5 -86q-114 0 -188.5 54t-117.5 167l-36 -203h-207zM362 434q0 -140 61.5 -215.5t176.5 -75.5q149 0 239.5 137t90.5 361q0 142 -54.5 215.5 t-158.5 73.5q-154 0 -254.5 -140.5t-100.5 -355.5z" />
<glyph unicode="c" horiz-adv-x="1083" d="M86 442q0 187 70 335.5t195 231.5t282 83q143 0 235.5 -63.5t149.5 -199.5l-174 -79q-40 102 -85.5 141t-125.5 39q-151 0 -241.5 -136t-90.5 -360q0 -293 221 -293q85 0 148.5 44.5t120.5 142.5l149 -90q-92 -138 -193.5 -198t-242.5 -60q-192 0 -305 124.5t-113 337.5z " />
<glyph unicode="d" horiz-adv-x="1241" d="M94 434q0 188 66 338.5t183.5 235t264.5 84.5q114 0 195.5 -51.5t124.5 -149.5l127 651h205l-299 -1542h-205l30 160q-74 -95 -148.5 -136.5t-174.5 -41.5q-170 0 -269.5 121.5t-99.5 330.5zM309 436q0 -142 55.5 -217.5t159.5 -75.5q152 0 253.5 143.5t101.5 360.5 q0 137 -61.5 210t-176.5 73q-149 0 -240.5 -136.5t-91.5 -357.5z" />
<glyph unicode="e" horiz-adv-x="1095" d="M86 418q0 187 77 341.5t212 243.5t297 89q156 0 251 -82.5t95 -218.5q0 -121 -84.5 -197.5t-259.5 -114.5q-80 -18 -156 -25t-225 -10q-2 -23 -2 -45q0 -258 219 -258q84 0 147 34.5t129 115.5l136 -98q-88 -110 -190 -161.5t-234 -51.5q-195 0 -303.5 115.5 t-108.5 322.5zM309 590q268 0 388 45.5t120 148.5q0 68 -43.5 107t-118.5 39q-129 0 -217 -86.5t-129 -253.5z" />
<glyph unicode="f" horiz-adv-x="704" d="M111 0l174 907h-146l31 164h147l25 131q21 99 39 147.5t51 90.5q96 125 273 125q119 0 204 -64l-80 -143q-50 45 -118 45q-69 0 -104 -40t-54 -138l-31 -154h217l-30 -164h-220l-176 -907h-202z" />
<glyph unicode="g" horiz-adv-x="1128" d="M-29 -127q0 165 228 242q-86 57 -86 151q0 68 38 120t123 99q-106 100 -106 240q0 158 122.5 262.5t309.5 104.5q119 0 227 -54l326 52l-33 -170h-168q45 -75 45 -164q0 -160 -120.5 -262.5t-307.5 -102.5q-106 0 -204 39q-37 -26 -52.5 -51t-15.5 -57q0 -78 113 -78h208 q164 0 255.5 -72t91.5 -201q0 -173 -145.5 -272.5t-399.5 -99.5q-209 0 -329 73t-120 201zM170 -100q0 -146 268 -146q158 0 240 48.5t82 142.5q0 129 -172 129h-211q-35 0 -55 2q-79 -34 -115.5 -76t-36.5 -100zM369 717q0 -86 53 -136.5t145 -50.5q109 0 170.5 61.5 t61.5 168.5q0 88 -53.5 138t-147.5 50q-101 0 -165 -64t-64 -167z" />
<glyph unicode="h" horiz-adv-x="1189" d="M72 0l299 1542h207l-121 -631q65 94 143 137.5t182 43.5q132 0 206.5 -78.5t74.5 -218.5q0 -69 -12 -127l-129 -668h-207l129 670q10 55 10 96q0 156 -160 156q-114 0 -190.5 -77.5t-104.5 -219.5l-120 -625h-207z" />
<glyph unicode="i" horiz-adv-x="569" d="M76 0l209 1071h204l-208 -1071h-205zM317 1364q0 57 39.5 96t96.5 39q51 0 82.5 -30.5t31.5 -79.5q0 -57 -40 -97.5t-97 -40.5q-50 0 -81.5 31.5t-31.5 81.5z" />
<glyph unicode="j" horiz-adv-x="569" d="M-217 -344l63 151q53 -26 91 -26q55 0 83.5 32.5t45.5 114.5l223 1143h205l-228 -1167q-29 -149 -107.5 -221t-211.5 -72q-104 0 -164 45zM322 1364q0 57 39 96t96 39q51 0 82.5 -30.5t31.5 -79.5q0 -57 -40 -97.5t-97 -40.5q-49 0 -80.5 31.5t-31.5 81.5z" />
<glyph unicode="k" horiz-adv-x="1087" d="M72 0l299 1542h207l-185 -950l463 479h238l-430 -428l268 -643h-215l-209 496l-166 -166l-63 -330h-207z" />
<glyph unicode="l" horiz-adv-x="571" d="M76 0l299 1542h207l-299 -1542h-207z" />
<glyph unicode="m" horiz-adv-x="1742" d="M72 0l209 1071h206l-30 -153q66 92 138.5 133t166.5 41q200 0 252 -209q78 110 159.5 159.5t184.5 49.5q123 0 191.5 -76t68.5 -213q0 -62 -14 -133l-129 -670h-207l131 670q10 62 10 98q0 154 -135 154q-101 0 -176 -79.5t-101 -215.5l-120 -627h-207l131 670 q10 55 10 102q0 150 -135 150q-101 0 -176 -79.5t-101 -215.5l-120 -627h-207z" />
<glyph unicode="n" horiz-adv-x="1189" d="M72 0l209 1071h206l-30 -160q65 94 143 137.5t182 43.5q132 0 206.5 -78.5t74.5 -218.5q0 -69 -12 -127l-129 -668h-207l129 670q10 55 10 98q0 154 -160 154q-114 0 -190.5 -77.5t-104.5 -219.5l-120 -625h-207z" />
<glyph unicode="o" horiz-adv-x="1153" d="M90 457q0 180 70.5 325.5t196 227.5t280.5 82q196 0 311 -126t115 -341q0 -282 -152.5 -463.5t-388.5 -181.5q-198 0 -315 129.5t-117 347.5zM305 430q0 -289 217 -289q163 0 250 170q76 149 76 340q0 138 -54.5 208.5t-160.5 70.5q-146 0 -237 -138.5t-91 -361.5z" />
<glyph unicode="p" horiz-adv-x="1236" d="M2 -373l281 1444h206l-30 -153q132 174 334 174q166 0 260 -115t94 -318q0 -191 -68 -346t-188.5 -243t-267.5 -88q-224 0 -306 219l-108 -574h-207zM365 434q0 -140 61 -215.5t176 -75.5q149 0 239.5 137t90.5 361q0 142 -54.5 215.5t-158.5 73.5q-154 0 -254 -140.5 t-100 -355.5z" />
<glyph unicode="q" horiz-adv-x="1241" d="M94 426q0 189 66.5 341.5t185.5 238.5t266 86q113 0 193.5 -53t120.5 -154l37 186h204l-280 -1444h-205l104 533q-74 -95 -148.5 -136.5t-174.5 -41.5q-170 0 -269.5 119.5t-99.5 324.5zM309 436q0 -142 55.5 -217.5t159.5 -75.5q152 0 253.5 143.5t101.5 360.5 q0 137 -61.5 210t-176.5 73q-149 0 -240.5 -136.5t-91.5 -357.5z" />
<glyph unicode="r" horiz-adv-x="858" d="M72 0l209 1071h206l-36 -182q60 104 129.5 152.5t160.5 48.5q84 0 152 -43l-78 -177q-58 35 -115 35q-117 0 -198.5 -87.5t-112.5 -244.5l-110 -573h-207z" />
<glyph unicode="s" horiz-adv-x="1001" d="M10 205l148 110q59 -94 127 -134t170 -40q92 0 144 38t52 104q0 55 -35.5 90.5t-130.5 75.5q-101 42 -143.5 66.5t-85.5 64.5q-82 76 -82 200q0 142 102.5 227t272.5 85q127 0 217.5 -44t165.5 -143l-141 -117q-101 142 -252 142q-78 0 -122 -35t-44 -98q0 -56 34 -87.5 t144 -78.5q136 -56 209 -111q96 -78 96 -211q0 -149 -113 -239t-299 -90q-150 0 -256 55t-178 170z" />
<glyph unicode="t" horiz-adv-x="772" d="M139 907l31 164h156l51 262l215 58l-62 -320h236l-31 -164h-237l-111 -571q-10 -64 -10 -88q0 -94 94 -94q57 0 131 39l57 -142q-109 -71 -243 -71q-114 0 -181 65.5t-67 179.5q0 34 14 111l111 571h-154z" />
<glyph unicode="u" horiz-adv-x="1171" d="M125 276q0 48 22 168l121 627h207l-129 -661q-12 -56 -12 -107q0 -158 149 -158q108 0 184.5 79.5t104.5 219.5l121 627h207l-209 -1071h-207l35 172q-69 -101 -145.5 -146.5t-176.5 -45.5q-128 0 -200 78.5t-72 217.5z" />
<glyph unicode="v" horiz-adv-x="970" d="M123 1071h213l88 -860l414 860h215l-553 -1071h-236z" />
<glyph unicode="w" horiz-adv-x="1611" d="M158 1071h209l55 -827l373 827h202l72 -827l377 827h211l-524 -1071h-220l-69 809l-369 -809h-217z" />
<glyph unicode="x" horiz-adv-x="1056" d="M-55 0l467 563l-236 508h225l160 -373l291 373h231l-434 -518l258 -553h-225l-178 418l-332 -418h-227z" />
<glyph unicode="y" horiz-adv-x="987" d="M-121 -309l84 135q49 -49 119 -49q54 0 92 30.5t72 98.5l57 117l-180 1048h215l119 -782l395 782h217l-666 -1231q-66 -122 -137.5 -173.5t-175.5 -51.5q-120 0 -211 76z" />
<glyph unicode="z" horiz-adv-x="966" d="M-18 0l30 162l695 743h-517l33 166h748l-35 -184l-668 -717h539l-33 -170h-792z" />
<glyph unicode="{" horiz-adv-x="878" d="M100 565l35 166q132 2 195 50.5t86 168.5l59 301q37 190 146.5 267t343.5 77l-31 -161q-136 -6 -188 -50t-78 -172l-62 -311q-25 -117 -80.5 -176.5t-165.5 -85.5q78 -28 113 -75.5t35 -125.5q0 -38 -10 -96l-54 -274q-8 -44 -8 -72q0 -73 41.5 -104t149.5 -39l-31 -162 q-115 3 -183 25.5t-114 72.5q-66 72 -66 188q0 33 11 97l51 262q10 49 10 84q0 77 -46.5 109.5t-158.5 35.5z" />
<glyph unicode="|" horiz-adv-x="585" d="M248 -303v1892h164v-1892h-164z" />
<glyph unicode="}" horiz-adv-x="878" d="M-47 -309l31 162q136 6 188 49.5t78 171.5l61 311q25 117 80.5 176.5t165.5 85.5q-78 28 -112.5 75.5t-34.5 125.5q0 38 10 96l53 275q8 44 8 71q0 74 -41.5 106t-148.5 38l31 161q115 -3 182.5 -25.5t113.5 -72.5q66 -72 66 -188q0 -39 -10 -97l-51 -262 q-11 -54 -11 -84q0 -77 46.5 -109.5t158.5 -35.5l-35 -166q-132 -2 -194.5 -50.5t-85.5 -168.5l-60 -301q-37 -190 -146.5 -267t-342.5 -77z" />
<glyph unicode="~" horiz-adv-x="1146" d="M178 549q40 156 105.5 229.5t165.5 73.5q42 0 83.5 -17.5t106.5 -62.5q81 -55 123 -55q40 0 66.5 33.5t45.5 107.5l146 -14q-38 -155 -104 -229t-166 -74q-44 0 -85.5 17.5t-105.5 62.5q-80 57 -123 57q-41 0 -67 -33.5t-43 -109.5z" />
<glyph unicode="&#xa1;" horiz-adv-x="733" d="M115 -373l90 463l162 547h120l-61 -567l-86 -443h-225zM342 946q0 66 45 111t111 45q60 0 98.5 -38t38.5 -95q0 -66 -46 -111t-114 -45q-57 0 -95 38t-38 95z" />
<glyph unicode="&#xa2;" d="M158 430q0 143 48 273.5t134 222.5q71 75 148 112t196 52l39 198h127l-39 -205q205 -38 287 -254l-172 -79q-34 85 -65.5 122t-82.5 50l-151 -785q75 11 128.5 53t114.5 140l144 -92q-80 -125 -181 -186.5t-237 -67.5l-49 -260h-127l51 268q-78 20 -127 50t-92 83 q-94 119 -94 305zM360 430q0 -117 34 -184.5t108 -98.5l151 781q-84 -20 -135.5 -61t-89.5 -119q-68 -136 -68 -318z" />
<glyph unicode="&#xa3;" d="M16 182q0 97 67 155t177 58q76 0 166 -47q2 16 2 29q0 54 -8.5 105.5t-36.5 166.5h-211l25 139h155q-24 123 -24 220q0 218 128.5 346.5t348.5 128.5q186 0 292.5 -97t129.5 -288l-191 -43q-20 135 -75 193.5t-162 58.5q-123 0 -190.5 -79t-67.5 -224q0 -84 22 -216h375 l-25 -139h-325q22 -150 22 -223q0 -92 -28 -184q65 -47 107 -64.5t87 -17.5q71 0 112.5 40.5t69.5 135.5l177 -33q-50 -168 -131 -243.5t-213 -75.5q-79 0 -144 27t-141 93q-105 -120 -256 -120q-106 0 -170 54t-64 144zM166 186q0 -34 25 -54.5t65 -20.5q84 0 135 96 q-68 55 -131 55q-43 0 -68.5 -20.5t-25.5 -55.5z" />
<glyph unicode="&#xa4;" d="M25 514l24 129h162q4 92 18 168h-147l24 129h152q39 118 71.5 184.5t84.5 130.5q182 228 463 228q229 0 337 -150q35 -49 52.5 -99.5t36.5 -156.5l-197 -41q-19 120 -45 168q-57 111 -197 111q-269 0 -393 -375h416l-27 -129h-420q-14 -76 -18 -168h407l-26 -129h-381 q11 -133 41 -199q74 -161 252 -161q111 0 185.5 64.5t141.5 219.5l177 -65q-37 -84 -63 -128.5t-66 -88.5q-149 -174 -388 -174q-132 0 -235 53.5t-166 154.5q-44 71 -63 136t-29 188h-184z" />
<glyph unicode="&#xa5;" d="M100 393l27 129h381l24 121l-22 62h-348l24 129h281l-215 630h233l191 -641l450 641h211l-458 -630h284l-26 -129h-351l-45 -62l-24 -121h385l-25 -129h-385l-76 -393h-208l75 393h-383z" />
<glyph unicode="&#xa6;" horiz-adv-x="585" d="M106 0l115 588h162l-115 -588h-162zM276 877l115 587h162l-115 -587h-162z" />
<glyph unicode="&#xa7;" horiz-adv-x="1165" d="M55 -14l164 80q46 -95 110.5 -140t153.5 -45q88 0 136.5 42.5t48.5 119.5q0 69 -50 119q-34 34 -61 50.5t-154 82.5q-141 72 -206.5 152.5t-65.5 183.5q0 114 70 185.5t215 105.5q-80 96 -80 215q0 155 109.5 250.5t287.5 95.5q141 0 234 -61.5t153 -196.5l-162 -78 q-40 94 -94.5 135t-140.5 41t-136 -44.5t-50 -121.5q0 -74 55 -129q30 -31 54 -46t140 -73q149 -75 215 -153.5t66 -180.5q0 -115 -68.5 -186t-214.5 -108q46 -54 66 -105.5t20 -114.5q0 -155 -107.5 -248.5t-285.5 -93.5q-293 0 -422 267zM334 655q0 -60 40 -104.5 t140 -97.5l148 -76q104 15 152 56.5t48 115.5q0 60 -40.5 104t-143.5 97l-143 73q-201 -23 -201 -168z" />
<glyph unicode="&#xa8;" horiz-adv-x="1024" d="M365 1364q0 54 37.5 92.5t91.5 38.5q47 0 78.5 -30t31.5 -76q0 -54 -39.5 -93t-93.5 -39q-46 0 -76 30.5t-30 76.5zM743 1364q0 54 38 92.5t91 38.5q47 0 79 -30t32 -74q0 -55 -38.5 -94.5t-92.5 -39.5q-46 0 -77.5 30.5t-31.5 76.5z" />
<glyph unicode="&#xa9;" horiz-adv-x="1753" d="M182 666q0 165 63.5 316.5t171 261t255.5 174.5t309 65q190 0 342.5 -87t238 -241t85.5 -346q0 -168 -64 -321.5t-171.5 -264t-256.5 -176t-313 -65.5q-186 0 -337 89t-237 245.5t-86 349.5zM295 672q0 -257 156 -423.5t397 -166.5q187 0 345.5 97t250.5 263t92 361 q0 255 -157.5 417t-403.5 162q-187 0 -343 -94t-246.5 -257.5t-90.5 -358.5zM518 680q0 217 128 360.5t321 143.5q127 0 205.5 -59t121.5 -185l-153 -66q-29 89 -70 125.5t-113 36.5q-115 0 -184 -96.5t-69 -257.5q0 -246 188 -246q77 0 128.5 40.5t86.5 129.5l152 -65 q-64 -132 -156 -194t-223 -62q-163 0 -263 108.5t-100 286.5z" />
<glyph unicode="&#xaa;" horiz-adv-x="1003" d="M190 778q0 100 63 173t177 102q121 32 344 43l6 37q6 44 6 69q0 129 -145 129q-71 0 -132 -22.5t-128 -73.5l-76 123q166 125 365 125q146 0 224.5 -65t78.5 -187q0 -48 -8 -84l-84 -434q-9 -43 -9 -82q0 -41 11 -68v-8h-181q-8 36 -8 107q-100 -123 -243 -123 q-117 0 -189 66t-72 173zM375 795q0 -57 33 -87t96 -30q87 0 147.5 49t77.5 133l23 117q-154 -8 -215 -21q-85 -19 -123.5 -57t-38.5 -104z" />
<glyph unicode="&#xab;" horiz-adv-x="1081" d="M133 504l320 397h196l-321 -412l155 -405h-180zM502 502l325 399h197l-326 -416l156 -401h-180z" />
<glyph unicode="&#xac;" horiz-adv-x="1146" d="M254 649l33 172h651l-90 -473h-176l59 301h-477z" />
<glyph unicode="&#xad;" horiz-adv-x="616" d="M86 578l35 186h461l-35 -186h-461z" />
<glyph unicode="&#xae;" horiz-adv-x="1159" d="M195 954q0 142 70 264t189 193.5t257 71.5q186 0 311 -126t125 -313q0 -143 -69 -264t-188.5 -191.5t-260.5 -70.5q-187 0 -310.5 124t-123.5 312zM295 961q0 -158 94 -256.5t246 -98.5q177 0 295.5 124.5t118.5 311.5q0 159 -94.5 256t-249.5 97q-175 0 -292.5 -124 t-117.5 -310zM444 770l93 473h206q71 0 110.5 -33.5t39.5 -93.5q0 -56 -28.5 -87t-92.5 -44q35 -14 47 -34t15 -72q9 -94 18 -105v-4h-109q-11 28 -14 102q-2 43 -16 60.5t-49 17.5h-72l-37 -180h-111zM606 1028h84q94 0 94 76q0 27 -16 42t-45 15h-92z" />
<glyph unicode="&#xaf;" horiz-adv-x="1024" d="M412 1298l28 148h496l-29 -148h-495z" />
<glyph unicode="&#xb0;" horiz-adv-x="935" d="M246 1096q0 161 107.5 273t264.5 112q138 0 223 -84.5t85 -222.5q0 -169 -107.5 -281.5t-267.5 -112.5q-133 0 -219 89t-86 227zM403 1104q0 -89 43 -141t117 -52q94 0 151.5 69t57.5 183q0 88 -44 139.5t-120 51.5q-89 0 -147 -70.5t-58 -179.5z" />
<glyph unicode="&#xb1;" horiz-adv-x="1146" d="M23 0l32 168h893l-33 -168h-892zM158 690l30 168h359l71 365h181l-74 -365h356l-32 -168h-357l-71 -368h-179l72 368h-356z" />
<glyph unicode="&#xb2;" horiz-adv-x="923" d="M164 911l26 144q168 105 221.5 141t112.5 82q92 72 134 132.5t42 121.5q0 52 -26 82.5t-70 30.5q-65 0 -110 -76q-9 -14 -37 -84l-178 49q54 146 132 205t216 59q135 0 209.5 -62.5t74.5 -176.5q0 -194 -215 -365q-60 -48 -200 -133h329l-28 -150h-633z" />
<glyph unicode="&#xb3;" horiz-adv-x="923" d="M168 1188l203 29q11 -88 47.5 -129t103.5 -41q65 0 101 31.5t36 88.5q0 58 -35.5 92.5t-95.5 34.5h-79l28 146h86q68 0 105 27.5t37 78.5q0 47 -30 76t-81 29q-52 0 -84 -28t-59 -93l-168 55q40 109 120 161t209 52q138 0 217.5 -60.5t79.5 -166.5q0 -142 -129 -211 q88 -61 88 -172q0 -134 -93 -210.5t-257 -76.5q-215 0 -301 133q-32 47 -49 154z" />
<glyph unicode="&#xb4;" horiz-adv-x="1024" d="M467 1204l154 338h258l-267 -338h-145z" />
<glyph unicode="&#xb5;" d="M66 -373l280 1444h207l-131 -670q-10 -52 -10 -96q0 -160 147 -160q110 0 185.5 78t103.5 221l123 627h205l-209 -1071h-205l33 172q-66 -99 -138 -144.5t-163 -45.5q-88 0 -144 53l-80 -408h-204z" />
<glyph unicode="&#xb6;" horiz-adv-x="1263" d="M219 1030q0 197 129.5 315.5t345.5 118.5h551l-284 -1464h-173l254 1313h-145l-256 -1313h-172l137 698h-10q-175 0 -276 88.5t-101 243.5z" />
<glyph unicode="&#xb7;" horiz-adv-x="616" d="M184 657q0 66 46.5 112t113.5 46q58 0 96.5 -38.5t38.5 -96.5q0 -66 -46 -111t-114 -45q-58 0 -96.5 38t-38.5 95z" />
<glyph unicode="&#xb8;" horiz-adv-x="1024" d="M139 -352l92 65q42 -55 109 -55q40 0 62 21t22 59q0 31 -17.5 48t-48.5 17q-35 0 -65 -30l-68 57l148 170h102l-104 -121q31 8 47 8q60 0 97.5 -40.5t37.5 -104.5q0 -85 -59.5 -135.5t-157.5 -50.5q-66 0 -112.5 21.5t-84.5 70.5z" />
<glyph unicode="&#xb9;" horiz-adv-x="923" d="M217 911l29 148h203l90 463q-102 -15 -207 -15l24 135q118 9 178 41.5t95 104.5h157l-141 -729h182l-28 -148h-582z" />
<glyph unicode="&#xba;" horiz-adv-x="1089" d="M221 938q0 151 62.5 276.5t171.5 197t241 71.5q164 0 262.5 -106.5t98.5 -284.5q0 -238 -133.5 -395.5t-335.5 -157.5q-166 0 -266.5 109t-100.5 290zM410 926q0 -242 182 -242q124 0 199 114t75 302q0 233 -184 233q-125 0 -198.5 -110t-73.5 -297z" />
<glyph unicode="&#xbb;" horiz-adv-x="1081" d="M41 84l326 416l-156 401h180l172 -416l-325 -401h-197zM414 84l323 414l-155 403h180l170 -420l-320 -397h-198z" />
<glyph unicode="&#xbc;" horiz-adv-x="1884" d="M197 668l26 135h185l79 422q-74 -15 -151 -15h-35l23 121q106 9 160 38t85 95h146l-129 -661h166l-27 -135h-528zM403 0l996 1464h162l-996 -1464h-162zM1001 154l27 139l475 504h178l-98 -510h103l-25 -133h-105l-28 -154h-178l28 154h-377zM1196 287h211l63 295z" />
<glyph unicode="&#xbd;" horiz-adv-x="1884" d="M197 668l26 135h185l79 422q-74 -15 -151 -15h-35l23 121q106 9 160 38t85 95h146l-129 -661h166l-27 -135h-528zM362 0l996 1464h162l-996 -1464h-162zM1022 0l25 129q244 155 305 203q84 66 121.5 120.5t37.5 110.5q0 47 -23.5 75t-64.5 28q-44 0 -72.5 -31t-62.5 -115 l-162 45q47 131 119.5 185.5t198.5 54.5q123 0 190.5 -57t67.5 -160q0 -180 -195 -332q-63 -49 -184 -121h301l-27 -135h-575z" />
<glyph unicode="&#xbe;" horiz-adv-x="1884" d="M162 918l184 26q9 -79 42 -116t95 -37q58 0 90.5 28.5t32.5 79.5q0 53 -31.5 84t-85.5 31h-71l24 133h80q60 0 93.5 26t33.5 72q0 44 -27 70t-73 26t-76 -26t-55 -86l-152 49q37 101 109.5 149t189.5 48q126 0 198.5 -55t72.5 -152q0 -132 -117 -195q78 -57 78 -155 q0 -122 -84.5 -191.5t-233.5 -69.5q-194 0 -274 121q-29 47 -43 140zM412 0l995 1464h162l-996 -1464h-161zM989 154l29 139l473 504h180l-100 -510h104l-26 -133h-103l-30 -154h-177l29 154h-379zM1186 287h209l65 295z" />
<glyph unicode="&#xbf;" horiz-adv-x="1118" d="M41 -63q0 150 123 264q34 30 65.5 51t124.5 76q88 51 125.5 100.5t52.5 132.5l15 76h184l-20 -111q-26 -123 -87 -195t-216 -161q-160 -95 -160 -227q0 -78 50.5 -124t137.5 -46q99 0 168 58t115 179l170 -55q-119 -348 -469 -348q-175 0 -277 89t-102 241zM561 946 q0 64 45.5 110t110.5 46q60 0 98.5 -38t38.5 -95q0 -66 -47 -112t-113 -46q-57 0 -95 39t-38 96z" />
<glyph unicode="&#xc0;" horiz-adv-x="1271" d="M-74 0l772 1464h226l209 -1464h-209l-45 342h-574l-174 -342h-205zM387 506h471l-96 741zM588 1935h241l62 -338h-133z" />
<glyph unicode="&#xc1;" horiz-adv-x="1271" d="M-74 0l772 1464h226l209 -1464h-209l-45 342h-574l-174 -342h-205zM387 506h471l-96 741zM748 1597l153 338h258l-266 -338h-145z" />
<glyph unicode="&#xc2;" horiz-adv-x="1271" d="M-74 0l772 1464h226l209 -1464h-209l-45 342h-574l-174 -342h-205zM387 506h471l-96 741zM535 1599l266 336h168l141 -336h-137l-113 179l-184 -179h-141z" />
<glyph unicode="&#xc3;" horiz-adv-x="1271" d="M-74 0l772 1464h226l209 -1464h-209l-45 342h-574l-174 -342h-205zM387 506h471l-96 741zM508 1620q49 240 207 240q59 0 153 -58q60 -37 90 -37q58 0 82 97l125 -13q-25 -117 -77.5 -178t-129.5 -61q-65 0 -155 57q-60 37 -90 37q-59 0 -82 -96z" />
<glyph unicode="&#xc4;" horiz-adv-x="1271" d="M-74 0l772 1464h226l209 -1464h-209l-45 342h-574l-174 -342h-205zM387 506h471l-96 741zM526 1712q0 54 37.5 92.5t91.5 38.5q47 0 79 -30t32 -76q0 -54 -39 -92.5t-94 -38.5q-46 0 -76.5 30t-30.5 76zM905 1712q0 54 38 92.5t91 38.5q47 0 79 -30t32 -74 q0 -55 -38.5 -94t-92.5 -39q-46 0 -77.5 30.5t-31.5 75.5z" />
<glyph unicode="&#xc5;" horiz-adv-x="1271" d="M-74 0l772 1464h226l209 -1464h-209l-45 342h-574l-174 -342h-205zM387 506h471l-96 741zM629 1780q0 97 67 165t162 68q87 0 143 -55t56 -141q0 -98 -67.5 -167t-164.5 -69q-85 0 -140.5 56.5t-55.5 142.5zM743 1782q0 -44 24 -72.5t62 -28.5q49 0 82 36.5t33 92.5 q0 46 -25.5 74.5t-66.5 28.5q-48 0 -78.5 -36.5t-30.5 -94.5z" />
<glyph unicode="&#xc6;" horiz-adv-x="1966" d="M-49 0l1091 1464h967l-33 -168h-659l-94 -475h522l-31 -162h-522l-94 -491h694l-33 -168h-903l64 328h-508l-240 -328h-221zM530 489h420l154 787z" />
<glyph unicode="&#xc7;" horiz-adv-x="1443" d="M156 610q0 186 55.5 348.5t152.5 277.5t233.5 181t293.5 66q123 0 222.5 -40.5t164.5 -117.5q82 -101 117 -283l-195 -49q-29 169 -104.5 245.5t-212.5 76.5q-147 0 -263.5 -92t-181.5 -256.5t-65 -370.5q0 -218 92.5 -333.5t267.5 -115.5q141 0 239 78.5t169 247.5 l176 -74q-90 -210 -232 -311.5t-350 -107.5l-88 -101q31 8 47 8q60 0 97.5 -40.5t37.5 -104.5q0 -84 -59 -135t-156 -51q-67 0 -112.5 21t-85.5 71l92 65q42 -55 108 -55q40 0 62 20.5t22 57.5q0 32 -16.5 49.5t-46.5 17.5q-33 0 -68 -30l-67 57l135 154q-227 25 -354 190.5 t-127 435.5z" />
<glyph unicode="&#xc8;" horiz-adv-x="1220" d="M78 0l284 1464h902l-33 -168h-694l-93 -475h555l-30 -162h-555l-95 -491h730l-33 -168h-938zM635 1935h242l61 -338h-133z" />
<glyph unicode="&#xc9;" horiz-adv-x="1220" d="M78 0l284 1464h902l-33 -168h-694l-93 -475h555l-30 -162h-555l-95 -491h730l-33 -168h-938zM752 1597l153 338h258l-266 -338h-145z" />
<glyph unicode="&#xca;" horiz-adv-x="1220" d="M78 0l284 1464h902l-33 -168h-694l-93 -475h555l-30 -162h-555l-95 -491h730l-33 -168h-938zM535 1599l266 336h168l141 -336h-137l-113 179l-184 -179h-141z" />
<glyph unicode="&#xcb;" horiz-adv-x="1220" d="M78 0l284 1464h902l-33 -168h-694l-93 -475h555l-30 -162h-555l-95 -491h730l-33 -168h-938zM530 1712q0 54 37.5 92.5t91.5 38.5q47 0 79 -30t32 -76q0 -54 -39 -92.5t-94 -38.5q-46 0 -76.5 30t-30.5 76zM909 1712q0 54 38 92.5t91 38.5q47 0 79 -30t32 -74 q0 -55 -38.5 -94t-92.5 -39q-46 0 -77.5 30.5t-31.5 75.5z" />
<glyph unicode="&#xcc;" horiz-adv-x="606" d="M92 0l285 1464h209l-285 -1464h-209zM281 1935h241l62 -338h-133z" />
<glyph unicode="&#xcd;" horiz-adv-x="606" d="M92 0l285 1464h209l-285 -1464h-209zM444 1597l154 338h258l-266 -338h-146z" />
<glyph unicode="&#xce;" horiz-adv-x="606" d="M92 0l285 1464h209l-285 -1464h-209zM209 1599l266 336h168l141 -336h-137l-112 179l-185 -179h-141z" />
<glyph unicode="&#xcf;" horiz-adv-x="606" d="M92 0l285 1464h209l-285 -1464h-209zM211 1712q0 54 37.5 92.5t91.5 38.5q47 0 79 -30t32 -76q0 -54 -39.5 -92.5t-94.5 -38.5q-46 0 -76 30t-30 76zM590 1712q0 54 38 92.5t91 38.5q47 0 78.5 -30t31.5 -74q0 -55 -38.5 -94t-92.5 -39q-46 0 -77 30t-31 76z" />
<glyph unicode="&#xd0;" horiz-adv-x="1468" d="M59 643l33 166h160l127 655h450q275 0 419.5 -151.5t144.5 -438.5q0 -219 -69.5 -400t-195.5 -294q-201 -180 -532 -180h-502l125 643h-160zM334 168h278q122 0 223 41.5t171 118.5q82 92 126 234.5t44 311.5q0 216 -89.5 319t-277.5 103h-254l-94 -487h274l-30 -166 h-277z" />
<glyph unicode="&#xd1;" horiz-adv-x="1423" d="M78 0l284 1464h252l375 -1222l238 1222h192l-284 -1464h-258l-369 1210l-236 -1210h-194zM627 1620q52 240 207 240q59 0 153 -58q60 -37 90 -37q58 0 82 97l125 -13q-25 -117 -77.5 -178t-129.5 -61q-62 0 -155 57q-60 37 -91 37q-58 0 -81 -96z" />
<glyph unicode="&#xd2;" horiz-adv-x="1564" d="M156 637q0 241 93.5 434.5t260.5 302.5t375 109q278 0 439 -174.5t161 -474.5q0 -244 -95.5 -439t-265.5 -305t-381 -110q-267 0 -427 179t-160 478zM373 604q0 -218 98.5 -337.5t278.5 -119.5q129 0 232 62.5t171 181.5q115 207 115 467q0 220 -98 338.5t-281 118.5 q-262 0 -402 -246q-114 -199 -114 -465zM748 1935h241l62 -338h-133z" />
<glyph unicode="&#xd3;" horiz-adv-x="1564" d="M156 637q0 241 93.5 434.5t260.5 302.5t375 109q278 0 439 -174.5t161 -474.5q0 -244 -95.5 -439t-265.5 -305t-381 -110q-267 0 -427 179t-160 478zM373 604q0 -218 98.5 -337.5t278.5 -119.5q129 0 232 62.5t171 181.5q115 207 115 467q0 220 -98 338.5t-281 118.5 q-262 0 -402 -246q-114 -199 -114 -465zM858 1597l154 338h258l-266 -338h-146z" />
<glyph unicode="&#xd4;" horiz-adv-x="1564" d="M156 637q0 241 93.5 434.5t260.5 302.5t375 109q278 0 439 -174.5t161 -474.5q0 -244 -95.5 -439t-265.5 -305t-381 -110q-267 0 -427 179t-160 478zM373 604q0 -218 98.5 -337.5t278.5 -119.5q129 0 232 62.5t171 181.5q115 207 115 467q0 220 -98 338.5t-281 118.5 q-262 0 -402 -246q-114 -199 -114 -465zM670 1599l266 336h168l141 -336h-137l-113 179l-184 -179h-141z" />
<glyph unicode="&#xd5;" horiz-adv-x="1564" d="M156 637q0 241 93.5 434.5t260.5 302.5t375 109q278 0 439 -174.5t161 -474.5q0 -244 -95.5 -439t-265.5 -305t-381 -110q-267 0 -427 179t-160 478zM373 604q0 -218 98.5 -337.5t278.5 -119.5q129 0 232 62.5t171 181.5q115 207 115 467q0 220 -98 338.5t-281 118.5 q-262 0 -402 -246q-114 -199 -114 -465zM643 1620q49 240 207 240q60 0 154 -58q60 -37 90 -37q58 0 82 97l124 -13q-51 -239 -206 -239q-66 0 -156 57q-60 37 -90 37q-59 0 -82 -96z" />
<glyph unicode="&#xd6;" horiz-adv-x="1564" d="M156 637q0 241 93.5 434.5t260.5 302.5t375 109q278 0 439 -174.5t161 -474.5q0 -244 -95.5 -439t-265.5 -305t-381 -110q-267 0 -427 179t-160 478zM373 604q0 -218 98.5 -337.5t278.5 -119.5q129 0 232 62.5t171 181.5q115 207 115 467q0 220 -98 338.5t-281 118.5 q-262 0 -402 -246q-114 -199 -114 -465zM631 1712q0 54 37.5 92.5t91.5 38.5q47 0 78.5 -30t31.5 -76q0 -54 -39 -92.5t-94 -38.5q-46 0 -76 30t-30 76zM1010 1712q0 54 38 92.5t91 38.5q47 0 78.5 -30t31.5 -74q0 -55 -38.5 -94t-92.5 -39q-46 0 -77 30t-31 76z" />
<glyph unicode="&#xd7;" horiz-adv-x="1146" d="M170 383l313 334l-313 332l127 120l307 -327l307 327l125 -120l-313 -332l313 -334l-125 -121l-307 328l-307 -328z" />
<glyph unicode="&#xd8;" horiz-adv-x="1564" d="M6 0l244 248q-94 164 -94 389q0 241 93.5 434.5t260 302.5t373.5 109q259 0 422 -156l135 137h194l-241 -247q92 -170 92 -383q0 -241 -95 -436.5t-263.5 -306.5t-376.5 -111q-247 0 -414 157l-135 -137h-195zM373 616q0 -122 26 -215l772 789q-101 125 -282 125 q-129 0 -231.5 -63t-170.5 -183q-114 -199 -114 -453zM467 272q107 -125 285 -125q127 0 230 62.5t171 181.5q115 209 115 457q0 126 -31 211z" />
<glyph unicode="&#xd9;" horiz-adv-x="1429" d="M172 442q0 76 21 181l165 841h209l-170 -870q-18 -102 -18 -168q0 -143 73.5 -211t227.5 -68q158 0 245 85.5t124 277.5l186 954h201l-195 -1005q-47 -241 -188.5 -360t-380.5 -119q-241 0 -370.5 119.5t-129.5 342.5zM727 1935h242l61 -338h-133z" />
<glyph unicode="&#xda;" horiz-adv-x="1429" d="M172 442q0 76 21 181l165 841h209l-170 -870q-18 -102 -18 -168q0 -143 73.5 -211t227.5 -68q158 0 245 85.5t124 277.5l186 954h201l-195 -1005q-47 -241 -188.5 -360t-380.5 -119q-241 0 -370.5 119.5t-129.5 342.5zM825 1597l154 338h258l-266 -338h-146z" />
<glyph unicode="&#xdb;" horiz-adv-x="1429" d="M172 442q0 76 21 181l165 841h209l-170 -870q-18 -102 -18 -168q0 -143 73.5 -211t227.5 -68q158 0 245 85.5t124 277.5l186 954h201l-195 -1005q-47 -241 -188.5 -360t-380.5 -119q-241 0 -370.5 119.5t-129.5 342.5zM631 1599l266 336h168l141 -336h-137l-113 179 l-184 -179h-141z" />
<glyph unicode="&#xdc;" horiz-adv-x="1429" d="M172 442q0 76 21 181l165 841h209l-170 -870q-18 -102 -18 -168q0 -143 73.5 -211t227.5 -68q158 0 245 85.5t124 277.5l186 954h201l-195 -1005q-47 -241 -188.5 -360t-380.5 -119q-241 0 -370.5 119.5t-129.5 342.5zM623 1712q0 54 37.5 92.5t91.5 38.5q47 0 78.5 -30 t31.5 -76q0 -54 -39 -92.5t-94 -38.5q-46 0 -76 30t-30 76zM1001 1712q0 54 38 92.5t91 38.5q47 0 79 -30t32 -74q0 -55 -38.5 -94t-92.5 -39q-46 0 -77.5 30.5t-31.5 75.5z" />
<glyph unicode="&#xdd;" horiz-adv-x="1189" d="M199 1464h221l233 -667l471 667h224l-625 -858l-119 -606h-209l119 614zM735 1597l154 338h258l-266 -338h-146z" />
<glyph unicode="&#xde;" horiz-adv-x="1290" d="M78 0l284 1464h209l-53 -274h289q207 0 317.5 -95.5t110.5 -275.5q0 -230 -149 -362.5t-408 -132.5h-328l-63 -324h-209zM381 489h311q166 0 252 80t86 232q0 221 -244 221h-301z" />
<glyph unicode="&#xdf;" horiz-adv-x="1185" d="M72 0l229 1180q74 387 436 387q166 0 265.5 -92t99.5 -244q0 -129 -78 -225q-39 -50 -87 -79t-128 -53q137 -43 200.5 -135t63.5 -247q0 -232 -121.5 -369t-328.5 -137q-110 0 -205 49l31 153h6q64 -41 151 -41q121 0 188.5 93.5t67.5 261.5q0 146 -60 213t-206 84 l31 162q82 0 128.5 16t84.5 57q67 70 67 187q0 92 -44.5 141t-127.5 49q-92 0 -147 -57.5t-78 -179.5l-229 -1174h-209z" />
<glyph unicode="&#xe0;" horiz-adv-x="1085" d="M51 266q0 124 82 211.5t232 122.5q135 33 374 41l9 41q8 47 8 82q0 158 -172 158q-84 0 -156.5 -27t-151.5 -88l-88 137q99 77 200.5 112.5t225.5 35.5q167 0 258 -76t91 -217q0 -52 -13 -119l-84 -432q-4 -24 -4 -33q0 -37 21.5 -52.5t72.5 -15.5l-30 -153 q-44 -6 -66 -6q-179 0 -203 155q-69 -86 -141.5 -124.5t-163.5 -38.5q-132 0 -216.5 80t-84.5 206zM260 279q0 -68 41 -104t119 -36q102 0 173.5 59.5t90.5 159.5l27 146q-249 -8 -350 -58t-101 -167zM473 1542h242l61 -338h-133z" />
<glyph unicode="&#xe1;" horiz-adv-x="1085" d="M51 266q0 124 82 211.5t232 122.5q135 33 374 41l9 41q8 47 8 82q0 158 -172 158q-84 0 -156.5 -27t-151.5 -88l-88 137q99 77 200.5 112.5t225.5 35.5q167 0 258 -76t91 -217q0 -52 -13 -119l-84 -432q-4 -24 -4 -33q0 -37 21.5 -52.5t72.5 -15.5l-30 -153 q-44 -6 -66 -6q-179 0 -203 155q-69 -86 -141.5 -124.5t-163.5 -38.5q-132 0 -216.5 80t-84.5 206zM260 279q0 -68 41 -104t119 -36q102 0 173.5 59.5t90.5 159.5l27 146q-249 -8 -350 -58t-101 -167zM528 1204l154 338h258l-266 -338h-146z" />
<glyph unicode="&#xe2;" horiz-adv-x="1085" d="M51 266q0 124 82 211.5t232 122.5q135 33 374 41l9 41q8 47 8 82q0 158 -172 158q-84 0 -156.5 -27t-151.5 -88l-88 137q99 77 200.5 112.5t225.5 35.5q167 0 258 -76t91 -217q0 -52 -13 -119l-84 -432q-4 -24 -4 -33q0 -37 21.5 -52.5t72.5 -15.5l-30 -153 q-44 -6 -66 -6q-179 0 -203 155q-69 -86 -141.5 -124.5t-163.5 -38.5q-132 0 -216.5 80t-84.5 206zM260 279q0 -68 41 -104t119 -36q102 0 173.5 59.5t90.5 159.5l27 146q-249 -8 -350 -58t-101 -167zM348 1206l266 336h168l142 -336h-138l-112 178l-185 -178h-141z" />
<glyph unicode="&#xe3;" horiz-adv-x="1085" d="M51 266q0 124 82 211.5t232 122.5q135 33 374 41l9 41q8 47 8 82q0 158 -172 158q-84 0 -156.5 -27t-151.5 -88l-88 137q99 77 200.5 112.5t225.5 35.5q167 0 258 -76t91 -217q0 -52 -13 -119l-84 -432q-4 -24 -4 -33q0 -37 21.5 -52.5t72.5 -15.5l-30 -153 q-44 -6 -66 -6q-179 0 -203 155q-69 -86 -141.5 -124.5t-163.5 -38.5q-132 0 -216.5 80t-84.5 206zM260 279q0 -68 41 -104t119 -36q102 0 173.5 59.5t90.5 159.5l27 146q-249 -8 -350 -58t-101 -167zM328 1264q52 239 204 239q35 0 68.5 -12t87.5 -45q60 -37 90 -37 q59 0 82 96l125 -12q-23 -118 -76 -179t-131 -61q-61 0 -155 58q-57 37 -88 37q-60 0 -84 -97z" />
<glyph unicode="&#xe4;" horiz-adv-x="1085" d="M51 266q0 124 82 211.5t232 122.5q135 33 374 41l9 41q8 47 8 82q0 158 -172 158q-84 0 -156.5 -27t-151.5 -88l-88 137q99 77 200.5 112.5t225.5 35.5q167 0 258 -76t91 -217q0 -52 -13 -119l-84 -432q-4 -24 -4 -33q0 -37 21.5 -52.5t72.5 -15.5l-30 -153 q-44 -6 -66 -6q-179 0 -203 155q-69 -86 -141.5 -124.5t-163.5 -38.5q-132 0 -216.5 80t-84.5 206zM260 279q0 -68 41 -104t119 -36q102 0 173.5 59.5t90.5 159.5l27 146q-249 -8 -350 -58t-101 -167zM371 1364q0 54 37.5 92.5t91.5 38.5q47 0 78.5 -30t31.5 -76 q0 -54 -39.5 -93t-93.5 -39q-46 0 -76 30.5t-30 76.5zM750 1364q0 54 38 92.5t91 38.5q47 0 78.5 -30t31.5 -74q0 -55 -38.5 -94.5t-92.5 -39.5q-46 0 -77 30.5t-31 76.5z" />
<glyph unicode="&#xe5;" horiz-adv-x="1085" d="M51 266q0 124 82 211.5t232 122.5q135 33 374 41l9 41q8 47 8 82q0 158 -172 158q-84 0 -156.5 -27t-151.5 -88l-88 137q99 77 200.5 112.5t225.5 35.5q167 0 258 -76t91 -217q0 -52 -13 -119l-84 -432q-4 -24 -4 -33q0 -37 21.5 -52.5t72.5 -15.5l-30 -153 q-44 -6 -66 -6q-179 0 -203 155q-69 -86 -141.5 -124.5t-163.5 -38.5q-132 0 -216.5 80t-84.5 206zM260 279q0 -68 41 -104t119 -36q102 0 173.5 59.5t90.5 159.5l27 146q-249 -8 -350 -58t-101 -167zM461 1386q0 97 67 165.5t162 68.5q86 0 142.5 -55.5t56.5 -141.5 q0 -98 -67.5 -166.5t-164.5 -68.5q-85 0 -140.5 56t-55.5 142zM575 1389q0 -44 24.5 -72.5t62.5 -28.5q49 0 81.5 36.5t32.5 92.5q0 46 -25.5 74.5t-66.5 28.5q-48 0 -78.5 -36.5t-30.5 -94.5z" />
<glyph unicode="&#xe6;" horiz-adv-x="1716" d="M53 260q0 231 260 311q75 23 166 32t254 9l17 84q8 46 8 78q0 150 -172 150q-85 0 -159 -26.5t-153 -86.5l-86 133q100 78 201 113t227 35q125 0 199 -41t111 -131q83 89 174 130.5t203 41.5q153 0 245 -80.5t92 -212.5q0 -101 -47 -168t-147 -105q-82 -31 -201 -44.5 t-330 -16.5q-2 -18 -2 -43q0 -147 52.5 -214t167.5 -67q85 0 142.5 31t135.5 119l133 -98q-87 -112 -187.5 -162.5t-234.5 -50.5q-136 0 -226 52t-146 161q-77 -110 -168 -161.5t-211 -51.5q-144 0 -231 77t-87 203zM260 279q0 -67 41 -102.5t119 -35.5q103 0 176 59.5 t90 157.5l21 117q-195 0 -285 -20q-85 -20 -123.5 -62t-38.5 -114zM938 610q124 0 206.5 5t142.5 16t92 32t46.5 50t14.5 73q0 69 -42.5 106.5t-119.5 37.5q-251 0 -340 -320z" />
<glyph unicode="&#xe7;" horiz-adv-x="1083" d="M86 442q0 187 70 335.5t195 231.5t282 83q143 0 235.5 -63.5t149.5 -199.5l-174 -79q-40 102 -85.5 141t-125.5 39q-151 0 -241.5 -136t-90.5 -360q0 -293 221 -293q85 0 148.5 44.5t120.5 142.5l149 -90q-86 -132 -184.5 -192t-237.5 -66l-86 -101q31 8 47 8 q60 0 97.5 -40.5t37.5 -104.5q0 -85 -59.5 -135.5t-159.5 -50.5q-65 0 -110.5 21.5t-83.5 70.5l92 65q39 -55 108 -55q40 0 62 21t22 59q0 31 -17.5 48t-49.5 17q-34 0 -64 -30l-67 57l135 156q-163 32 -249.5 149.5t-86.5 306.5z" />
<glyph unicode="&#xe8;" horiz-adv-x="1095" d="M86 418q0 187 77 341.5t212 243.5t297 89q156 0 251 -82.5t95 -218.5q0 -121 -84.5 -197.5t-259.5 -114.5q-80 -18 -156 -25t-225 -10q-2 -23 -2 -45q0 -258 219 -258q84 0 147 34.5t129 115.5l136 -98q-88 -110 -190 -161.5t-234 -51.5q-195 0 -303.5 115.5 t-108.5 322.5zM309 590q268 0 388 45.5t120 148.5q0 68 -43.5 107t-118.5 39q-129 0 -217 -86.5t-129 -253.5zM467 1542h242l61 -338h-133z" />
<glyph unicode="&#xe9;" horiz-adv-x="1095" d="M86 418q0 187 77 341.5t212 243.5t297 89q156 0 251 -82.5t95 -218.5q0 -121 -84.5 -197.5t-259.5 -114.5q-80 -18 -156 -25t-225 -10q-2 -23 -2 -45q0 -258 219 -258q84 0 147 34.5t129 115.5l136 -98q-88 -110 -190 -161.5t-234 -51.5q-195 0 -303.5 115.5 t-108.5 322.5zM309 590q268 0 388 45.5t120 148.5q0 68 -43.5 107t-118.5 39q-129 0 -217 -86.5t-129 -253.5zM612 1204l154 338h258l-266 -338h-146z" />
<glyph unicode="&#xea;" horiz-adv-x="1095" d="M86 418q0 187 77 341.5t212 243.5t297 89q156 0 251 -82.5t95 -218.5q0 -121 -84.5 -197.5t-259.5 -114.5q-80 -18 -156 -25t-225 -10q-2 -23 -2 -45q0 -258 219 -258q84 0 147 34.5t129 115.5l136 -98q-88 -110 -190 -161.5t-234 -51.5q-195 0 -303.5 115.5 t-108.5 322.5zM309 590q268 0 388 45.5t120 148.5q0 68 -43.5 107t-118.5 39q-129 0 -217 -86.5t-129 -253.5zM401 1206l267 336h168l141 -336h-137l-113 178l-184 -178h-142z" />
<glyph unicode="&#xeb;" horiz-adv-x="1095" d="M86 418q0 187 77 341.5t212 243.5t297 89q156 0 251 -82.5t95 -218.5q0 -121 -84.5 -197.5t-259.5 -114.5q-80 -18 -156 -25t-225 -10q-2 -23 -2 -45q0 -258 219 -258q84 0 147 34.5t129 115.5l136 -98q-88 -110 -190 -161.5t-234 -51.5q-195 0 -303.5 115.5 t-108.5 322.5zM309 590q268 0 388 45.5t120 148.5q0 68 -43.5 107t-118.5 39q-129 0 -217 -86.5t-129 -253.5zM401 1364q0 54 37.5 92.5t91.5 38.5q47 0 79 -30t32 -76q0 -54 -39.5 -93t-93.5 -39q-46 0 -76.5 30.5t-30.5 76.5zM780 1364q0 54 38 92.5t91 38.5q47 0 79 -30 t32 -74q0 -55 -38.5 -94.5t-92.5 -39.5q-46 0 -77.5 30.5t-31.5 76.5z" />
<glyph unicode="&#xec;" horiz-adv-x="569" d="M76 0l209 1071h204l-208 -1071h-205zM168 1542h242l61 -338h-133z" />
<glyph unicode="&#xed;" horiz-adv-x="569" d="M76 0l209 1071h204l-208 -1071h-205zM338 1204l154 338h258l-267 -338h-145z" />
<glyph unicode="&#xee;" horiz-adv-x="569" d="M76 0l209 1071h204l-208 -1071h-205zM115 1206l266 336h168l141 -336h-137l-113 178l-184 -178h-141z" />
<glyph unicode="&#xef;" horiz-adv-x="569" d="M76 0l209 1071h204l-208 -1071h-205zM125 1364q0 54 37.5 92.5t91.5 38.5q47 0 79 -30t32 -76q0 -54 -40 -93t-94 -39q-46 0 -76 30.5t-30 76.5zM504 1364q0 54 38 92.5t91 38.5q47 0 78.5 -30t31.5 -74q0 -55 -38.5 -94.5t-92.5 -39.5q-46 0 -77 30.5t-31 76.5z" />
<glyph unicode="&#xf0;" horiz-adv-x="1146" d="M86 444q0 175 69.5 321.5t190 231t264.5 84.5q74 0 124.5 -22t94.5 -74q-55 159 -170 291l-165 -129l-64 94l152 117q-21 20 -39 36t-41.5 35.5t-36.5 30.5l108 139q89 -63 158 -122l154 118l65 -94l-135 -104q138 -155 198 -311t60 -359q0 -340 -151.5 -543.5 t-403.5 -203.5q-201 0 -316.5 124.5t-115.5 339.5zM295 430q0 -141 56.5 -214t166.5 -73q162 0 250 154q82 151 82 346q0 136 -56 206.5t-165 70.5q-149 0 -241.5 -135t-92.5 -355z" />
<glyph unicode="&#xf1;" horiz-adv-x="1189" d="M72 0l209 1071h206l-30 -160q65 94 143 137.5t182 43.5q132 0 206.5 -78.5t74.5 -218.5q0 -69 -12 -127l-129 -668h-207l129 670q10 55 10 98q0 154 -160 154q-114 0 -190.5 -77.5t-104.5 -219.5l-120 -625h-207zM387 1264q49 239 205 239q60 0 153 -57q63 -37 93 -37 q59 0 82 96l124 -12q-50 -240 -208 -240q-62 0 -154 58q-60 37 -90 37q-58 0 -82 -97z" />
<glyph unicode="&#xf2;" horiz-adv-x="1153" d="M90 457q0 180 70.5 325.5t196 227.5t280.5 82q196 0 311 -126t115 -341q0 -282 -152.5 -463.5t-388.5 -181.5q-198 0 -315 129.5t-117 347.5zM305 430q0 -289 217 -289q163 0 250 170q76 149 76 340q0 138 -54.5 208.5t-160.5 70.5q-146 0 -237 -138.5t-91 -361.5z M483 1542h242l61 -338h-133z" />
<glyph unicode="&#xf3;" horiz-adv-x="1153" d="M90 457q0 180 70.5 325.5t196 227.5t280.5 82q196 0 311 -126t115 -341q0 -282 -152.5 -463.5t-388.5 -181.5q-198 0 -315 129.5t-117 347.5zM305 430q0 -289 217 -289q163 0 250 170q76 149 76 340q0 138 -54.5 208.5t-160.5 70.5q-146 0 -237 -138.5t-91 -361.5z M592 1204l153 338h259l-267 -338h-145z" />
<glyph unicode="&#xf4;" horiz-adv-x="1153" d="M90 457q0 180 70.5 325.5t196 227.5t280.5 82q196 0 311 -126t115 -341q0 -282 -152.5 -463.5t-388.5 -181.5q-198 0 -315 129.5t-117 347.5zM305 430q0 -289 217 -289q163 0 250 170q76 149 76 340q0 138 -54.5 208.5t-160.5 70.5q-146 0 -237 -138.5t-91 -361.5z M387 1206l266 336h168l142 -336h-138l-112 178l-185 -178h-141z" />
<glyph unicode="&#xf5;" horiz-adv-x="1153" d="M90 457q0 180 70.5 325.5t196 227.5t280.5 82q196 0 311 -126t115 -341q0 -282 -152.5 -463.5t-388.5 -181.5q-198 0 -315 129.5t-117 347.5zM305 430q0 -289 217 -289q163 0 250 170q76 149 76 340q0 138 -54.5 208.5t-160.5 70.5q-146 0 -237 -138.5t-91 -361.5z M375 1264q49 239 205 239q60 0 153 -57q63 -37 92 -37q59 0 82 96l125 -12q-50 -240 -209 -240q-61 0 -153 58q-60 37 -90 37q-58 0 -82 -97z" />
<glyph unicode="&#xf6;" horiz-adv-x="1153" d="M90 457q0 180 70.5 325.5t196 227.5t280.5 82q196 0 311 -126t115 -341q0 -282 -152.5 -463.5t-388.5 -181.5q-198 0 -315 129.5t-117 347.5zM305 430q0 -289 217 -289q163 0 250 170q76 149 76 340q0 138 -54.5 208.5t-160.5 70.5q-146 0 -237 -138.5t-91 -361.5z M406 1364q0 54 37.5 92.5t91.5 38.5q47 0 78.5 -30t31.5 -76q0 -54 -39.5 -93t-93.5 -39q-46 0 -76 30.5t-30 76.5zM784 1364q0 54 38 92.5t91 38.5q47 0 79 -30t32 -74q0 -55 -38.5 -94.5t-92.5 -39.5q-46 0 -77.5 30.5t-31.5 76.5z" />
<glyph unicode="&#xf7;" horiz-adv-x="1146" d="M158 616l32 168h863l-33 -168h-862zM387 291q0 63 45.5 107t108.5 44q55 0 92 -37t37 -92q0 -64 -43.5 -107.5t-108.5 -43.5q-56 0 -93.5 37t-37.5 92zM541 1087q0 63 45 107.5t108 44.5q56 0 92.5 -36.5t36.5 -92.5q0 -65 -43.5 -108.5t-107.5 -43.5q-56 0 -93.5 37 t-37.5 92z" />
<glyph unicode="&#xf8;" horiz-adv-x="1153" d="M-31 0l183 188q-62 118 -62 269q0 130 41.5 250t116.5 208q146 177 389 177q180 0 287 -101l77 80h187l-182 -188q57 -106 57 -258q0 -184 -69.5 -331.5t-192 -230.5t-275.5 -83q-177 0 -293 104l-81 -84h-183zM305 432q0 -22 4 -80l488 506q-59 74 -166 74 q-153 0 -242 -150q-40 -66 -62 -158.5t-22 -191.5zM358 215q62 -74 164 -74q162 0 250 172q76 146 76 338q0 39 -2 66z" />
<glyph unicode="&#xf9;" horiz-adv-x="1171" d="M125 276q0 48 22 168l121 627h207l-129 -661q-12 -56 -12 -107q0 -158 149 -158q108 0 184.5 79.5t104.5 219.5l121 627h207l-209 -1071h-207l35 172q-69 -101 -145.5 -146.5t-176.5 -45.5q-128 0 -200 78.5t-72 217.5zM487 1542h242l62 -338h-134z" />
<glyph unicode="&#xfa;" horiz-adv-x="1171" d="M125 276q0 48 22 168l121 627h207l-129 -661q-12 -56 -12 -107q0 -158 149 -158q108 0 184.5 79.5t104.5 219.5l121 627h207l-209 -1071h-207l35 172q-69 -101 -145.5 -146.5t-176.5 -45.5q-128 0 -200 78.5t-72 217.5zM608 1204l154 338h258l-266 -338h-146z" />
<glyph unicode="&#xfb;" horiz-adv-x="1171" d="M125 276q0 48 22 168l121 627h207l-129 -661q-12 -56 -12 -107q0 -158 149 -158q108 0 184.5 79.5t104.5 219.5l121 627h207l-209 -1071h-207l35 172q-69 -101 -145.5 -146.5t-176.5 -45.5q-128 0 -200 78.5t-72 217.5zM416 1206l266 336h168l141 -336h-137l-113 178 l-184 -178h-141z" />
<glyph unicode="&#xfc;" horiz-adv-x="1171" d="M125 276q0 48 22 168l121 627h207l-129 -661q-12 -56 -12 -107q0 -158 149 -158q108 0 184.5 79.5t104.5 219.5l121 627h207l-209 -1071h-207l35 172q-69 -101 -145.5 -146.5t-176.5 -45.5q-128 0 -200 78.5t-72 217.5zM420 1364q0 54 37.5 92.5t91.5 38.5q47 0 78.5 -30 t31.5 -76q0 -54 -39.5 -93t-93.5 -39q-46 0 -76 30.5t-30 76.5zM799 1364q0 54 38 92.5t91 38.5q47 0 78.5 -30t31.5 -74q0 -55 -38.5 -94.5t-92.5 -39.5q-46 0 -77 30.5t-31 76.5z" />
<glyph unicode="&#xfd;" horiz-adv-x="987" d="M-121 -309l84 135q49 -49 119 -49q54 0 92 30.5t72 98.5l57 117l-180 1048h215l119 -782l395 782h217l-666 -1231q-66 -122 -137.5 -173.5t-175.5 -51.5q-120 0 -211 76zM522 1204l154 338h258l-266 -338h-146z" />
<glyph unicode="&#xfe;" horiz-adv-x="1236" d="M2 -373l371 1915h207l-121 -624q132 174 334 174q166 0 260 -115t94 -318q0 -191 -68.5 -346t-189 -243t-268.5 -88q-222 0 -304 215l-108 -570h-207zM365 428q0 -140 60 -212.5t177 -72.5q164 0 250 154q80 144 80 344q0 289 -213 289q-154 0 -254 -142t-100 -360z" />
<glyph unicode="&#xff;" horiz-adv-x="987" d="M-121 -309l84 135q49 -49 119 -49q54 0 92 30.5t72 98.5l57 117l-180 1048h215l119 -782l395 782h217l-666 -1231q-66 -122 -137.5 -173.5t-175.5 -51.5q-120 0 -211 76zM315 1364q0 54 37.5 92.5t91.5 38.5q47 0 79 -30t32 -76q0 -54 -39.5 -93t-93.5 -39 q-46 0 -76.5 30.5t-30.5 76.5zM694 1364q0 54 38 92.5t91 38.5q47 0 79 -30t32 -74q0 -55 -38.5 -94.5t-92.5 -39.5q-46 0 -77.5 30.5t-31.5 76.5z" />
<glyph unicode="&#x152;" horiz-adv-x="2213" d="M156 616q0 177 56 341t157 286q202 240 516 240q148 0 251.5 -51.5t180.5 -161.5l39 194h901l-33 -168h-694l-92 -475h555l-31 -162h-555l-96 -491h731l-33 -168h-938l23 119q-88 -73 -174.5 -106t-192.5 -33q-258 0 -414.5 174.5t-156.5 461.5zM373 602 q0 -218 94.5 -336.5t269.5 -118.5q169 0 289 119t160 326l39 209q16 81 16 133q0 173 -97.5 277t-260.5 104q-148 0 -264 -90.5t-181 -253t-65 -369.5z" />
<glyph unicode="&#x153;" horiz-adv-x="1845" d="M90 446q0 181 72 329t198.5 232.5t280.5 84.5q127 0 213 -57t139 -175q91 119 198.5 175.5t240.5 56.5q154 0 245.5 -82t91.5 -219q0 -121 -85.5 -198t-260.5 -114q-82 -18 -157 -25t-224 -10q0 -131 25 -188q52 -115 195 -115q86 0 143.5 31t132.5 119l135 -98 q-90 -112 -190.5 -162.5t-231.5 -50.5q-128 0 -211.5 48t-134.5 152q-77 -103 -170.5 -151.5t-214.5 -48.5q-198 0 -314 125t-116 341zM297 430q0 -143 56.5 -216t166.5 -73q160 0 248 154q84 155 84 358q0 136 -56 206.5t-165 70.5q-149 0 -241.5 -138.5t-92.5 -361.5z M1061 590q267 0 387.5 45.5t120.5 146.5q0 69 -43 108.5t-119 39.5q-259 0 -346 -340z" />
<glyph unicode="&#x178;" horiz-adv-x="1189" d="M199 1464h221l233 -667l471 667h224l-625 -858l-119 -606h-209l119 614zM496 1712q0 54 37.5 92.5t91.5 38.5q47 0 78.5 -30t31.5 -76q0 -54 -39 -92.5t-94 -38.5q-46 0 -76 30t-30 76zM874 1712q0 54 38.5 92.5t91.5 38.5q47 0 78.5 -30t31.5 -74q0 -55 -38.5 -94 t-92.5 -39q-46 0 -77.5 30.5t-31.5 75.5z" />
<glyph unicode="&#x2c6;" horiz-adv-x="1024" d="M352 1206l266 336h168l142 -336h-137l-113 178l-184 -178h-142z" />
<glyph unicode="&#x2dc;" horiz-adv-x="1024" d="M346 1264q49 239 205 239q61 0 156 -57q60 -37 90 -37q59 0 82 96l125 -12q-50 -240 -209 -240q-60 0 -154 58q-60 37 -88 37q-60 0 -84 -97z" />
<glyph unicode="&#x2000;" horiz-adv-x="1006" />
<glyph unicode="&#x2001;" horiz-adv-x="2013" />
<glyph unicode="&#x2002;" horiz-adv-x="1006" />
<glyph unicode="&#x2003;" horiz-adv-x="2013" />
<glyph unicode="&#x2004;" horiz-adv-x="671" />
<glyph unicode="&#x2005;" horiz-adv-x="503" />
<glyph unicode="&#x2006;" horiz-adv-x="335" />
<glyph unicode="&#x2007;" horiz-adv-x="335" />
<glyph unicode="&#x2008;" horiz-adv-x="251" />
<glyph unicode="&#x2009;" horiz-adv-x="402" />
<glyph unicode="&#x200a;" horiz-adv-x="111" />
<glyph unicode="&#x2010;" horiz-adv-x="616" d="M86 578l35 186h461l-35 -186h-461z" />
<glyph unicode="&#x2011;" horiz-adv-x="616" d="M86 578l35 186h461l-35 -186h-461z" />
<glyph unicode="&#x2012;" horiz-adv-x="616" d="M86 578l35 186h461l-35 -186h-461z" />
<glyph unicode="&#x2013;" d="M129 588l35 172h999l-35 -172h-999z" />
<glyph unicode="&#x2014;" d="M-72 588l35 172h1391l-35 -172h-1391z" />
<glyph unicode="&#x2018;" horiz-adv-x="602" d="M283 1157q0 71 24.5 144.5t67.5 128.5q46 60 103 91.5t143 41.5l-21 -103q-129 -34 -164 -194q55 -7 86 -39t31 -82q0 -57 -39.5 -95t-99.5 -38t-95.5 39t-35.5 106z" />
<glyph unicode="&#x2019;" horiz-adv-x="602" d="M268 1010l21 102q129 35 164 197q-54 6 -85.5 37.5t-31.5 80.5q0 57 40.5 96.5t98.5 39.5q60 0 95.5 -41t35.5 -107q0 -71 -24.5 -144t-67.5 -128q-46 -61 -102.5 -91.5t-143.5 -41.5z" />
<glyph unicode="&#x201a;" horiz-adv-x="602" d="M18 -303l21 102q126 34 164 197q-55 6 -86 38t-31 83q0 56 40.5 94.5t98.5 38.5q60 0 95.5 -41t35.5 -107q0 -71 -24.5 -144t-67.5 -128q-46 -60 -103 -91.5t-143 -41.5z" />
<glyph unicode="&#x201c;" horiz-adv-x="1005" d="M287 1157q0 71 24.5 144.5t67.5 128.5q46 60 103 91.5t143 41.5l-21 -103q-129 -34 -164 -194q55 -7 86 -39t31 -82q0 -57 -39.5 -95t-99.5 -38t-95.5 39t-35.5 106zM680 1157q0 71 24.5 144.5t67.5 128.5q46 60 103 91.5t143 41.5l-21 -103q-128 -34 -163 -194 q55 -7 85.5 -39t30.5 -82q0 -57 -39.5 -95t-99.5 -38t-95.5 39t-35.5 106z" />
<glyph unicode="&#x201d;" horiz-adv-x="1005" d="M272 1010l21 102q129 35 164 197q-54 6 -85.5 37.5t-31.5 80.5q0 57 40.5 96.5t98.5 39.5q60 0 95.5 -41t35.5 -107q0 -71 -24.5 -144t-67.5 -128q-46 -61 -102.5 -91.5t-143.5 -41.5zM666 1010l20 102q129 35 164 197q-54 6 -85.5 37.5t-31.5 80.5q0 57 40.5 96.5 t98.5 39.5q60 0 96 -41t36 -107q0 -70 -25 -143t-68 -129q-46 -61 -102.5 -91.5t-142.5 -41.5z" />
<glyph unicode="&#x201e;" horiz-adv-x="1005" d="M23 -303l20 102q126 34 164 197q-55 6 -86 38t-31 83q0 56 40.5 94.5t98.5 38.5q60 0 95.5 -41t35.5 -107q0 -71 -24.5 -144t-67.5 -128q-46 -61 -102.5 -92t-142.5 -41zM416 -303l20 102q129 35 164 197q-54 6 -84.5 37t-30.5 82q0 58 39.5 96.5t98.5 38.5 q60 0 95.5 -41t35.5 -107q0 -71 -24.5 -144t-67.5 -128q-46 -60 -103 -91.5t-143 -41.5z" />
<glyph unicode="&#x2022;" horiz-adv-x="819" d="M168 682q0 115 77 191.5t193 76.5q114 0 190.5 -77t76.5 -191q0 -115 -76.5 -191.5t-192.5 -76.5q-114 0 -191 77t-77 191z" />
<glyph unicode="&#x2026;" horiz-adv-x="1849" d="M82 123q0 66 47 112t113 46q58 0 96.5 -38.5t38.5 -97.5q0 -66 -45.5 -110.5t-112.5 -44.5q-60 0 -98.5 38t-38.5 95zM698 123q0 66 47 112t113 46q58 0 96.5 -38.5t38.5 -97.5q0 -66 -45 -110.5t-112 -44.5q-60 0 -99 38t-39 95zM1315 123q0 66 47 112t113 46 q58 0 96.5 -38.5t38.5 -97.5q0 -66 -45.5 -110.5t-112.5 -44.5q-60 0 -98.5 38t-38.5 95z" />
<glyph unicode="&#x202f;" horiz-adv-x="402" />
<glyph unicode="&#x2039;" horiz-adv-x="700" d="M129 502l326 399h196l-327 -416l157 -401h-180z" />
<glyph unicode="&#x203a;" horiz-adv-x="700" d="M37 84l325 416l-155 401h180l172 -416l-326 -401h-196z" />
<glyph unicode="&#x205f;" horiz-adv-x="503" />
<glyph unicode="&#x20ac;" d="M25 514l24 129h162q4 92 18 168h-147l24 129h152q39 118 71.5 184.5t84.5 130.5q182 228 463 228q229 0 337 -150q35 -49 52.5 -99.5t36.5 -156.5l-197 -41q-19 120 -45 168q-57 111 -197 111q-269 0 -393 -375h416l-27 -129h-420q-14 -76 -18 -168h407l-26 -129h-381 q11 -133 41 -199q74 -161 252 -161q111 0 185.5 64.5t141.5 219.5l177 -65q-37 -84 -63 -128.5t-66 -88.5q-149 -174 -388 -174q-132 0 -235 53.5t-166 154.5q-44 71 -63 136t-29 188h-184z" />
<glyph unicode="&#x2122;" horiz-adv-x="1544" d="M231 1358l21 106h520l-20 -106h-191l-110 -553h-132l109 553h-197zM754 805l129 659h170l71 -499l260 499h185l-129 -659h-125l94 489l-264 -489h-105l-73 489l-97 -489h-116z" />
<glyph unicode="&#x25fc;" horiz-adv-x="1075" d="M0 0v1075h1075v-1075h-1075z" />
</font>
</defs>
</svg>
